<?xml version="1.0" encoding="utf-8"?>
<!-- Generator: Adobe Illustrator 16.0.0, SVG Export Plug-In . SVG Version: 6.00 Build 0)  -->
<!DOCTYPE svg PUBLIC "-//W3C//DTD SVG 1.1//EN" "http://www.w3.org/Graphics/SVG/1.1/DTD/svg11.dtd">
<svg version="1.1" xmlns="http://www.w3.org/2000/svg" xmlns:xlink="http://www.w3.org/1999/xlink" x="0px" y="0px" width="301px"
	 height="301px" viewBox="0 0 301 301" enable-background="new 0 0 301 301" xml:space="preserve">
<g id="background" display="none">
	<g display="inline">
		<rect x="0.5" y="0.5" fill="#E6E7E8" stroke="#F3F3F3" stroke-miterlimit="10" width="300" height="300"/>
	</g>
</g>
<g id="_x30_1">
	<g>
		<path fill="#E0CEE5" d="M195.763,78.96c-20.885-7.146-20.528-14.202-42.028-9.202s-17.18,25.435-38.863,29.563
			c-9.322,1.775-12.26-18.886-21.707-17.992s-4.295,9.875-9.835,17.58c-9.63,13.393-20.84,8.663-23.713,24.907
			c-2.874,16.244,13.73,17.516,14.097,34.007c0.146,6.603-15.247,10.995-11.888,16.681c3.36,5.686,23.049-2.882,24.919,3.451
			c2.721,9.207-18.384,13.549-17.248,23.082c1.136,9.533,10.147,4.174,17.981,9.724c18.476,13.09,12.953,24.338,34.609,30.952
			c21.655,6.614,24.431-8.06,47.006-6.306c11.007,0.855,13.208,15.105,23.443,10.969s1.867-16.469,9.492-24.452
			c10.436-10.925,22.872-2.238,29.538-15.797c6.667-13.558-7.676-17.985-5.54-32.942c1.723-12.065,16.537-12.886,13.492-24.688
			c-3.045-11.801-21.167-6.291-25.207-17.79c-5.218-14.851,11.186-20.085,6.634-35.153C217.124,82.903,210.655,84.057,195.763,78.96
			z"/>
	</g>
	<g>
		<path fill="none" stroke="#595A5C" stroke-width="2" stroke-miterlimit="10" d="M100.347,54.971
			c-9.372-9.373-9.372-24.568,0-33.941c9.373-9.372,24.568-9.372,33.941,0c9.372,9.373,9.372,24.568,0,33.941"/>
	</g>
	<g>
		<g>
			<path fill="none" stroke="#595A5C" stroke-width="2" stroke-linejoin="round" stroke-miterlimit="10" d="M204.988,41.007h-2l-6,5
				v-15.64c0-2.2,1.8-4,4-4h11.104c2.2,0,4,1.8,4,4v2.728"/>
		</g>
		<circle fill="#595A5C" cx="216.093" cy="39.095" r="2"/>
		<circle fill="#595A5C" cx="221.093" cy="39.095" r="2"/>
		<circle fill="#595A5C" cx="211.093" cy="39.095" r="2"/>
		<g>
			<path fill="none" stroke="#595A5C" stroke-width="2" stroke-linejoin="round" stroke-miterlimit="10" d="M205.989,42.735
				c0,2.201,1.8,4,4,4h10.104l6,5v-15.64c0-2.201-1.8-4-4-4h-12.104c-2.2,0-4,1.799-4,4V42.735z"/>
		</g>
	</g>
	<g>
		<path fill="none" stroke="#595A5C" stroke-width="2" stroke-miterlimit="10" d="M195.122,54.971
			c-9.372-9.373-9.372-24.568,0-33.941c9.373-9.372,24.568-9.372,33.941,0c9.372,9.373,9.372,24.568,0,33.941"/>
	</g>
	<g>
		<path fill="none" stroke="#595A5C" stroke-width="2" stroke-miterlimit="10" d="M236.5,105.499c0-13.255,10.745-24,24-24
			c13.255,0.001,24,10.745,24,24.001c0,13.255-10.745,23.999-24,23.999"/>
	</g>
	<g>
		<path fill="none" stroke="#595A5C" stroke-width="2" stroke-miterlimit="10" d="M43.154,111.501
			c-13.255-0.001-24-10.746-24-24.001s10.745-23.999,24-24c13.256,0.001,24,10.745,24,24.001"/>
	</g>
	<g>
		<g>
			
				<line fill="none" stroke="#595A5C" stroke-width="2" stroke-linecap="round" stroke-miterlimit="10" x1="149" y1="171.5" x2="150.996" y2="170.472"/>
			
				<line fill="none" stroke="#595A5C" stroke-width="2" stroke-linecap="round" stroke-miterlimit="10" stroke-dasharray="4.5495,9.0989" x1="159.083" y1="166.303" x2="239.961" y2="124.614"/>
			
				<line fill="none" stroke="#595A5C" stroke-width="2" stroke-linecap="round" stroke-miterlimit="10" x1="244.004" y1="122.529" x2="246" y2="121.501"/>
		</g>
	</g>
	<g>
		<g>
			
				<line fill="none" stroke="#595A5C" stroke-width="2" stroke-linecap="round" stroke-miterlimit="10" x1="149" y1="171.5" x2="148.424" y2="169.33"/>
			
				<line fill="none" stroke="#595A5C" stroke-width="2" stroke-linecap="round" stroke-miterlimit="10" stroke-dasharray="4.4248,8.8495" x1="146.152" y1="160.777" x2="120.03" y2="62.417"/>
			
				<line fill="none" stroke="#595A5C" stroke-width="2" stroke-linecap="round" stroke-miterlimit="10" x1="118.895" y1="58.141" x2="118.318" y2="55.971"/>
		</g>
	</g>
	<g>
		<g>
			
				<line fill="none" stroke="#595A5C" stroke-width="2" stroke-linecap="round" stroke-miterlimit="10" x1="149" y1="171.5" x2="150.057" y2="169.519"/>
			
				<line fill="none" stroke="#595A5C" stroke-width="2" stroke-linecap="round" stroke-miterlimit="10" stroke-dasharray="4.3995,8.7989" x1="154.198" y1="161.756" x2="208.038" y2="60.833"/>
			
				<line fill="none" stroke="#595A5C" stroke-width="2" stroke-linecap="round" stroke-miterlimit="10" x1="210.109" y1="56.952" x2="211.166" y2="54.971"/>
		</g>
	</g>
	<g>
		<g>
			
				<line fill="none" stroke="#595A5C" stroke-width="2" stroke-linecap="round" stroke-miterlimit="10" x1="149" y1="171.5" x2="147.479" y2="170.437"/>
			
				<line fill="none" stroke="#595A5C" stroke-width="2" stroke-linecap="round" stroke-miterlimit="10" stroke-dasharray="3.6732,7.3464" x1="141.459" y1="166.226" x2="54.171" y2="105.169"/>
			
				<line fill="none" stroke="#595A5C" stroke-width="2" stroke-linecap="round" stroke-miterlimit="10" x1="51.161" y1="103.063" x2="49.641" y2="102"/>
		</g>
	</g>
	<g>
		<path fill="none" stroke="#595A5C" stroke-width="2" stroke-miterlimit="10" d="M271,97v-2h-6c-2.209,0-4,1.791-4,4v19
			c0-1.007,1-1,1-1c0-1.104,0.896-1,2-1h11V97H271z"/>
		<path fill="none" stroke="#595A5C" stroke-width="2" stroke-miterlimit="10" d="M256,95h-6v2h-4v19h11c1.104,0,2-0.104,2,1
			c0,0,1-0.007,1,1V99C260,96.791,258.209,95,256,95z"/>
	</g>
	<g>
		<path fill="none" stroke="#595A5C" stroke-width="2" stroke-miterlimit="10" d="M260,118c0-2.209,1.791-4,4-4h7V95h-7
			c-2.209,0-4,1.791-4,4V118z"/>
		<path fill="none" stroke="#595A5C" stroke-width="2" stroke-miterlimit="10" d="M260,118c0-2.209-1.791-4-4-4h-6V95h6
			c2.209,0,4,1.791,4,4V118z"/>
	</g>
	<g>
		<g>
			<path fill="none" stroke="#595A5C" stroke-width="2" stroke-miterlimit="10" d="M110.438,32.896c0-4.353,3.526-7.88,7.879-7.88
				c4.354,0,7.88,3.527,7.88,7.88c0,6.127-6.153,7.024-7.88,8.751c-1.726,1.727-1.898,4.264-1.898,4.264
				c0,1.652-1.339,2.992-2.99,2.992s-2.99-1.339-2.99-2.992"/>
			<path fill="none" stroke="#595A5C" stroke-width="2" stroke-linecap="round" stroke-linejoin="round" stroke-miterlimit="10" d="
				M114.074,38.911c1.405,0,2.545-1.139,2.545-2.545c0-1.405-1.14-2.545-2.545-2.545v-0.725c0-2.345,1.899-4.244,4.244-4.244
				c2.344,0,4.244,1.899,4.244,4.244"/>
		</g>
		<g>
			<g>
				
					<line fill="none" stroke="#595A5C" stroke-width="3" stroke-linecap="round" stroke-linejoin="round" stroke-miterlimit="10" x1="99.693" y1="36.959" x2="102.106" y2="36.959"/>
				
					<line fill="none" stroke="#595A5C" stroke-width="3" stroke-linecap="round" stroke-linejoin="round" stroke-miterlimit="10" x1="135.318" y1="36.959" x2="132.904" y2="36.959"/>
			</g>
			<g>
				
					<line fill="none" stroke="#595A5C" stroke-width="3" stroke-linecap="round" stroke-linejoin="round" stroke-miterlimit="10" x1="100.768" y1="43.051" x2="103.036" y2="42.226"/>
				
					<line fill="none" stroke="#595A5C" stroke-width="3" stroke-linecap="round" stroke-linejoin="round" stroke-miterlimit="10" x1="134.244" y1="30.867" x2="131.975" y2="31.693"/>
			</g>
			<g>
				
					<line fill="none" stroke="#595A5C" stroke-width="3" stroke-linecap="round" stroke-linejoin="round" stroke-miterlimit="10" x1="100.768" y1="30.867" x2="103.036" y2="31.693"/>
				
					<line fill="none" stroke="#595A5C" stroke-width="3" stroke-linecap="round" stroke-linejoin="round" stroke-miterlimit="10" x1="134.244" y1="43.051" x2="131.975" y2="42.226"/>
			</g>
		</g>
	</g>
	<g>
		<text transform="matrix(1 0 0 1 26.6104 95.0947)" fill="#595A5C" font-family="'ComicSansMS-Bold'" font-size="18">a</text>
		<text transform="matrix(1 0 0 1 37.5869 95.0947)" fill="#595A5C" font-family="'ComicSansMS-Bold'" font-size="18">B</text>
		<text transform="matrix(1 0 0 1 50.0732 95.0947)" fill="#595A5C" font-family="'ComicSansMS-Bold'" font-size="18">c</text>
	</g>
	<g>
		<g>
			<path fill="#8DC4EA" d="M203.635,251.984c0,2.2-1.8,4-4,4h-99.27c-2.2,0-4-1.8-4-4V126.016c0-2.2,1.8-4,4-4h99.27
				c2.2,0,4,1.8,4,4V251.984z"/>
			<path fill="none" stroke="#595A5C" stroke-width="3" stroke-miterlimit="10" d="M203.635,251.984c0,2.2-1.8,4-4,4h-99.27
				c-2.2,0-4-1.8-4-4V126.016c0-2.2,1.8-4,4-4h99.27c2.2,0,4,1.8,4,4V251.984z"/>
		</g>
		<g>
			<rect x="106.365" y="130.016" fill="#FFFFFF" width="87.27" height="115.968"/>
		</g>
		<g>
			<path fill="#E6E7EB" d="M126.365,119.829v12.156c0,0.55,0.45,1,1,1h45.27c0.55,0,1-0.45,1-1v-12.156"/>
			<path fill="none" stroke="#595A5C" stroke-width="2" stroke-miterlimit="10" d="M126.365,119.829v12.156c0,0.55,0.45,1,1,1h45.27
				c0.55,0,1-0.45,1-1v-12.156"/>
		</g>
		<path fill="#E6E7EB" stroke="#595A5C" stroke-width="3" stroke-linecap="round" stroke-miterlimit="10" d="M173.635,122.016
			v-2.188c0-1.547-1.266-2.813-2.813-2.813h-15.184c0-3.114-2.524-5.638-5.639-5.638s-5.639,2.524-5.639,5.638h-15.184
			c-1.547,0-2.813,1.266-2.813,2.813v2.188"/>
		<circle fill="#595A5C" cx="150" cy="117.016" r="1.922"/>
		<g>
			
				<line fill="none" stroke="#595A5C" stroke-width="4" stroke-linecap="round" stroke-linejoin="round" stroke-miterlimit="10" x1="149" y1="190.5" x2="177.635" y2="190.5"/>
			
				<line fill="none" stroke="#595A5C" stroke-width="4" stroke-linecap="round" stroke-linejoin="round" stroke-miterlimit="10" x1="149" y1="171.5" x2="167.635" y2="171.5"/>
			
				<line fill="none" stroke="#595A5C" stroke-width="4" stroke-linecap="round" stroke-linejoin="round" stroke-miterlimit="10" x1="149" y1="152.5" x2="177.635" y2="152.5"/>
			
				<line fill="none" stroke="#595A5C" stroke-width="4" stroke-linecap="round" stroke-linejoin="round" stroke-miterlimit="10" x1="149" y1="209.5" x2="167.635" y2="209.5"/>
		</g>
		<g>
			<path fill="none" stroke="#4272A0" stroke-width="4" stroke-linecap="round" stroke-linejoin="round" stroke-miterlimit="10" d="
				M136.419,148.289C130,151.699,128,157.71,128,157.71l-4.419-4.42"/>
			<path fill="none" stroke="#4272A0" stroke-width="4" stroke-linecap="round" stroke-linejoin="round" stroke-miterlimit="10" d="
				M136.419,167.039C130,170.45,128,176.46,128,176.46l-4.419-4.419"/>
			<path fill="none" stroke="#4272A0" stroke-width="4" stroke-linecap="round" stroke-linejoin="round" stroke-miterlimit="10" d="
				M136.419,185.79C130,189.2,128,195.21,128,195.21l-4.419-4.419"/>
			<path fill="none" stroke="#4272A0" stroke-width="4" stroke-linecap="round" stroke-linejoin="round" stroke-miterlimit="10" d="
				M136.419,204.79C130,208.2,128,214.21,128,214.21l-4.419-4.419"/>
		</g>
	</g>
	<path fill="#FFFFFF" d="M158.435,270.656h-0.711l-1.875-0.469l-0.234,0.469h-2.805v-6.245c2.725-0.976,6.919-3.659,8.835-9.541
		c0.122-0.311,0.236-0.63,0.343-0.959c0.232,0.061,0.475,0.104,0.736,0.104c1.682,0,2.344-1.449,2.344-4.102
		c0-2.654-1.211-3.398-1.875-3.398c-0.076,0-0.184,0.018-0.304,0.044c-0.034-1.307-0.127-2.504-0.269-3.607
		c0.076-0.009,0.16-0.015,0.234-0.024c0.135,1.131,2.197,4.729,2.316,6.225c6.662-10.244-4.934-21.05-11.934-23.15
		c-7-2.102-10.552-0.068-12.443,1.387l-0.042,0.115c-5.61,1.139-9.118,10.308-7.536,20.424c0.984,6.296,3.731,8.848,5.905,9.882
		c1.677,4.319,4.623,6.035,8.063,6.614v6.232h-3.037l-0.244-0.469l-1.641,0.469h-0.703c-4.641,0-8.438,3.797-8.438,8.438V289h33.563
		v-9.672C166.872,274.688,163.075,270.656,158.435,270.656z"/>
	<g>
		<path fill="none" stroke="#595A5C" stroke-width="2" stroke-miterlimit="10" d="M144.841,270.656c1.289,0,2.344-3.531,2.344-6.625
			"/>
		<path fill="none" stroke="#595A5C" stroke-width="2" stroke-miterlimit="10" d="M152.81,264.031c0,3.094,1.055,6.625,2.344,6.625"
			/>
		<path fill="none" stroke="#595A5C" stroke-linejoin="round" stroke-miterlimit="10" d="M152.276,277.354
			c-0.715,0.243-1.481,0.375-2.279,0.375c-0.838,0-1.642-0.146-2.388-0.414"/>
		<path fill="#C8DE8E" stroke="#595A5C" stroke-width="2" stroke-linejoin="round" stroke-miterlimit="10" d="M133.122,289v-9.906
			c0-4.641,3.797-8.438,8.438-8.438h0.703l1.641-0.469l6.094,11.719l5.852-11.719l1.875,0.469h0.711c4.641,0,8.438,4.031,8.25,8.672
			V289"/>
		<path fill="#D2E5A3" stroke="#595A5C" stroke-linejoin="round" stroke-miterlimit="10" d="M149.997,282.141l-6.094-11.719
			l-1.641,0.469c0,0-2.85,5.482-1.385,7.693c1.461,2.212,4.559,1.836,4.559,1.836s-0.273,1.201,0.951,1.721
			C147.612,282.659,149.997,282.141,149.997,282.141z"/>
		<path fill="#D2E5A3" stroke="#595A5C" stroke-linejoin="round" stroke-miterlimit="10" d="M149.997,282.141l6.094-11.719
			l1.641,0.469c0,0,2.852,5.482,1.389,7.693c-1.465,2.212-4.561,1.836-4.561,1.836s0.275,1.201-0.949,1.721
			C152.386,282.659,149.997,282.141,149.997,282.141z"/>
		<path fill="none" stroke="#595A5C" stroke-width="2" stroke-miterlimit="10" d="M139.841,258.109
			c-2.243-0.797-5.528-3.168-6.625-10.182c-1.723-11.016,2.588-20.915,9.078-20.539"/>
		<path fill="none" d="M135.7,249.914c0,2.652,0.662,4.102,2.344,4.102c1.684,0,2.813-1.215,2.813-3.867
			c0-2.654-2.614-3.633-3.281-3.633C136.911,246.516,135.7,247.26,135.7,249.914z"/>
		<path fill="none" stroke="#595A5C" stroke-width="2" stroke-miterlimit="10" d="M165.171,249.152
			c6.662-10.244-4.934-21.05-11.934-23.15c-7-2.102-10.552-0.068-12.443,1.387"/>
		<path fill="none" stroke="#595A5C" stroke-width="2" stroke-miterlimit="10" d="M137.193,248.543
			c0.771-4.16,6.371-8.512,6.876-11.602c3.018,5.205,12.836,6.721,18.227,5.986c0,0,0.313,2.376,0.353,3.694
			c0.229-0.072,0.42-0.106,0.544-0.106c0.664,0,1.875,0.744,1.875,3.398c0,2.652-0.662,4.102-2.344,4.102
			c-0.276,0-0.532-0.045-0.776-0.112c-2.308,8.691-9.475,10.979-11.255,10.979c-1.799,0-10.674-2.333-12.707-11.26
			c-0.41,0.262-0.896,0.393-1.441,0.393c-1.682,0-2.344-1.449-2.344-4.102c0-2.654,1.211-3.398,1.875-3.398
			c0.234,0,0.762-0.08,1.342,0.229"/>
	</g>
	<g>
		
			<line fill="none" stroke="#595A5C" stroke-width="3" stroke-linejoin="round" stroke-miterlimit="10" x1="108.288" y1="289" x2="188.916" y2="289"/>
		
			<line fill="none" stroke="#595A5C" stroke-width="3" stroke-linejoin="round" stroke-miterlimit="10" x1="95.038" y1="289" x2="103.944" y2="289"/>
		
			<line fill="none" stroke="#595A5C" stroke-width="3" stroke-linejoin="round" stroke-miterlimit="10" x1="84.257" y1="289" x2="91.288" y2="289"/>
		
			<line fill="none" stroke="#595A5C" stroke-width="3" stroke-linejoin="round" stroke-miterlimit="10" x1="191.104" y1="289" x2="204.541" y2="289"/>
		
			<line fill="none" stroke="#595A5C" stroke-width="3" stroke-linejoin="round" stroke-miterlimit="10" x1="208.555" y1="289" x2="215.742" y2="289"/>
	</g>
</g>
<g id="_x30_2">
</g>
<g id="_x30_3">
</g>
<g id="_x30_4">
</g>
<g id="_x30_5">
</g>
<g id="_x30_6">
</g>
<g id="_x30_7">
</g>
</svg>
