<?xml version="1.0" encoding="utf-8"?>
<!-- Generator: Adobe Illustrator 16.0.0, SVG Export Plug-In . SVG Version: 6.00 Build 0)  -->
<!DOCTYPE svg PUBLIC "-//W3C//DTD SVG 1.1//EN" "http://www.w3.org/Graphics/SVG/1.1/DTD/svg11.dtd">
<svg version="1.1" xmlns="http://www.w3.org/2000/svg" xmlns:xlink="http://www.w3.org/1999/xlink" x="0px" y="0px" width="301px"
	 height="301px" viewBox="0 0 301 301" enable-background="new 0 0 301 301" xml:space="preserve">
<g id="background" display="none">
	<g display="inline">
		<rect x="0.5" y="0.5" fill="#E6E7E8" stroke="#F3F3F3" stroke-miterlimit="10" width="300" height="300"/>
	</g>
</g>
<g id="_x30_1">
</g>
<g id="_x30_2">
	<g>
		<path fill="#BAD7F1" d="M179.487,71.293c-14.855-1.65-15.398-17.086-30.102-14.396c-14.702,2.689-9.727,17.156-22.973,24.079
			c-16.247,8.49-24.983-4.184-38.699,7.978c-13.717,12.162-1.915,22.895-12.723,37.702c-5.813,7.964-20.009,1.51-22.188,11.126
			c-2.179,9.616,9.803,8.108,14.296,16.885c5.964,11.651-3.646,20.167,7.204,27.489c10.85,7.321,25.313-9.998,34.451-0.628
			c10.043,10.297-7.514,24.497,0.457,36.472c7.97,11.975,18.899,1.731,30.333,10.46c9.005,6.875,2.731,20.233,13.772,22.772
			s11.882-13.245,23.131-14.596c10.936-1.313,15.563,13.777,25.355,8.735s0.293-16.785,7.27-25.309
			c6.951-8.492,20.343-1.513,23.321-12.075c2.979-10.562-16.578-16.51-13.172-26.942c3.339-10.229,22.636-3.484,26.396-13.566
			c3.761-10.082-13.248-14.395-11.75-25.051c2.029-14.433,19.606-13.382,19.313-27.954s-9.661-11.292-18.525-22.861
			c-10.118-13.207-4.412-23.552-20.489-27.833C198.611,59.637,196.022,73.13,179.487,71.293z"/>
	</g>
	<g>
		
			<path fill="#C36F67" stroke="#595A5C" stroke-width="2" stroke-linecap="round" stroke-linejoin="round" stroke-miterlimit="10" d="
			M187.729,156.629h-4v-44c0-3.3-2.7-6-6-6h-55.438c-3.3,0-6,2.7-6,6v74.742c0,3.3,2.7,6,6,6h10h45.438h10c3.3,0,6-2.7,6-6v-24.742
			C193.729,159.33,191.028,156.629,187.729,156.629z"/>
		<path fill="#E1C4B4" stroke="#595A5C" stroke-width="2" stroke-miterlimit="10" d="M187.729,166.629h-4v-54c0-3.3-2.7-6-6-6
			h-55.438c-3.3,0-6,2.7-6,6v74.742c0,3.3,2.7,6,6,6h10h45.438h10c3.3,0,6-2.7,6-6v-14.742
			C193.729,169.33,191.028,166.629,187.729,166.629z"/>
		<g>
			<path fill="#FBE3D4" d="M114.291,187.372c0,3.3-2.7,6-6,6H52.854c-3.3,0-6-2.7-6-6v-74.742c0-3.3,2.7-6,6-6h55.438
				c3.3,0,6,2.7,6,6V187.372z"/>
			<path fill="none" stroke="#595A5C" stroke-width="3" stroke-miterlimit="10" d="M114.291,187.372c0,3.3-2.7,6-6,6H52.854
				c-3.3,0-6-2.7-6-6v-74.742c0-3.3,2.7-6,6-6h55.438c3.3,0,6,2.7,6,6V187.372z"/>
		</g>
		<path fill="#D2E5A3" stroke="#595A5C" stroke-width="2" stroke-miterlimit="10" d="M187.729,176.629h-4v-64c0-3.3-2.7-6-6-6
			h-55.438c-3.3,0-6,2.7-6,6v74.742c0,3.3,2.7,6,6,6h10h45.438h10c3.3,0,6-2.7,6-6v-4.742
			C193.729,179.33,191.028,176.629,187.729,176.629z"/>
		<g>
			<path fill="#FFFFFF" d="M178.729,185.372c0,1.65-1.35,3-3,3h-43.438c-1.65,0-3-1.35-3-3v-70.742c0-1.65,1.35-3,3-3h43.438
				c1.65,0,3,1.35,3,3V185.372z"/>
		</g>
		<path fill="none" stroke="#595A5C" stroke-width="3" stroke-miterlimit="10" d="M187.729,156.629h-3v-44c-1-3.3-2.7-6-6-6h-56.438
			c-3.3,0-6,2.7-6,6v74.742c0,3.3,2.7,6,6,6h10h45.438h10c3.3,0,6-2.7,6-6v-24.742C193.729,159.33,191.028,156.629,187.729,156.629z
			"/>
		<g>
			<path fill="#FFFFFF" d="M101.291,185.372c0,1.65-1.35,3-3,3H54.854c-1.65,0-3-1.35-3-3v-70.742c0-1.65,1.35-3,3-3h43.438
				c1.65,0,3,1.35,3,3V185.372z"/>
		</g>
		<g>
			<circle fill="#595A5C" cx="121.291" cy="125.629" r="4"/>
			<circle fill="#595A5C" cx="109.291" cy="125.629" r="4"/>
			<g>
				<path fill="#FFFFFF" d="M124.104,125.629c0,1.1-0.9,2-2,2h-13.5c-1.1,0-2-0.9-2-2l0,0c0-1.1,0.9-2,2-2h13.5
					C123.203,123.629,124.104,124.529,124.104,125.629L124.104,125.629z"/>
				<path fill="none" stroke="#595A5C" stroke-width="2" stroke-miterlimit="10" d="M124.104,125.629c0,1.1-0.9,2-2,2h-13.5
					c-1.1,0-2-0.9-2-2l0,0c0-1.1,0.9-2,2-2h13.5C123.203,123.629,124.104,124.529,124.104,125.629L124.104,125.629z"/>
			</g>
		</g>
		<g>
			<circle fill="#595A5C" cx="121.291" cy="137.815" r="4"/>
			<circle fill="#595A5C" cx="109.291" cy="137.815" r="4"/>
			<g>
				<path fill="#FFFFFF" d="M124.104,137.815c0,1.1-0.9,2-2,2h-13.5c-1.1,0-2-0.9-2-2l0,0c0-1.1,0.9-2,2-2h13.5
					C123.203,135.815,124.104,136.715,124.104,137.815L124.104,137.815z"/>
				<path fill="none" stroke="#595A5C" stroke-width="2" stroke-miterlimit="10" d="M124.104,137.815c0,1.1-0.9,2-2,2h-13.5
					c-1.1,0-2-0.9-2-2l0,0c0-1.1,0.9-2,2-2h13.5C123.203,135.815,124.104,136.715,124.104,137.815L124.104,137.815z"/>
			</g>
		</g>
		<g>
			<circle fill="#595A5C" cx="121.291" cy="150" r="4"/>
			<circle fill="#595A5C" cx="109.291" cy="150" r="4"/>
			<g>
				<path fill="#FFFFFF" d="M124.104,150c0,1.1-0.9,2-2,2h-13.5c-1.1,0-2-0.9-2-2l0,0c0-1.1,0.9-2,2-2h13.5
					C123.203,148,124.104,148.9,124.104,150L124.104,150z"/>
				<path fill="none" stroke="#595A5C" stroke-width="2" stroke-miterlimit="10" d="M124.104,150c0,1.1-0.9,2-2,2h-13.5
					c-1.1,0-2-0.9-2-2l0,0c0-1.1,0.9-2,2-2h13.5C123.203,148,124.104,148.9,124.104,150L124.104,150z"/>
			</g>
		</g>
		<g>
			<circle fill="#595A5C" cx="121.291" cy="162.186" r="4"/>
			<circle fill="#595A5C" cx="109.291" cy="162.186" r="4"/>
			<g>
				<path fill="#FFFFFF" d="M124.104,162.186c0,1.1-0.9,2-2,2h-13.5c-1.1,0-2-0.9-2-2l0,0c0-1.1,0.9-2,2-2h13.5
					C123.203,160.186,124.104,161.086,124.104,162.186L124.104,162.186z"/>
				<path fill="none" stroke="#595A5C" stroke-width="2" stroke-miterlimit="10" d="M124.104,162.186c0,1.1-0.9,2-2,2h-13.5
					c-1.1,0-2-0.9-2-2l0,0c0-1.1,0.9-2,2-2h13.5C123.203,160.186,124.104,161.086,124.104,162.186L124.104,162.186z"/>
			</g>
		</g>
		<g>
			<circle fill="#595A5C" cx="121.291" cy="174.372" r="4"/>
			<circle fill="#595A5C" cx="109.291" cy="174.372" r="4"/>
			<g>
				<path fill="#FFFFFF" d="M124.104,174.372c0,1.1-0.9,2-2,2h-13.5c-1.1,0-2-0.9-2-2l0,0c0-1.1,0.9-2,2-2h13.5
					C123.203,172.372,124.104,173.271,124.104,174.372L124.104,174.372z"/>
				<path fill="none" stroke="#595A5C" stroke-width="2" stroke-miterlimit="10" d="M124.104,174.372c0,1.1-0.9,2-2,2h-13.5
					c-1.1,0-2-0.9-2-2l0,0c0-1.1,0.9-2,2-2h13.5C123.203,172.372,124.104,173.271,124.104,174.372L124.104,174.372z"/>
			</g>
		</g>
	</g>
	<path fill="#FFFFFF" stroke="#595A5C" stroke-width="2" stroke-miterlimit="10" d="M246.533,272c0,2.2-1.8,4-4,4h-33.135
		c-2.2,0-4-1.8-4-4v-41.643c0-2.2,1.8-4,4-4h33.135c2.2,0,4,1.8,4,4V272z"/>
	<g>
		
			<path fill="#D2E5A3" stroke="#595A5C" stroke-width="2" stroke-linecap="round" stroke-linejoin="round" stroke-miterlimit="10" d="
			M232.533,267c0,2.2-1.8,4-4,4h-33.135c-2.2,0-4-1.8-4-4v-41.643c0-2.2,1.8-4,4-4h26.677l10.458,10.458V267z"/>
		
			<path fill="#FFFFFF" stroke="#595A5C" stroke-width="2" stroke-linecap="round" stroke-linejoin="round" stroke-miterlimit="10" d="
			M232.534,231.817h-6.458c-2.2,0-4-1.8-4-4v-6.458L232.534,231.817z"/>
	</g>
	<g>
		<circle fill="#FFFFFF" stroke="#595A5C" stroke-width="2" stroke-miterlimit="10" cx="215.463" cy="53.333" r="23.738"/>
		
			<line fill="none" stroke="#595A5C" stroke-width="3" stroke-linecap="round" stroke-linejoin="round" stroke-miterlimit="10" x1="215.463" y1="53.333" x2="215.463" y2="33.796"/>
		
			<line fill="none" stroke="#595A5C" stroke-width="3" stroke-linecap="round" stroke-linejoin="round" stroke-miterlimit="10" x1="215.463" y1="53.333" x2="200.846" y2="53.333"/>
		<circle fill="#E1C4B4" stroke="#595A5C" stroke-width="2" stroke-miterlimit="10" cx="215.463" cy="53.333" r="5.373"/>
	</g>
	
		<line fill="none" stroke="#595A5C" stroke-width="2" stroke-linecap="round" stroke-linejoin="round" stroke-miterlimit="10" x1="194.275" y1="75.285" x2="173.262" y2="100.629"/>
	
		<line fill="none" stroke="#595A5C" stroke-width="2" stroke-linecap="round" stroke-linejoin="round" stroke-miterlimit="10" x1="215.966" y1="142.678" x2="191.214" y2="145.687"/>
	
		<line fill="none" stroke="#595A5C" stroke-width="2" stroke-linecap="round" stroke-linejoin="round" stroke-miterlimit="10" x1="183.786" y1="223.358" x2="161.829" y2="200.54"/>
	<g>
		<g>
			<path fill="#8DC4EA" d="M222.033,143.327v-10.614c0-3.3,2.7-6,6-6h38.258c3.3,0,6,2.7,6,6v10.614"/>
			<path fill="none" stroke="#595A5C" stroke-width="2" stroke-linejoin="round" stroke-miterlimit="10" d="M222.033,143.327
				v-10.614c0-3.3,2.7-6,6-6h38.258c3.3,0,6,2.7,6,6v10.614"/>
		</g>
		<g>
			<path fill="#FFFFFF" d="M272.291,143.327v27.386c0,3.3-2.7,6-6,6h-38.258c-3.3,0-6-2.7-6-6v-27.386"/>
			<path fill="none" stroke="#595A5C" stroke-width="2" stroke-linejoin="round" stroke-miterlimit="10" d="M272.291,143.327v27.386
				c0,3.3-2.7,6-6,6h-38.258c-3.3,0-6-2.7-6-6v-27.386"/>
		</g>
		
			<text transform="matrix(1 0 0 1 232.1621 169.7134)" fill="#595A5C" font-family="'TimesNewRomanPS-BoldItalicMT'" font-size="30">31</text>
		<circle fill="#595A5C" cx="261.291" cy="133.588" r="5"/>
		<g>
			<path fill="#FFFFFF" d="M260.791,136.088c-1.1,0-2-0.9-2-2v-11c0-1.1,0.9-2,2-2h1c1.1,0,2,0.9,2,2v11c0,1.1-0.9,2-2,2H260.791z"
				/>
			<path fill="none" stroke="#595A5C" stroke-width="2" stroke-miterlimit="10" d="M260.791,136.088c-1.1,0-2-0.9-2-2v-11
				c0-1.1,0.9-2,2-2h1c1.1,0,2,0.9,2,2v11c0,1.1-0.9,2-2,2H260.791z"/>
		</g>
		<circle fill="#595A5C" cx="233.033" cy="133.588" r="5"/>
		<g>
			<path fill="#FFFFFF" d="M232.533,136.088c-1.1,0-2-0.9-2-2v-11c0-1.1,0.9-2,2-2h1c1.1,0,2,0.9,2,2v11c0,1.1-0.9,2-2,2H232.533z"
				/>
			<path fill="none" stroke="#595A5C" stroke-width="2" stroke-miterlimit="10" d="M232.533,136.088c-1.1,0-2-0.9-2-2v-11
				c0-1.1,0.9-2,2-2h1c1.1,0,2,0.9,2,2v11c0,1.1-0.9,2-2,2H232.533z"/>
		</g>
	</g>
	<g>
		<path fill="#FFFFFF" d="M217.978,242.735c0,1.723-8.921,1.034-10.499,1.034c-1.577,0-2.856-1.397-2.856-3.12
			s9.933-4.764,11.51-4.764C217.71,235.885,217.978,241.012,217.978,242.735z"/>
		<path fill="#FFFFFF" stroke="#595A5C" stroke-miterlimit="10" d="M214.037,253.674c-0.225-0.514-0.366-1.239-0.366-2.04"/>
		<path fill="#FFFFFF" stroke="#595A5C" stroke-miterlimit="10" d="M210.858,251.634c0,0.741-0.121,1.418-0.317,1.922"/>
		<path fill="#FFFFFF" stroke="#595A5C" stroke-linejoin="round" stroke-miterlimit="10" d="M220.702,264v-5.335
			c0-2.32-1.898-4.219-4.219-4.219h-0.352l-1.875-1.289l-1.992,3.633l-1.87-3.633l-1.992,1.289h-0.356
			c-2.32,0-4.219,1.898-4.219,4.219V264"/>
		<polyline fill="#4272A0" stroke="#595A5C" stroke-miterlimit="10" points="210.211,264 211.444,258.452 213.085,258.452 
			214.318,264 		"/>
		<path fill="#4272A0" stroke="#595A5C" stroke-miterlimit="10" d="M213.553,257.558l-0.076,0.288
			c-0.086,0.333-0.438,0.605-0.782,0.605h-0.859c-0.344,0-0.696-0.272-0.782-0.605l-0.075-0.286l1.287-0.652L213.553,257.558z"/>
		<g>
			<polygon fill="#FFFFFF" stroke="#595A5C" stroke-linejoin="round" stroke-miterlimit="10" points="214.257,253.275 
				212.265,256.908 215.016,258.295 216.132,254.564 			"/>
			<polygon fill="#FFFFFF" stroke="#595A5C" stroke-linejoin="round" stroke-miterlimit="10" points="210.395,253.275 
				212.27,256.908 209.52,258.295 208.402,254.564 			"/>
		</g>
		<path fill="#FFFFFF" stroke="#595A5C" stroke-miterlimit="10" d="M207.18,239.926c-0.097,0.645-1.156,1.859-1.175,2.651
			c-0.152-0.057-0.282-0.084-0.358-0.084c-0.334,0-0.938,0.373-0.938,1.699c0,1.327,0.33,2.051,1.172,2.051
			c0.15,0,0.287-0.026,0.418-0.065c0.93,4.257,3.822,5.383,5.966,5.383c2.185,0,5.06-0.815,6.077-5.278
			c0.283,0.085,0.447,0.078,0.72,0.078c0.842,0,1.172-0.958,1.172-2.285c0-1.326-0.604-1.699-0.938-1.699"/>
		<path fill="#FFFFFF" stroke="#595A5C" stroke-miterlimit="10" d="M219.17,242.366c-0.616,0.154-0.617,0.463-1.002,1.04
			c-0.386-2.08-2.857-4.27-2.619-5.816c-2.533,2.267-7.473,2.851-9.668,2.119c-2.158-0.72-2.967-3.159-2.543-4.97
			c1.695,1.541,4.127-1.568,7.627-2.619s5.701-0.27,7.159,1.702C221.212,235.317,219.131,241.75,219.17,242.366z"/>
		<path fill="#FFFFFF" stroke="#595A5C" stroke-miterlimit="10" d="M205.148,242.735c-0.386-2.08-0.68-2.131-0.439-3.678"/>
	</g>
	<line fill="none" stroke="#595A5C" stroke-linecap="round" stroke-miterlimit="10" x1="200.462" y1="264" x2="224.32" y2="264"/>
	<g>
		
			<line fill="none" stroke="#595A5C" stroke-linecap="round" stroke-miterlimit="10" x1="232.533" y1="236.587" x2="239.533" y2="236.587"/>
		
			<line fill="none" stroke="#595A5C" stroke-linecap="round" stroke-miterlimit="10" x1="232.533" y1="242.67" x2="239.533" y2="242.67"/>
		
			<line fill="none" stroke="#595A5C" stroke-linecap="round" stroke-miterlimit="10" x1="232.533" y1="248.752" x2="239.533" y2="248.752"/>
		
			<line fill="none" stroke="#595A5C" stroke-linecap="round" stroke-miterlimit="10" x1="232.533" y1="254.835" x2="239.533" y2="254.835"/>
		
			<line fill="none" stroke="#595A5C" stroke-linecap="round" stroke-miterlimit="10" x1="232.533" y1="260.918" x2="239.533" y2="260.918"/>
		<line fill="none" stroke="#595A5C" stroke-linecap="round" stroke-miterlimit="10" x1="232.533" y1="267" x2="239.533" y2="267"/>
	</g>
	<g>
		<g>
			<g>
				<path fill="none" stroke="#595A5C" stroke-width="2" stroke-miterlimit="10" d="M215.463,23.467
					c16.494,0,29.866,13.372,29.866,29.866c0,15.214-11.376,27.771-26.085,29.629"/>
				<g>
					<polygon fill="#595A5C" points="220.159,87.224 219.485,78.503 215.463,83.2 					"/>
				</g>
			</g>
		</g>
		<path fill="none" stroke="#595A5C" stroke-width="2" stroke-miterlimit="10" stroke-dasharray="2,4" d="M185.597,53.333
			c0-16.494,13.373-29.866,29.866-29.866"/>
		<path opacity="0" fill="none" stroke="#595A5C" stroke-width="2" stroke-miterlimit="10" d="M185.597,53.333
			c0,16.495,13.373,29.866,29.866,29.866"/>
	</g>
	<g>
		<g>
			
				<line fill="none" stroke="#595A5C" stroke-width="2" stroke-linecap="round" stroke-miterlimit="10" x1="154.01" y1="155" x2="168.729" y2="155"/>
			
				<circle fill="none" stroke="#595A5C" stroke-width="2" stroke-linecap="round" stroke-miterlimit="10" cx="144.01" cy="155" r="3"/>
		</g>
		<g>
			
				<line fill="none" stroke="#595A5C" stroke-width="2" stroke-linecap="round" stroke-miterlimit="10" x1="154.01" y1="165" x2="168.729" y2="165"/>
			
				<circle fill="none" stroke="#595A5C" stroke-width="2" stroke-linecap="round" stroke-miterlimit="10" cx="144.01" cy="165" r="3"/>
		</g>
		<g>
			
				<line fill="none" stroke="#595A5C" stroke-width="2" stroke-linecap="round" stroke-miterlimit="10" x1="154.01" y1="175" x2="168.729" y2="175"/>
			
				<circle fill="none" stroke="#595A5C" stroke-width="2" stroke-linecap="round" stroke-miterlimit="10" cx="144.01" cy="175" r="3"/>
		</g>
		<g>
			
				<line fill="none" stroke="#595A5C" stroke-width="2" stroke-linecap="round" stroke-miterlimit="10" x1="154.01" y1="145" x2="168.729" y2="145"/>
			
				<circle fill="none" stroke="#595A5C" stroke-width="2" stroke-linecap="round" stroke-miterlimit="10" cx="144.01" cy="145" r="3"/>
		</g>
		<g>
			
				<line fill="none" stroke="#595A5C" stroke-width="2" stroke-linecap="round" stroke-miterlimit="10" x1="154.01" y1="135" x2="168.729" y2="135"/>
			
				<circle fill="none" stroke="#595A5C" stroke-width="2" stroke-linecap="round" stroke-miterlimit="10" cx="144.01" cy="135" r="3"/>
		</g>
	</g>
	
		<line fill="none" stroke="#C36F67" stroke-width="4" stroke-linecap="round" stroke-miterlimit="10" x1="142.01" y1="120.629" x2="162.369" y2="120.629"/>
	<g>
		<g>
			<path fill="#CE867E" d="M29.999,141.631c0,0-1.591-1.591-3.535-3.536c-1.945-1.944-1.627-5.445,0.707-7.778l0,0
				c2.333-2.333,5.833-2.651,7.777-0.707c1.945,1.944,3.536,3.536,3.536,3.536"/>
			<path fill="none" stroke="#595A5C" stroke-width="2" stroke-linecap="round" stroke-linejoin="round" stroke-miterlimit="10" d="
				M29.999,141.631c0,0-1.591-1.591-3.535-3.536c-1.945-1.944-1.627-5.445,0.707-7.778l0,0c2.333-2.333,5.833-2.651,7.777-0.707
				c1.945,1.944,3.536,3.536,3.536,3.536"/>
		</g>
		
			<rect x="29.545" y="142.728" transform="matrix(-0.7071 -0.7071 0.7071 -0.7071 -27.3506 286.1284)" fill="#8DC4EA" stroke="#595A5C" stroke-width="2" stroke-linecap="round" stroke-linejoin="round" stroke-miterlimit="10" width="32.075" height="12.001"/>
		<g>
			
				<polygon fill="#595A5C" stroke="#595A5C" stroke-width="2" stroke-linecap="round" stroke-linejoin="round" stroke-miterlimit="10" points="
				70.78,173.927 66.456,165.787 62.641,169.603 			"/>
			
				<polygon fill="#F9E3D4" stroke="#595A5C" stroke-width="2" stroke-linecap="round" stroke-linejoin="round" stroke-miterlimit="10" points="
				52.68,164.312 62.641,169.603 66.456,165.787 61.165,155.825 			"/>
		</g>
	</g>
</g>
<g id="_x30_3">
</g>
<g id="_x30_4">
</g>
<g id="_x30_5">
</g>
<g id="_x30_6">
</g>
<g id="_x30_7">
</g>
</svg>
