<?xml version="1.0" encoding="utf-8"?>
<!-- Generator: Adobe Illustrator 16.0.0, SVG Export Plug-In . SVG Version: 6.00 Build 0)  -->
<!DOCTYPE svg PUBLIC "-//W3C//DTD SVG 1.1//EN" "http://www.w3.org/Graphics/SVG/1.1/DTD/svg11.dtd">
<svg version="1.1" id="Layer_1" xmlns="http://www.w3.org/2000/svg" xmlns:xlink="http://www.w3.org/1999/xlink" x="0px" y="0px"
	 width="264.501px" height="224px" viewBox="14.999 33.5 264.501 224" enable-background="new 14.999 33.5 264.501 224"
	 xml:space="preserve">
<g id="Layer_3">
	<polyline fill="#FFFFFF" points="-330,-50 -330,-1010 630,-1010 630,-50 	"/>
</g>
<g id="Layer_12">
	<g>
		<g>
			<path fill="#E2E8F5" d="M152.698,55.149c1.493,0.455,3.146,0.806,5.036,0.992c12.744,1.256,17.935-7.817,34.566-4.908
				c20.001,3.498,23.564,12.777,31.271,19.179c7.707,6.402,23.617,4.756,33.645,18.17c9.305,12.447,1.829,17.374,2.893,28.379
				c1.062,11.005,16.57,21.039,14.261,41.105c-1.915,16.646-14.063,21.072-18.218,26.85c-4.152,5.777-1.979,19.188-18.879,27.125
				c-12.51,5.873-26.877,0.148-31.381,2.096c-4.504,1.946-15.414,13.096-37.52,14.469c-10.512,0.653-18.814-1.42-25.485-3.754
				C129.357,177.027,163.156,109.783,152.698,55.149z"/>
			<path fill="#FDF0BC" d="M31.188,149.239c-0.315-8.205-13.022-18.944-8.602-35.409c4.488-16.717,20.189-18.079,25.107-24.935
				c4.918-6.855,2.397-16.667,17.918-23.784c13.258-6.08,26.58,1.498,32.775-2.174c6.195-3.673,12.02-13.599,29.013-15.216
				c13.364-1.272,16.726,4.817,25.299,7.428c10.458,54.634-23.341,121.878-9.81,169.703c-6.928-2.424-12.095-5.127-16.126-5.349
				c-7.914-0.435-27.06,10.271-46.778,5.279c-18.734-4.742-19.51-10.498-26.859-18.894c-7.349-8.395-17.183-1.562-24.111-15.856
				C21.841,175.234,31.502,157.443,31.188,149.239z"/>
		</g>
		
			<path fill="none" stroke="#58595B" stroke-width="1.25" stroke-linecap="round" stroke-miterlimit="10" stroke-dasharray="3.75,3.75" d="
			M146.926,38.185c26.686,61.233-25.625,145.99,0,199.383"/>
		<g>
			<path fill="#EBEDEF" d="M156.875,245.781c0,2.578-2.109,4.688-4.688,4.688h-46.25c-2.578,0-4.688-2.109-4.688-4.688l0,0
				c0-2.578,2.109-4.688,4.688-4.688h46.25C154.766,241.094,156.875,243.203,156.875,245.781L156.875,245.781z"/>
		</g>
		<g>
			<path fill="#EBEDEF" d="M201.25,243.906c0,2.578-2.109,4.688-4.688,4.688h-46.25c-2.578,0-4.688-2.109-4.688-4.688l0,0
				c0-2.578,2.109-4.688,4.688-4.688h46.25C199.141,239.219,201.25,241.328,201.25,243.906L201.25,243.906z"/>
		</g>
		<g>
			<path fill="#EBEDEF" d="M120.938,242.969c0,2.578-2.109,4.688-4.688,4.688H70c-2.578,0-4.688-2.109-4.688-4.688l0,0
				c0-2.578,2.109-4.688,4.688-4.688h46.25C118.828,238.281,120.938,240.391,120.938,242.969L120.938,242.969z"/>
		</g>
		<g>
			<path fill="#EBEDEF" d="M274.375,246.094c0,2.578-2.109,4.688-4.688,4.688H241.25c-2.578,0-4.688-2.109-4.688-4.688l0,0
				c0-2.578,2.108-4.688,4.688-4.688h28.438C272.266,241.406,274.375,243.516,274.375,246.094L274.375,246.094z"/>
		</g>
		<g>
			<path fill="#EBEDEF" d="M96.875,245.156c0,2.578-2.109,4.688-4.688,4.688H77.5c-2.578,0-4.688-2.109-4.688-4.688l0,0
				c0-2.578,2.109-4.688,4.688-4.688h14.688C94.766,240.469,96.875,242.578,96.875,245.156L96.875,245.156z"/>
		</g>
		<g>
			<path fill="#EBEDEF" d="M209.688,245.156c0,2.578-2.108,4.688-4.688,4.688h-14.688c-2.578,0-4.688-2.109-4.688-4.688l0,0
				c0-2.578,2.108-4.688,4.688-4.688H205C207.578,240.469,209.688,242.578,209.688,245.156L209.688,245.156z"/>
		</g>
		<g>
			<path fill="#EBEDEF" d="M70.625,243.906c0,2.578-2.109,4.688-4.688,4.688h-46.25c-2.578,0-4.688-2.109-4.688-4.688l0,0
				c0-2.578,2.109-4.688,4.688-4.688h46.25C68.516,239.219,70.625,241.328,70.625,243.906L70.625,243.906z"/>
		</g>
		<g>
			<path fill="#EBEDEF" d="M260.312,243.281c0,2.578-2.109,4.688-4.688,4.688h-46.25c-2.578,0-4.688-2.109-4.688-4.688l0,0
				c0-2.578,2.109-4.688,4.688-4.688h46.25C258.203,238.594,260.312,240.703,260.312,243.281L260.312,243.281z"/>
		</g>
		<g>
			<g>
				<path fill="#FFFFFF" d="M133.962,88.062c0.033,0.767-1.425,1.631-1.482,2.378c-0.059,0.763,0.662,1.726,0.514,2.462
					c-0.15,0.747,0.17,1.807-0.066,2.521c-0.239,0.723-3.523,0.25-3.845,0.932c-0.325,0.687,0.147,1.676-0.255,2.314
					c-0.404,0.642-0.088,1.791-0.565,2.378c-0.478,0.588-0.123,2.11-0.667,2.638c-0.544,0.525-2.912-1.014-3.517-0.555
					c-0.602,0.455-1.125,0.815-1.782,1.197c-0.651,0.38-0.538,2.247-1.237,2.548c-0.691,0.297-1.648,0.024-2.38,0.238
					c-0.72,0.21-1.328,1.271-2.083,1.395c-0.738,0.121-1.583,0.924-2.349,0.957c-0.766,0.033-1.568-2.136-2.314-2.193
					c-0.763-0.059-1.494-0.001-2.229-0.147c-0.748-0.15-1.259-0.911-1.973-1.147c-0.723-0.24-1.458-0.21-2.14-0.532
					c-0.687-0.324-2.076,0.588-2.714,0.186c-0.642-0.404-1.941-0.178-2.528-0.655c-0.588-0.478-0.729-1.701-1.255-2.246
					c-0.526-0.544-0.054-2.007-0.511-2.612c-0.456-0.602,0.395-1.934,0.013-2.59c-0.379-0.652-3.431,0.063-3.732-0.637
					c-0.296-0.69-0.19-1.679-0.404-2.41c-0.21-0.721-0.071-1.619-0.195-2.375c-0.121-0.738,2.033-1.655,2-2.422
					c-0.033-0.767-1.026-1.399-0.969-2.146c0.059-0.763-2.098-1.884-1.95-2.62c0.15-0.748,3.035-0.796,3.271-1.51
					c0.239-0.723-1.904-2.416-1.582-3.098c0.325-0.687,0.776-1.505,1.179-2.145c0.404-0.642,1.193-1.202,1.67-1.789
					c0.478-0.587,3.035,0.773,3.58,0.247c0.544-0.526,0.799-1.11,1.403-1.567c0.602-0.456-0.236-3.069,0.421-3.451
					c0.651-0.379,1.22-1.355,1.919-1.656c0.691-0.297,2.539,2.521,3.271,2.308c0.721-0.21,1.251-0.59,2.006-0.714
					c0.739-0.121,1.343-0.459,2.109-0.492c0.766-0.033,1.432-0.193,2.179-0.136c0.763,0.059,1.787-1.638,2.523-1.49
					c0.748,0.15,1.212,1.584,1.927,1.82c0.723,0.24,1.527,0.264,2.208,0.586c0.687,0.324,2.111-0.487,2.75-0.085
					c0.642,0.404,0.225,2.406,0.812,2.884c0.588,0.478,0.709,1.354,1.235,1.899c0.525,0.543,1.459,0.647,1.917,1.253
					c0.456,0.602-0.433,1.956-0.05,2.612c0.379,0.652,0.71,1.101,1.01,1.8c0.297,0.691,0.839,1.109,1.053,1.842
					c0.21,0.72-0.026,1.364,0.098,2.119C130.378,86.891,133.93,87.295,133.962,88.062z"/>
			</g>
			<g>
				<path fill="#FFFFFF" d="M204.438,85.486c0.031,0.709-2.739,1.348-2.787,2.04c-0.049,0.707,0.158,1.27,0.033,1.954
					c-0.127,0.695,2.236,1.982,2.034,2.649c-0.204,0.675,0.065,1.705-0.211,2.347c-0.278,0.646-3.493-0.146-3.841,0.462
					c-0.35,0.61-0.445,1.216-0.859,1.781c-0.414,0.567-0.578,1.194-1.053,1.711c-0.475,0.517-0.796,1.067-1.324,1.528
					c-0.527,0.46,0.002,2.321-0.576,2.722c-0.576,0.397-1.871-0.273-2.489,0.06c-0.615,0.33-1.136,0.873-1.79,1.134
					c-0.646,0.258-0.963,1.816-1.645,2.003c-0.671,0.183-1.806-1.459-2.505-1.35c-0.686,0.105-1.37-0.385-2.079-0.354
					c-0.718,0.031-1.371,0.662-2.062,0.632c-0.718-0.032-1.188-1.552-1.872-1.648c-0.71-0.101-1.242-0.111-1.912-0.28
					c-0.693-0.175-1.312,0.012-1.962-0.233c-0.667-0.254-0.988-0.803-1.603-1.129c-0.629-0.334-1.026-0.601-1.595-1.009
					c-0.573-0.412-3.372,1.831-3.88,1.345c-0.507-0.486-0.123-2.012-0.559-2.569c-0.428-0.55-1.338-0.926-1.69-1.543
					c-0.346-0.602,1.876-2.42,1.606-3.082c-0.26-0.64-1.319-0.861-1.504-1.556c-0.178-0.665-1.99-1.02-2.096-1.733
					c-0.1-0.679,1.646-1.553,1.615-2.275c-0.031-0.728-1.832-1.479-1.781-2.202c0.049-0.726,0.059-1.561,0.187-2.275
					c0.127-0.714,1.161-1.283,1.362-1.98c0.201-0.698,0.03-1.562,0.301-2.236c0.271-0.675,2.029-0.641,2.365-1.283
					c0.336-0.646,0.856-1.048,1.256-1.653c0.398-0.608,0.845-1.015,1.302-1.577c0.46-0.565,0.017-1.831,0.528-2.343
					c0.517-0.514,0.197-2.036,0.763-2.488c0.567-0.454,2.38,0.829,2.993,0.444c0.617-0.385,1.234-0.497,1.893-0.805
					c0.658-0.308,0.611-2.337,1.305-2.559c0.688-0.221,1.354-1.163,2.074-1.292c0.707-0.127,1.766,2.958,2.499,2.927
					c0.744-0.032,1.399-1.705,2.114-1.656c0.74,0.051,1.225,1.414,1.93,1.548c0.727,0.137,1.326,0.124,2.012,0.345
					c0.703,0.225,2.369-1.957,3.023-1.65c0.665,0.312,0.719,1.941,1.329,2.332c0.616,0.395,0.303,1.914,0.86,2.384
					c0.557,0.47,2.211-0.287,2.703,0.252c0.49,0.536-0.031,1.854,0.392,2.453c0.416,0.592,1.937,0.487,2.282,1.137
					c0.34,0.638,0.729,1.331,0.994,2.019c0.26,0.672,1.301,1.218,1.488,1.933c0.182,0.696-1.814,1.88-1.707,2.613
					C202.408,84.186,204.406,84.745,204.438,85.486z"/>
			</g>
			<g>
				<path fill="none" stroke="#58595B" stroke-width="1.25" stroke-linecap="round" stroke-miterlimit="10" d="M194.193,92.337
					c10.336,2.237,26.229,6.702,37.5,12.164"/>
				<path fill="none" stroke="#58595B" stroke-width="1.25" stroke-linecap="round" stroke-miterlimit="10" d="M128.691,88.663
					c13.771-1.445,28.198-1.5,42.925,0.051"/>
				<path fill="none" stroke="#58595B" stroke-width="1.25" stroke-linecap="round" stroke-miterlimit="10" d="M70.983,104.501
					c9.278-4.456,19.437-8.143,30.254-10.925"/>
			</g>
			<g>
				<path fill="none" stroke="#58595B" stroke-width="1.25" stroke-linecap="round" stroke-miterlimit="10" d="M190.255,83.496
					c0-3.326-2.696-6.021-6.021-6.021c-3.325,0-6.021,2.695-6.021,6.021c0,2.006,1.75,4.024,1.75,4.024
					c1.196,1.196,0.85,4.869,1.001,5.412c0.144,0.514,0.769,0.851,1.39,0.851c0,0,2.39,0.091,3.763-0.37
					c0.586-0.197,1.247-0.338,1.39-0.852c0.151-0.542-0.273-3.808,1.001-5.083C188.505,87.479,190.255,85.502,190.255,83.496z"/>
				<path fill="none" stroke="#58595B" stroke-width="1.25" stroke-linecap="round" stroke-miterlimit="10" d="M181.044,96.008
					c0,0,4.931,0.028,6.46-0.851"/>
				<path fill="none" stroke="#58595B" stroke-width="1.25" stroke-linecap="round" stroke-miterlimit="10" d="M181.044,98.233
					c0,0,4.931,0.027,6.46-0.852"/>
				<path fill="none" stroke="#58595B" stroke-width="1.25" stroke-linecap="round" stroke-miterlimit="10" d="M183.616,100.368
					c0.465-0.033,0.952-0.077,1.426-0.136"/>
				<path fill="none" stroke="#58595B" stroke-width="0.625" stroke-linecap="round" stroke-miterlimit="10" d="M185.346,93.368
					c0,0-0.318-7.045,0.741-8.106"/>
				<path fill="none" stroke="#58595B" stroke-width="0.625" stroke-linecap="round" stroke-miterlimit="10" d="M183.223,93.368
					c0,0,0.319-7.045-0.742-8.106"/>
				
					<path fill="none" stroke="#58595B" stroke-width="0.625" stroke-linecap="round" stroke-linejoin="round" stroke-miterlimit="10" d="
					M181.189,84.521c0.858,1.11,2.871,0.819,3.14-0.528c0.522,1.42,2.478,1.092,3.175,0.528"/>
			</g>
			<path fill="none" stroke="#58595B" stroke-width="1.25" stroke-linecap="round" stroke-miterlimit="10" d="M113.365,80.079
				c-4.897,0-8.868,3.971-8.868,8.868c0,1.866,0.578,3.598,1.563,5.026l-1.282,3.931l4.068-1.327
				c1.323,0.785,2.868,1.237,4.518,1.237c4.898,0,8.868-3.97,8.868-8.867C122.232,84.05,118.263,80.079,113.365,80.079z"/>
			<g>
				<path fill="none" stroke="#58595B" stroke-width="1.25" stroke-linecap="round" stroke-miterlimit="10" d="M110.893,86.119
					c0.283-1.414,1.665-2.245,3.087-1.854c1.422,0.39,2.09,1.465,1.785,3.269c-0.364,2.162-2.662,1.639-2.662,4.02"/>
				
					<line fill="none" stroke="#58595B" stroke-width="1.25" stroke-linecap="round" stroke-miterlimit="10" x1="113.103" y1="94.152" x2="113.103" y2="94.462"/>
			</g>
		</g>
		<g>
			
				<path fill="#E2E8F5" stroke="#58595B" stroke-width="1.25" stroke-linecap="round" stroke-linejoin="round" stroke-miterlimit="10" d="
				M265.085,231.875h-25.049c-0.458,1.452-0.71,3.01-0.71,4.633c0,1.624,0.252,3.182,0.71,4.635h25.049"/>
			
				<path fill="none" stroke="#58595B" stroke-width="0.625" stroke-linecap="round" stroke-linejoin="round" stroke-miterlimit="10" d="
				M265.085,241.143c-0.458-1.453-0.71-3.011-0.71-4.635c0-1.623,0.252-3.181,0.71-4.633"/>
			
				<line fill="none" stroke="#58595B" stroke-width="1.25" stroke-linecap="round" stroke-linejoin="round" stroke-miterlimit="10" x1="265.085" y1="241.143" x2="266.07" y2="241.143"/>
			
				<line fill="none" stroke="#58595B" stroke-width="1.25" stroke-linecap="round" stroke-linejoin="round" stroke-miterlimit="10" x1="266.07" y1="231.875" x2="265.085" y2="231.875"/>
		</g>
		<rect x="39.327" y="228.75" fill="#FDF0BC" width="9.423" height="12.393"/>
		<path fill="#FFFFFF" d="M262.131,236.82c0-1.247,0.215-2.443,0.604-3.559h-20.455c-0.387,1.114-0.602,2.312-0.602,3.559
			c0,1.246,0.215,2.443,0.602,3.559h20.455C262.346,239.266,262.131,238.066,262.131,236.82z"/>
		
			<line fill="none" stroke="#58595B" stroke-width="1.25" stroke-linecap="round" stroke-miterlimit="10" x1="169.559" y1="244.268" x2="242.188" y2="244.268"/>
		
			<line fill="none" stroke="#58595B" stroke-width="1.25" stroke-linecap="round" stroke-miterlimit="10" x1="153.311" y1="244.268" x2="162.215" y2="244.268"/>
		
			<line fill="none" stroke="#58595B" stroke-width="1.25" stroke-linecap="round" stroke-miterlimit="10" x1="137.528" y1="244.268" x2="149.56" y2="244.268"/>
		
			<line fill="none" stroke="#58595B" stroke-width="1.25" stroke-linecap="round" stroke-miterlimit="10" x1="51.277" y1="244.268" x2="135.186" y2="244.268"/>
		
			<line fill="none" stroke="#58595B" stroke-width="1.25" stroke-linecap="round" stroke-miterlimit="10" x1="44.062" y1="244.268" x2="47.841" y2="244.268"/>
		
			<line fill="none" stroke="#58595B" stroke-width="1.25" stroke-linecap="round" stroke-miterlimit="10" x1="244.375" y1="244.268" x2="257.812" y2="244.268"/>
		
			<line fill="none" stroke="#58595B" stroke-width="1.25" stroke-linecap="round" stroke-miterlimit="10" x1="25.889" y1="244.268" x2="36.202" y2="244.268"/>
		
			<line fill="none" stroke="#58595B" stroke-width="1.25" stroke-linecap="round" stroke-miterlimit="10" x1="261.826" y1="244.268" x2="269.014" y2="244.268"/>
		
			<rect x="39.327" y="225.938" fill="none" stroke="#58595B" stroke-width="1.25" stroke-linecap="round" stroke-linejoin="round" stroke-miterlimit="10" width="9.423" height="15.205"/>
		
			<path fill="none" stroke="#58595B" stroke-width="1.25" stroke-linecap="round" stroke-linejoin="round" stroke-miterlimit="10" d="
			M39.327,238.209c-2.56,0-4.635-2.074-4.635-4.634c0-2.562,2.075-4.636,4.635-4.636"/>
		<g>
			<path fill="#FFFFFF" d="M260.409,229.005c0-0.888,0.159-1.739,0.45-2.532h-21.193c-0.292,0.793-0.451,1.646-0.451,2.532
				c0,0.888,0.159,1.739,0.451,2.533h21.193C260.568,230.744,260.409,229.893,260.409,229.005z"/>
			<g>
				
					<path fill="#E2E8F5" stroke="#58595B" stroke-width="1.25" stroke-linecap="round" stroke-linejoin="round" stroke-miterlimit="10" d="
					M262.623,224.927h-24.641c-0.342,1.089-0.531,2.257-0.531,3.476c0,1.217,0.189,2.385,0.531,3.474h24.641"/>
				
					<path fill="none" stroke="#58595B" stroke-width="0.625" stroke-linecap="round" stroke-linejoin="round" stroke-miterlimit="10" d="
					M262.623,231.875c-0.344-1.089-0.532-2.257-0.532-3.475c0-1.217,0.188-2.385,0.532-3.475"/>
				
					<line fill="none" stroke="#58595B" stroke-width="1.25" stroke-linecap="round" stroke-linejoin="round" stroke-miterlimit="10" x1="262.623" y1="231.875" x2="263.361" y2="231.875"/>
				
					<line fill="none" stroke="#58595B" stroke-width="1.25" stroke-linecap="round" stroke-linejoin="round" stroke-miterlimit="10" x1="263.361" y1="224.927" x2="262.623" y2="224.927"/>
			</g>
		</g>
		<g>
			<path fill="#FFFFFF" d="M262.033,222.391c0-0.771,0.16-1.51,0.451-2.199H241.29c-0.292,0.689-0.451,1.43-0.451,2.199
				c0,0.771,0.159,1.51,0.451,2.199h21.194C262.193,223.9,262.033,223.161,262.033,222.391z"/>
			<g>
				
					<path fill="#E2E8F5" stroke="#58595B" stroke-width="1.25" stroke-linecap="round" stroke-linejoin="round" stroke-miterlimit="10" d="
					M264.247,217.979h-24.64c-0.344,1.088-0.532,2.258-0.532,3.475c0,1.218,0.188,2.386,0.532,3.474h24.64"/>
				
					<path fill="none" stroke="#58595B" stroke-width="0.625" stroke-linecap="round" stroke-linejoin="round" stroke-miterlimit="10" d="
					M264.247,224.927c-0.343-1.088-0.532-2.256-0.532-3.474c0-1.217,0.189-2.387,0.532-3.475"/>
				
					<line fill="none" stroke="#58595B" stroke-width="1.25" stroke-linecap="round" stroke-linejoin="round" stroke-miterlimit="10" x1="264.247" y1="224.927" x2="264.986" y2="224.927"/>
				
					<line fill="none" stroke="#58595B" stroke-width="1.25" stroke-linecap="round" stroke-linejoin="round" stroke-miterlimit="10" x1="264.986" y1="217.979" x2="264.247" y2="217.979"/>
			</g>
		</g>
		<g>
			<path fill="#FBE3D5" d="M211.562,184.062c-1.72,0-3.125-2.531-3.125-5.625V172.5c0-3.094-1.688-5.625-3.75-5.625
				c-2.062,0-3.75,2.531-3.75,5.625v5.938c0,3.095-1.406,5.625-3.125,5.625c-1.72,0-3.125,2.531-3.125,5.625v4.375
				c0,3.095,2.53,5.625,5.625,5.625h8.75c3.094,0,5.625-2.53,5.625-5.625v-4.375C214.688,186.594,213.281,184.062,211.562,184.062z"
				/>
			<path fill="none" stroke="#58595B" stroke-width="1.25" stroke-miterlimit="10" d="M211.562,184.062
				c-1.72,0-3.125-2.531-3.125-5.625V172.5c0-3.094-1.688-5.625-3.75-5.625c-2.062,0-3.75,2.531-3.75,5.625v5.938
				c0,3.095-1.406,5.625-3.125,5.625c-1.72,0-3.125,2.531-3.125,5.625v4.375c0,3.095,2.53,5.625,5.625,5.625h8.75
				c3.094,0,5.625-2.53,5.625-5.625v-4.375C214.688,186.594,213.281,184.062,211.562,184.062z"/>
		</g>
		<path fill="#8FC5E8" stroke="#58595B" stroke-width="1.25" stroke-miterlimit="10" d="M215.938,184.062H215l-5-3.438l-5.312,9.688
			l-4.985-9.688l-5.312,3.438h-0.951c-6.188,0-11.25,5.062-11.25,11.25v11.875c0,6.188,5.062,11.25,11.25,11.25h22.5
			c6.188,0,11.25-5.062,11.25-11.25v-11.875C227.188,189.125,222.125,184.062,215.938,184.062z"/>
		
			<line fill="none" stroke="#58595B" stroke-width="1.25" stroke-miterlimit="10" x1="220.938" y1="207.188" x2="220.938" y2="195.312"/>
		
			<line fill="none" stroke="#58595B" stroke-width="1.25" stroke-miterlimit="10" x1="188.438" y1="195.312" x2="188.438" y2="207.188"/>
		<polygon fill="#43729E" stroke="#58595B" stroke-width="0.625" stroke-miterlimit="10" points="210.625,211.616 198.75,211.616 
			202.5,194.32 206.875,194.32 		"/>
		<g>
			<path fill="#43729E" d="M207.814,193.531c-0.174,0.666-0.877,1.21-1.564,1.21h-3.125c-0.688,0-1.393-0.544-1.564-1.21
				l-0.619-2.375c-0.174-0.666,0.246-1.211,0.935-1.211h5.625c0.688,0,1.108,0.545,0.935,1.211L207.814,193.531z"/>
			<path fill="none" stroke="#58595B" stroke-width="0.625" stroke-miterlimit="10" d="M207.814,193.531
				c-0.174,0.666-0.877,1.21-1.564,1.21h-3.125c-0.688,0-1.393-0.544-1.564-1.21l-0.619-2.375c-0.174-0.666,0.246-1.211,0.935-1.211
				h5.625c0.688,0,1.108,0.545,0.935,1.211L207.814,193.531z"/>
		</g>
		<g>
			<polygon fill="#BBD9F0" stroke="#58595B" stroke-width="0.625" stroke-linejoin="round" stroke-miterlimit="10" points="
				210,180.938 204.688,190.625 212.021,194.324 215,184.375 			"/>
			<polygon fill="#BBD9F0" stroke="#58595B" stroke-width="0.625" stroke-linejoin="round" stroke-miterlimit="10" points="
				199.701,180.938 204.701,190.625 197.366,194.324 194.389,184.375 			"/>
		</g>
		<path fill="#FBE3D5" d="M225.938,156.719c0,3.538-0.881,5.469-3.125,5.469s-3.75-1.617-3.75-5.155s3.486-4.845,4.375-4.845
			C224.327,152.188,225.938,153.182,225.938,156.719z"/>
		<g>
			<g>
				<path fill="#F3F4F5" d="M233.003,235.204c0,1.547-1.267,2.812-2.812,2.812h-51.646c-1.547,0-2.812-1.266-2.812-2.812v-28.343
					c0-1.547,1.266-2.812,2.812-2.812h51.646c1.547,0,2.812,1.266,2.812,2.812V235.204z"/>
				<path fill="none" stroke="#58595B" stroke-width="1.25" stroke-miterlimit="10" d="M233.003,235.204
					c0,1.547-1.267,2.812-2.812,2.812h-51.646c-1.547,0-2.812-1.266-2.812-2.812v-28.343c0-1.547,1.266-2.812,2.812-2.812h51.646
					c1.547,0,2.812,1.266,2.812,2.812V235.204z"/>
			</g>
			<g>
				<path fill="#E5E8EB" d="M233.17,239.902c-0.092,0.682-0.729,1.238-1.417,1.238h-54.771c-0.688,0-1.174-0.558-1.082-1.238
					l0.086-0.646c0.093-0.682,0.729-1.238,1.418-1.238h54.77c0.688,0,1.176,0.558,1.083,1.238L233.17,239.902z"/>
				<path fill="none" stroke="#58595B" stroke-width="1.25" stroke-miterlimit="10" d="M233.17,239.902
					c-0.092,0.682-0.729,1.238-1.417,1.238h-54.771c-0.688,0-1.174-0.558-1.082-1.238l0.086-0.646
					c0.093-0.682,0.729-1.238,1.418-1.238h54.77c0.688,0,1.176,0.558,1.083,1.238L233.17,239.902z"/>
			</g>
		</g>
		<path fill="#E2C5B6" d="M221.982,154.18c0,18.141-12.231,21.873-19.131,21.873c-6.898,0-15.188-4.357-15.188-22.498
			c0-18.14,7.543-22.09,16.849-22.09C213.816,131.465,221.982,136.04,221.982,154.18z"/>
		<path fill="#FBE3D5" d="M222.607,152.361c0,18.14-11.606,21.777-18.506,21.777c-6.898,0-15.813-3.951-15.813-22.091
			s7.543-22.089,16.849-22.089C214.441,129.959,222.607,134.222,222.607,152.361z"/>
		<g>
			<path fill="#E2C5B6" stroke="#58595B" stroke-width="1.25" stroke-linecap="round" stroke-miterlimit="10" d="M206.771,164.995
				c0.236,1.521-0.541,3.08-2.004,3.771c-1.498,0.705-3.236,0.277-4.252-0.934"/>
			<path fill="none" stroke="#58595B" stroke-width="1.25" stroke-linecap="round" stroke-miterlimit="10" d="M207.561,163.044
				c-1.559,3.606-5.744,5.267-9.352,3.708"/>
		</g>
		<circle fill="#58595B" cx="194.835" cy="153.616" r="1.872"/>
		<circle fill="#58595B" cx="209.564" cy="154.241" r="1.872"/>
		
			<path fill="none" stroke="#58595B" stroke-width="1.25" stroke-linecap="round" stroke-linejoin="round" stroke-miterlimit="10" d="
			M199.184,156.525c-0.119,1.485-2.188,2.423-2.26,3.395c-0.07,0.971,2.621,1.497,2.621,1.497"/>
		<path fill="none" stroke="#58595B" stroke-width="1.25" stroke-linejoin="round" stroke-miterlimit="10" d="M223.438,151.875
			c-0.312,0-1.016-0.107-1.789,0.307c-0.459-16.701-7.815-20.404-16.824-20.404c-9.305,0-16.848,3.95-16.848,22.09
			c0,18.14,8.291,22.498,15.188,22.498c5.827,0,15.017-2.175,17.728-14.075c0.756,0.229,1.193,0.21,1.92,0.21
			c2.244,0,3.125-2.556,3.125-6.094S224.326,151.875,223.438,151.875z"/>
		<path fill="#C3996B" stroke="#58595B" stroke-width="1.25" stroke-miterlimit="10" d="M223.104,151.848
			c-1.645,0.41-2.979,1.231-4.008,2.772c-1.027-5.547-6.287-11.386-5.648-15.511c-6.758,6.044-19.928,7.602-25.783,5.649
			c-5.754-1.918-7.909-8.423-6.779-13.251c4.52,4.109,11.006-4.183,20.34-6.984c9.332-2.803,15.202-0.72,19.09,4.539
			C228.547,133.049,222.999,150.203,223.104,151.848z"/>
		<path fill="none" stroke="#CDAA82" stroke-width="1.25" stroke-linecap="round" stroke-miterlimit="10" d="M218.951,131.875
			c3.445,1.669,2.955,8.498,2.184,13.315 M183.848,135.754c3.032-0.05,5.937-1.798,9.291-3.817c2.676-1.611,5.709-3.438,8.982-4.421
			c2.469-0.74,4.713-1.117,6.669-1.117"/>
		<path fill="#58595B" d="M200.575,221.768c0.063-0.336,0.116-0.664,0.188-0.986c0.055-0.234,0.119-0.469,0.204-0.691
			c0.216-0.57,0.65-0.865,1.246-0.855c0.468,0.008,0.938,0.078,1.399,0.156c0.996,0.168,1.982,0.168,2.974-0.06
			c0.364-0.084,0.746-0.112,1.121-0.118c0.539-0.009,0.888,0.292,1.041,0.792c0.132,0.429,0.237,0.863,0.328,1.302
			c0.28,1.359,0.562,2.721,0.815,4.086c0.113,0.606,0.207,1.224,0.242,1.84c0.038,0.651-0.294,1.08-0.939,1.211
			c-0.479,0.098-0.979,0.127-1.471,0.134c-1.367,0.017-2.734,0.021-4.104,0.001c-0.895-0.014-1.789-0.071-2.686-0.113
			c-0.123-0.006-0.25-0.033-0.371-0.062c-0.621-0.157-0.938-0.51-0.924-1.151c0.012-0.536,0.086-1.075,0.18-1.604
			c0.177-0.981,0.39-1.957,0.584-2.938c0.02-0.089,0.022-0.182,0.035-0.293c-0.344-0.032-0.683-0.055-1.02-0.1
			c-0.531-0.071-1.025-0.246-1.438-0.607c-0.686-0.604-0.828-1.232-0.471-2.061c-0.486-1.004-0.423-1.855,0.937-2.438
			c-0.017-0.529,0.209-0.971,0.62-1.307c0.191-0.157,0.41-0.307,0.644-0.389c1.181-0.414,2.367-0.812,3.604-1.015
			c0.979-0.162,1.966-0.211,2.955-0.168c0.25,0.01,0.498,0.075,0.744,0.131c1.02,0.229,2.035,0.466,3.055,0.692
			c0.927,0.207,1.451,0.796,1.72,1.689c0.119,0.399,0.205,0.771,0.015,1.174c-0.309,0.225-0.682,0.308-1.056,0.35
			c-0.821,0.095-1.599-0.053-2.325-0.465c-0.438-0.247-0.695-0.562-0.517-1.158c0.017-0.021,0.079-0.104,0.126-0.164
			c-0.154-0.7-0.7-0.869-1.29-0.959c-1.19-0.182-2.382-0.176-3.562,0.079c-0.32,0.069-0.635,0.205-0.926,0.356
			c-0.27,0.142-0.474,0.366-0.502,0.674c0.148,0.343,0.29,0.664,0.424,0.97c-0.824,0.694-2.925,1.032-3.72,0.614
			c-0.026-0.119-0.056-0.25-0.085-0.383c-0.573,0.174-0.725,0.652-0.4,1.293c0.385-0.221,0.805-0.347,1.245-0.271
			c0.3,0.051,0.616,0.126,0.872,0.278c0.545,0.324,0.541,0.942,0.008,1.293c-0.531,0.351-1.09,0.306-1.633,0.016
			c-0.181-0.098-0.341-0.23-0.523-0.355c-0.133,0.123-0.09,0.267-0.047,0.405c0.149,0.484,0.485,0.796,0.941,0.987
			C199.303,221.773,199.993,221.852,200.575,221.768z M198.334,219.703c0.521,0.611,1.331,0.68,1.586,0.148
			C199.57,219.439,198.932,219.372,198.334,219.703z"/>
		<path fill="none" stroke="#58595B" stroke-width="1.25" stroke-miterlimit="10" d="M210.216,168.807
			c4.472-1.445,10.47-8.17,11.927-11.517"/>
		<circle fill="#58595B" cx="210.215" cy="168.807" r="1.639"/>
		<ellipse fill="#58595B" cx="222.143" cy="157.518" rx="2.307" ry="3.338"/>
		<path fill="none" stroke="#58595B" stroke-width="1.875" stroke-miterlimit="10" d="M222.143,157.812c0,0-2.246-6.215-1.205-6.945
			s1.672,0.146,1.672,1.017"/>
		<path fill="#FCEDE4" stroke="#58595B" stroke-width="1.25" stroke-miterlimit="10" d="M105.938,178.906l3.906,4.219l3.281-2.5
			l-2.344-4.531c0,0,1.307-8.279-0.099-10.623c-1.406-2.345-5.596-2.246-7.002-1.465c-0.954,0.53-1.863,8.273-3.717,12.051
			c-3.145-1.807-4.373,0.393-3.518,1.396C99.101,180.578,103.896,179.195,105.938,178.906z"/>
		<g>
			<g>
				<path fill="#F1F2F2" d="M109.714,168.355c0.729,0.729,0.729,1.922,0,2.651l-6.23,6.229c-0.729,0.729-1.922,0.729-2.651,0
					l-14.107-14.105c-0.729-0.729-0.729-1.923,0-2.652l6.23-6.229c0.729-0.729,1.922-0.729,2.651,0L109.714,168.355z"/>
				<path fill="none" stroke="#58595B" stroke-width="0.625" stroke-miterlimit="10" d="M109.714,168.355
					c0.729,0.729,0.729,1.922,0,2.651l-6.23,6.229c-0.729,0.729-1.922,0.729-2.651,0l-14.107-14.105
					c-0.729-0.729-0.729-1.923,0-2.652l6.23-6.229c0.729-0.729,1.922-0.729,2.651,0L109.714,168.355z"/>
			</g>
			<g>
				<path fill="#43729E" d="M106.179,167.031c0.243,0.242,0.243,0.641,0,0.883l-5.788,5.789c-0.243,0.242-0.641,0.242-0.884,0
					l-12.56-12.561c-0.243-0.242-0.243-0.642,0-0.884l5.788-5.788c0.243-0.242,0.641-0.242,0.884,0L106.179,167.031z"/>
				<path fill="none" stroke="#58595B" stroke-width="0.625" stroke-miterlimit="10" d="M106.179,167.031
					c0.243,0.242,0.243,0.641,0,0.883l-5.788,5.789c-0.243,0.242-0.641,0.242-0.884,0l-12.56-12.561
					c-0.243-0.242-0.243-0.642,0-0.884l5.788-5.788c0.243-0.242,0.641-0.242,0.884,0L106.179,167.031z"/>
			</g>
			<circle fill="#58595B" cx="104.931" cy="172.455" r="1.153"/>
		</g>
		<path fill="#FCEDE4" stroke="#58595B" stroke-width="1.25" stroke-miterlimit="10" d="M108.568,164.132
			c-1.406-2.344-4.371-2.288-5.752-1.464c-1.767,1.055-0.633,2.746,0.939,2.557c1.573-0.188,2.552-0.467,3.161,0.799"/>
		<path fill="#FCEDE4" stroke="#58595B" stroke-width="0.625" stroke-miterlimit="10" d="M110.37,165.471
			c-1.406-2.345-3.698-1.881-5.228-1.385c-1.958,0.635-0.631,2.126,0.942,1.938c1.573-0.189,1.609,0.312,2.634,1.338"/>
		<g>
			<path fill="#FCEDE4" d="M79.158,184.062c1.719,0,3.125-2.531,3.125-5.625V172.5c0-3.094,1.688-5.625,3.75-5.625
				s3.75,2.531,3.75,5.625v5.938c0,3.095,1.406,5.625,3.125,5.625c1.719,0,3.125,2.531,3.125,5.625v4.375
				c0,3.095-2.531,5.625-5.625,5.625h-8.75c-3.094,0-5.625-2.53-5.625-5.625v-4.375C76.033,186.594,77.439,184.062,79.158,184.062z"
				/>
			<path fill="none" stroke="#58595B" stroke-width="1.25" stroke-miterlimit="10" d="M79.158,184.062
				c1.719,0,3.125-2.531,3.125-5.625V172.5c0-3.094,1.688-5.625,3.75-5.625s3.75,2.531,3.75,5.625v5.938
				c0,3.095,1.406,5.625,3.125,5.625c1.719,0,3.125,2.531,3.125,5.625v4.375c0,3.095-2.531,5.625-5.625,5.625h-8.75
				c-3.094,0-5.625-2.53-5.625-5.625v-4.375C76.033,186.594,77.439,184.062,79.158,184.062z"/>
		</g>
		<path fill="#E7E6D4" stroke="#58595B" stroke-width="0.625" stroke-miterlimit="10" d="M92.591,190.835
			c-1.697,1.644-4.009,2.657-6.558,2.657c-2.549,0-4.861-1.014-6.558-2.657h-6.104v13.224h25.323v-13.224H92.591z"/>
		<path fill="#C8DE92" stroke="#58595B" stroke-width="1.25" stroke-linejoin="round" stroke-miterlimit="10" d="M74.783,184.062
			h0.938l2.188-0.625l8.125,15.625l7.799-15.625l2.5,0.625h0.951c6.188,0,11.25,5.375,5,11.562v11.562
			c6.25,6.188,1.188,11.25-5,11.25h-22.5c-6.188,0-11.25-5.062-11.25-11.25v-11.875C63.533,189.125,68.595,184.062,74.783,184.062z"
			/>
		<path fill="#D2E4A6" stroke="#58595B" stroke-width="0.625" stroke-linejoin="round" stroke-miterlimit="10" d="M86.033,199.375
			l-8.125-15.625l-2.188,0.625c0,0-3.802,7.311-1.85,10.259c1.952,2.949,6.081,2.446,6.081,2.446s-0.366,1.604,1.267,2.295
			C82.851,200.066,86.033,199.375,86.033,199.375z"/>
		<path fill="#D2E4A6" stroke="#58595B" stroke-width="0.625" stroke-linejoin="round" stroke-miterlimit="10" d="M86.033,199.375
			l8.125-15.625l2.188,0.625c0,0,3.802,7.311,1.85,10.259c-1.952,2.949-6.081,2.446-6.081,2.446s0.366,1.604-1.267,2.295
			C89.215,200.066,86.033,199.375,86.033,199.375z"/>
		
			<line fill="none" stroke="#58595B" stroke-width="1.25" stroke-linejoin="round" stroke-miterlimit="10" x1="86.033" y1="199.062" x2="86.033" y2="218.438"/>
		
			<path fill="#C8DE92" stroke="#58595B" stroke-width="1.25" stroke-linecap="round" stroke-linejoin="round" stroke-miterlimit="10" d="
			M97.283,184.062c8.678,0,9.723,6.346,11.4,8.021c0-3.626-0.729-9.029-1.254-10.938c0.841-1.455,3.542-3.617,5.042-3.26
			c1.667,4.239,5.812,18.033,0.905,23.398c-3.841,4.199-11.255-5.662-11.255-5.662"/>
		
			<line fill="none" stroke="#58595B" stroke-width="1.25" stroke-linejoin="round" stroke-miterlimit="10" x1="69.783" y1="207.188" x2="69.783" y2="195.312"/>
		
			<path fill="#C8DE92" stroke="#58595B" stroke-width="1.25" stroke-linecap="round" stroke-linejoin="round" stroke-miterlimit="10" d="
			M108.692,195.57c0,0,0.064-1.932-0.01-3.485"/>
		<path fill="#C36F69" stroke="#58595B" stroke-width="1.25" stroke-miterlimit="10" d="M74.783,167.863
			c0,0-9.497,0.582-11.793-14.104c-2.296-14.687,3.451-27.888,12.105-27.386"/>
		<path fill="none" stroke="#CC877F" stroke-width="1.25" stroke-miterlimit="10" d="M65.263,143.857
			c0.835-8.251,4.685-14.369,9.832-14.056"/>
		<path fill="#FCEDE4" d="M66.97,156.406c0,3.537,0.881,5.469,3.125,5.469c2.244,0,3.75-1.618,3.75-5.156
			c0-3.537-3.487-4.844-4.375-4.844C68.582,151.875,66.97,152.868,66.97,156.406z"/>
		<path fill="#ECDAD0" d="M71.549,153.555c0,18.141,13.066,22.062,21.54,22.498c2.836,0.146,12.156-4.357,12.156-22.498
			c0-18.14-7.543-22.09-16.848-22.09S71.549,135.415,71.549,153.555z"/>
		<path fill="#FCEDE4" d="M70.954,153.264c0,18.141,17.754,20.875,21.289,20.875c3.535,0,12.377-3.949,12.377-22.09
			c0-18.14-7.543-22.089-16.848-22.089S70.954,135.125,70.954,153.264z"/>
		<path fill="#FBE4D5" d="M104.62,157.923c-2.183,0-3.952,1.771-3.952,3.952c0,1.773,1.168,3.273,2.777,3.773
			c0.749-2.145,1.318-4.691,1.601-7.701C104.906,157.932,104.764,157.923,104.62,157.923z"/>
		<g>
			<path fill="#E2C5B6" stroke="#58595B" stroke-width="1.25" stroke-linecap="round" stroke-miterlimit="10" d="M88.651,167.836
				c0.604,1.417,2.086,2.329,3.693,2.143c1.644-0.19,2.896-1.473,3.118-3.037"/>
			<path fill="none" stroke="#58595B" stroke-width="1.25" stroke-linecap="round" stroke-miterlimit="10" d="M86.952,166.596
				c3.228,2.238,7.66,1.438,9.899-1.789"/>
		</g>
		<circle fill="#58595B" cx="98.072" cy="154.241" r="1.872"/>
		<circle fill="#58595B" cx="83.344" cy="155.179" r="1.872"/>
		
			<path fill="none" stroke="#58595B" stroke-width="1.25" stroke-linecap="round" stroke-linejoin="round" stroke-miterlimit="10" d="
			M93.725,156.525c0.118,1.485,1.251,2.423,1.322,3.395c0.07,0.971-1.683,1.497-1.683,1.497"/>
		<path fill="none" stroke="#58595B" stroke-width="1.25" stroke-miterlimit="10" d="M69.47,151.875
			c0.312,0,1.015-0.107,1.789,0.307c0.458-16.701,7.816-20.404,16.825-20.404c9.305,0,16.848,3.95,16.848,22.09
			c0,18.14-9.132,22.498-11.973,22.498c-2.399,0-18.232-3.111-20.944-15.013c-0.546,0.35-1.193,0.521-1.92,0.521
			c-2.244,0-3.125-1.932-3.125-5.469C66.97,152.868,68.582,151.875,69.47,151.875z"/>
		<path fill="#C36F69" stroke="#58595B" stroke-width="1.25" stroke-miterlimit="10" d="M69.806,151.848
			c1.644,0.41,2.979,1.231,4.006,2.772c1.027-5.547,4.977-11.391,5.65-15.511c4.025,6.94,17.86,8.962,25.048,7.982
			c0.178,1.508,0.261,2.305,0.422,4.3c8.882-13.658-3.914-24.065-13.247-26.868c-9.333-2.803-14.069-0.091-16.59,1.85"/>
		<path fill="none" stroke="#CC877F" stroke-width="1.25" stroke-miterlimit="10" d="M104.088,143.996l0.579-0.079
			c0.281-1.803,0.11-3.562-0.515-5.268c-2.015-5.497-8.34-9.625-13.365-11.134c-2.572-0.771-4.708-1.063-6.477-1.063"/>
		<g>
			<g>
				<path fill="#E5E8EB" d="M57.718,235.204c0,1.547,1.266,2.812,2.812,2.812h51.644c1.547,0,2.812-1.266,2.812-2.812v-28.343
					c0-1.547-1.266-2.812-2.812-2.812H60.53c-1.547,0-2.812,1.266-2.812,2.812V235.204z"/>
				<path fill="none" stroke="#58595B" stroke-width="1.25" stroke-miterlimit="10" d="M57.718,235.204
					c0,1.547,1.266,2.812,2.812,2.812h51.644c1.547,0,2.812-1.266,2.812-2.812v-28.343c0-1.547-1.266-2.812-2.812-2.812H60.53
					c-1.547,0-2.812,1.266-2.812,2.812V235.204z"/>
			</g>
			<g>
				<path fill="#B8BBBE" d="M57.551,239.902c0.092,0.682,0.729,1.238,1.417,1.238h54.769c0.688,0,1.175-0.558,1.083-1.238
					l-0.087-0.646c-0.092-0.682-0.729-1.238-1.417-1.238h-54.77c-0.688,0-1.175,0.558-1.083,1.238L57.551,239.902z"/>
				<path fill="none" stroke="#58595B" stroke-width="1.25" stroke-miterlimit="10" d="M57.551,239.902
					c0.092,0.682,0.729,1.238,1.417,1.238h54.769c0.688,0,1.175-0.558,1.083-1.238l-0.087-0.646
					c-0.092-0.682-0.729-1.238-1.417-1.238h-54.77c-0.688,0-1.175,0.558-1.083,1.238L57.551,239.902z"/>
			</g>
		</g>
		<circle fill="#FBE4D5" cx="79.985" cy="162.923" r="3.952"/>
	</g>
</g>
<g id="Layer_1_1_">
	<g>
		<path fill="#E2E8F5" d="M158.635-833.521c4.781,1.457,10.064,2.577,16.115,3.173c40.781,4.019,57.393-25.015,110.615-15.707
			c64.002,11.194,75.406,40.889,100.068,61.372c24.662,20.484,75.577,15.22,107.661,58.145c29.771,39.829,5.855,55.596,9.254,90.812
			c3.399,35.216,53.024,67.325,45.637,131.54c-6.13,53.27-45.008,67.429-58.296,85.916c-13.289,18.488-6.33,61.403-60.415,86.8
			c-40.029,18.796-86.007,0.476-100.418,6.705c-14.412,6.23-49.322,41.909-120.061,46.304c-33.634,2.09-60.206-4.548-81.555-12.015
			C83.944-443.51,192.102-658.694,158.635-833.521z"/>
		<path fill="#FDF0BC" d="M-230.2-532.434c-1.008-26.256-41.669-60.622-27.525-113.308c14.362-53.496,64.606-57.854,80.344-79.792
			c15.738-21.937,7.671-53.336,57.337-76.11c42.427-19.455,85.056,4.795,104.881-6.958c19.825-11.753,38.463-43.514,92.841-48.689
			c42.767-4.071,53.521,15.416,80.957,23.771c33.467,174.827-74.69,390.011-31.393,543.045
			c-22.167-7.754-38.701-16.401-51.603-17.11c-25.325-1.39-86.59,32.868-149.689,16.894C-134-305.869-136.482-324.288-160-351.15
			s-54.985-4.997-77.155-50.744C-260.107-449.251-229.192-506.178-230.2-532.434z"/>
	</g>
	<path fill="none" stroke="#58595B" stroke-width="4" stroke-linecap="round" stroke-miterlimit="10" stroke-dasharray="12,12" d="
		M140.162-887.81c85.391,195.949-82,467.17,0,638.027"/>
</g>
<g id="Layer_10">
	<g>
		<path fill="#EBEDEF" d="M172-223.5c0,8.25-6.75,15-15,15H9c-8.25,0-15-6.75-15-15l0,0c0-8.25,6.75-15,15-15h148
			C165.25-238.5,172-231.75,172-223.5L172-223.5z"/>
	</g>
	<g>
		<path fill="#EBEDEF" d="M314-229.5c0,8.25-6.75,15-15,15H151c-8.25,0-15-6.75-15-15l0,0c0-8.25,6.75-15,15-15h148
			C307.25-244.5,314-237.75,314-229.5L314-229.5z"/>
	</g>
	<g>
		<path fill="#EBEDEF" d="M57-232.5c0,8.25-6.75,15-15,15h-148c-8.25,0-15-6.75-15-15l0,0c0-8.25,6.75-15,15-15H42
			C50.25-247.5,57-240.75,57-232.5L57-232.5z"/>
	</g>
	<g>
		<path fill="#EBEDEF" d="M548-222.5c0,8.25-6.75,15-15,15h-91c-8.25,0-15-6.75-15-15l0,0c0-8.25,6.75-15,15-15h91
			C541.25-237.5,548-230.75,548-222.5L548-222.5z"/>
	</g>
	<g>
		<path fill="#EBEDEF" d="M-20-225.5c0,8.25-6.75,15-15,15h-47c-8.25,0-15-6.75-15-15l0,0c0-8.25,6.75-15,15-15h47
			C-26.75-240.5-20-233.75-20-225.5L-20-225.5z"/>
	</g>
	<g>
		<path fill="#EBEDEF" d="M341-225.5c0,8.25-6.75,15-15,15h-47c-8.25,0-15-6.75-15-15l0,0c0-8.25,6.75-15,15-15h47
			C334.25-240.5,341-233.75,341-225.5L341-225.5z"/>
	</g>
	<g>
		<path fill="#EBEDEF" d="M-104-229.5c0,8.25-6.75,15-15,15h-148c-8.25,0-15-6.75-15-15l0,0c0-8.25,6.75-15,15-15h148
			C-110.75-244.5-104-237.75-104-229.5L-104-229.5z"/>
	</g>
	<g>
		<path fill="#EBEDEF" d="M503-231.5c0,8.25-6.75,15-15,15H340c-8.25,0-15-6.75-15-15l0,0c0-8.25,6.75-15,15-15h148
			C496.25-246.5,503-239.75,503-231.5L503-231.5z"/>
	</g>
</g>
<g id="Layer_11">
	<g>
		<g>
			<path fill="#FFFFFF" d="M98.68-728.203c0.105,2.453-4.559,5.218-4.742,7.606c-0.188,2.439,2.12,5.52,1.647,7.875
				c-0.48,2.394,0.543,5.782-0.213,8.067c-0.765,2.312-11.272,0.802-12.303,2.984c-1.038,2.199,0.471,5.361-0.817,7.406
				c-1.293,2.054-0.283,5.729-1.81,7.608c-1.529,1.881-0.395,6.755-2.138,8.44c-1.74,1.682-9.317-3.242-11.252-1.777
				c-1.927,1.459-3.599,2.611-5.7,3.834c-2.085,1.214-1.722,7.193-3.96,8.154c-2.212,0.95-5.274,0.077-7.617,0.76
				c-2.306,0.672-4.25,4.068-6.665,4.464c-2.363,0.387-5.066,2.957-7.519,3.062c-2.453,0.104-5.013-6.833-7.401-7.016
				c-2.441-0.188-4.78-0.002-7.135-0.475c-2.394-0.48-4.031-2.914-6.316-3.671c-2.312-0.765-4.663-0.671-6.844-1.701
				c-2.198-1.038-6.642,1.883-8.687,0.595c-2.054-1.294-6.21-0.569-8.089-2.095c-1.881-1.529-2.333-5.445-4.017-7.188
				c-1.682-1.741-0.172-6.422-1.638-8.357c-1.458-1.927,1.265-6.192,0.042-8.293c-1.213-2.085-10.981,0.202-11.942-2.036
				c-0.95-2.212-0.609-5.371-1.293-7.714c-0.672-2.306-0.228-5.183-0.624-7.598c-0.388-2.363,6.505-5.295,6.399-7.748
				c-0.106-2.453-3.282-4.48-3.099-6.868c0.188-2.441-6.713-6.026-6.241-8.38c0.48-2.395,9.713-2.55,10.47-4.836
				c0.765-2.312-6.093-7.73-5.063-9.912c1.038-2.198,2.483-4.815,3.771-6.861c1.293-2.054,3.818-3.845,5.345-5.723
				c1.529-1.881,9.711,2.47,11.455,0.786c1.74-1.682,2.557-3.555,4.493-5.02c1.927-1.459-0.756-9.819,1.345-11.042
				c2.085-1.214,3.908-4.339,6.146-5.301c2.212-0.95,8.123,8.068,10.466,7.384c2.306-0.672,4.006-1.886,6.422-2.282
				c2.363-0.388,4.296-1.471,6.749-1.576c2.453-0.105,4.581-0.619,6.969-0.435c2.44,0.188,5.718-5.24,8.073-4.768
				c2.394,0.48,3.881,5.066,6.167,5.823c2.312,0.766,4.886,0.845,7.068,1.876c2.198,1.038,6.753-1.562,8.798-0.273
				c2.054,1.293,0.722,7.7,2.6,9.227c1.881,1.528,2.269,4.334,3.953,6.078c1.682,1.741,4.67,2.074,6.135,4.01
				c1.459,1.927-1.383,6.261-0.16,8.362c1.214,2.085,2.272,3.519,3.233,5.757c0.95,2.212,2.686,3.549,3.37,5.894
				c0.672,2.306-0.081,4.37,0.315,6.785C87.213-731.949,98.575-730.656,98.68-728.203z"/>
		</g>
		<g>
			<path fill="#FFFFFF" d="M324.202-736.441c0.098,2.27-8.772,4.313-8.923,6.528c-0.154,2.261,0.504,4.062,0.104,6.25
				c-0.405,2.225,7.16,6.339,6.516,8.474c-0.653,2.16,0.209,5.458-0.676,7.511c-0.891,2.069-11.181-0.462-12.291,1.48
				c-1.114,1.953-1.425,3.891-2.747,5.699c-1.325,1.814-1.854,3.822-3.372,5.475c-1.517,1.653-2.545,3.415-4.238,4.891
				c-1.689,1.472,0.007,7.429-1.844,8.708c-1.842,1.271-5.984-0.873-7.97,0.192c-1.969,1.056-3.632,2.792-5.728,3.628
				c-2.071,0.826-3.08,5.812-5.262,6.407c-2.146,0.586-5.774-4.666-8.016-4.319c-2.193,0.34-4.382-1.23-6.65-1.132
				c-2.297,0.099-4.388,2.121-6.596,2.022c-2.294-0.103-3.795-4.964-5.982-5.274c-2.272-0.322-3.979-0.356-6.125-0.896
				c-2.221-0.56-4.2,0.039-6.273-0.748c-2.137-0.811-3.165-2.566-5.13-3.611c-2.009-1.067-3.286-1.922-5.101-3.227
				c-1.838-1.32-10.795,5.861-12.418,4.306c-1.623-1.556-0.395-6.442-1.785-8.226c-1.375-1.761-4.28-2.965-5.414-4.94
				c-1.104-1.925,6.003-7.743,5.142-9.864c-0.83-2.046-4.223-2.758-4.813-4.981c-0.565-2.127-6.369-3.262-6.704-5.545
				c-0.319-2.174,5.271-4.973,5.171-7.283c-0.102-2.327-5.862-4.731-5.704-7.044c0.16-2.321,0.19-4.996,0.597-7.281
				c0.407-2.289,3.721-4.104,4.362-6.336c0.644-2.235,0.099-5.002,0.963-7.158c0.865-2.159,6.493-2.05,7.565-4.106
				c1.078-2.063,2.744-3.354,4.018-5.291c1.278-1.947,2.706-3.245,4.168-5.043c1.471-1.809,0.051-5.861,1.689-7.496
				c1.652-1.646,0.631-6.518,2.44-7.964c1.819-1.454,7.615,2.653,9.581,1.423c1.973-1.234,3.949-1.593,6.055-2.577
				c2.101-0.983,1.955-7.477,4.174-8.188c2.201-0.705,4.332-3.719,6.636-4.132c2.265-0.406,5.649,9.467,7.998,9.366
				c2.379-0.102,4.478-5.459,6.765-5.303c2.369,0.162,3.913,4.525,6.172,4.951c2.326,0.438,4.243,0.4,6.438,1.104
				c2.246,0.72,7.575-6.265,9.67-5.282c2.128,0.998,2.302,6.212,4.258,7.463c1.974,1.261,0.974,6.128,2.757,7.629
				c1.783,1.503,7.076-0.921,8.655,0.805c1.568,1.716-0.104,5.932,1.247,7.851c1.334,1.896,6.199,1.561,7.306,3.639
				c1.086,2.04,2.331,4.261,3.185,6.461c0.834,2.15,4.165,3.902,4.763,6.189c0.581,2.229-5.807,6.012-5.461,8.356
				C317.705-740.604,324.101-738.812,324.202-736.441z"/>
		</g>
		<g>
			<path fill="none" stroke="#58595B" stroke-width="4" stroke-linecap="round" stroke-miterlimit="10" d="M291.423-714.522
				c33.069,7.159,83.935,21.445,119.998,38.927"/>
			<path fill="none" stroke="#58595B" stroke-width="4" stroke-linecap="round" stroke-miterlimit="10" d="M81.813-726.277
				c44.063-4.626,90.233-4.801,137.358,0.161"/>
			<path fill="none" stroke="#58595B" stroke-width="4" stroke-linecap="round" stroke-miterlimit="10" d="M-102.855-675.595
				c29.69-14.262,62.199-26.06,96.814-34.962"/>
		</g>
		<g>
			<path fill="none" stroke="#58595B" stroke-width="4" stroke-linecap="round" stroke-miterlimit="10" d="M278.816-742.813
				c0-10.642-8.629-19.268-19.271-19.268s-19.271,8.626-19.271,19.268c0,6.421,5.603,12.877,5.603,12.877
				c3.828,3.829,2.72,15.583,3.201,17.32c0.458,1.645,2.459,2.724,4.448,2.724c0,0,7.644,0.29,12.037-1.187
				c1.875-0.63,3.99-1.08,4.447-2.724c0.483-1.737-0.878-12.187,3.201-16.266C273.215-730.068,278.816-736.393,278.816-742.813z"/>
			<path fill="none" stroke="#58595B" stroke-width="4" stroke-linecap="round" stroke-miterlimit="10" d="M249.341-702.773
				c0,0,15.773,0.09,20.673-2.724"/>
			<path fill="none" stroke="#58595B" stroke-width="4" stroke-linecap="round" stroke-miterlimit="10" d="M249.341-695.655
				c0,0,15.773,0.091,20.673-2.723"/>
			<path fill="none" stroke="#58595B" stroke-width="4" stroke-linecap="round" stroke-miterlimit="10" d="M257.57-688.823
				c1.488-0.104,3.05-0.245,4.564-0.436"/>
			<path fill="none" stroke="#58595B" stroke-width="2" stroke-linecap="round" stroke-miterlimit="10" d="M263.105-711.221
				c0,0-1.021-22.545,2.373-25.941"/>
			<path fill="none" stroke="#58595B" stroke-width="2" stroke-linecap="round" stroke-miterlimit="10" d="M256.311-711.221
				c0,0,1.022-22.545-2.373-25.941"/>
			<path fill="none" stroke="#58595B" stroke-width="2" stroke-linecap="round" stroke-linejoin="round" stroke-miterlimit="10" d="
				M249.811-739.535c2.748,3.554,9.184,2.622,10.043-1.689c1.676,4.544,7.929,3.494,10.16,1.689"/>
		</g>
		<path fill="none" stroke="#58595B" stroke-width="4" stroke-linecap="round" stroke-miterlimit="10" d="M32.768-753.746
			c-15.672,0-28.377,12.705-28.377,28.377c0,5.974,1.851,11.514,5.003,16.086l-4.102,12.576l13.017-4.246
			c4.235,2.513,9.177,3.961,14.458,3.961c15.672,0,28.377-12.705,28.377-28.377C61.145-741.041,48.44-753.746,32.768-753.746z"/>
		<g>
			<path fill="none" stroke="#58595B" stroke-width="4" stroke-linecap="round" stroke-miterlimit="10" d="M24.856-734.418
				c0.906-4.525,5.328-7.184,9.878-5.933c4.55,1.249,6.688,4.687,5.714,10.462c-1.167,6.918-8.519,5.242-8.519,12.86"/>
			
				<line fill="none" stroke="#58595B" stroke-width="4" stroke-linecap="round" stroke-miterlimit="10" x1="31.929" y1="-708.713" x2="31.929" y2="-707.723"/>
		</g>
	</g>
</g>
<g id="Layer_9">
	<g>
		
			<path fill="#E2E8F5" stroke="#58595B" stroke-width="4" stroke-linecap="round" stroke-linejoin="round" stroke-miterlimit="10" d="
			M518.271-268h-80.155c-1.465,4.646-2.271,9.631-2.271,14.826c0,5.195,0.807,10.181,2.271,14.826h80.155"/>
		<path fill="none" stroke="#58595B" stroke-width="2" stroke-linecap="round" stroke-linejoin="round" stroke-miterlimit="10" d="
			M518.271-238.348c-1.466-4.646-2.271-9.631-2.271-14.826c0-5.195,0.806-10.181,2.271-14.826"/>
		
			<line fill="none" stroke="#58595B" stroke-width="4" stroke-linecap="round" stroke-linejoin="round" stroke-miterlimit="10" x1="518.271" y1="-238.348" x2="521.426" y2="-238.348"/>
		
			<line fill="none" stroke="#58595B" stroke-width="4" stroke-linecap="round" stroke-linejoin="round" stroke-miterlimit="10" x1="521.426" y1="-268" x2="518.271" y2="-268"/>
	</g>
	<rect x="-204.155" y="-278" fill="#FDF0BC" width="30.155" height="39.652"/>
	<path fill="#FFFFFF" d="M508.82-252.174c0-3.991,0.684-7.82,1.928-11.387h-65.453c-1.243,3.566-1.927,7.396-1.927,11.387
		c0,3.99,0.684,7.819,1.927,11.387h65.453C509.504-244.354,508.82-248.184,508.82-252.174z"/>
	
		<line fill="none" stroke="#58595B" stroke-width="4" stroke-linecap="round" stroke-miterlimit="10" x1="212.586" y1="-228.348" x2="445" y2="-228.348"/>
	
		<line fill="none" stroke="#58595B" stroke-width="4" stroke-linecap="round" stroke-miterlimit="10" x1="160.59" y1="-228.348" x2="189.088" y2="-228.348"/>
	
		<line fill="none" stroke="#58595B" stroke-width="4" stroke-linecap="round" stroke-miterlimit="10" x1="110.091" y1="-228.348" x2="148.591" y2="-228.348"/>
	
		<line fill="none" stroke="#58595B" stroke-width="4" stroke-linecap="round" stroke-miterlimit="10" x1="-165.914" y1="-228.348" x2="102.592" y2="-228.348"/>
	
		<line fill="none" stroke="#58595B" stroke-width="4" stroke-linecap="round" stroke-miterlimit="10" x1="-189" y1="-228.348" x2="-176.909" y2="-228.348"/>
	
		<line fill="none" stroke="#58595B" stroke-width="4" stroke-linecap="round" stroke-miterlimit="10" x1="452" y1="-228.348" x2="495" y2="-228.348"/>
	
		<line fill="none" stroke="#58595B" stroke-width="4" stroke-linecap="round" stroke-miterlimit="10" x1="-247.155" y1="-228.348" x2="-214.155" y2="-228.348"/>
	
		<line fill="none" stroke="#58595B" stroke-width="4" stroke-linecap="round" stroke-miterlimit="10" x1="507.845" y1="-228.348" x2="530.845" y2="-228.348"/>
	
		<rect x="-204.155" y="-287" fill="none" stroke="#58595B" stroke-width="4" stroke-linecap="round" stroke-linejoin="round" stroke-miterlimit="10" width="30.155" height="48.652"/>
	<path fill="none" stroke="#58595B" stroke-width="4" stroke-linecap="round" stroke-linejoin="round" stroke-miterlimit="10" d="
		M-204.155-247.73c-8.191,0-14.831-6.639-14.831-14.83s6.64-14.831,14.831-14.831"/>
	<g>
		<path fill="#FFFFFF" d="M503.309-277.184c0-2.84,0.513-5.566,1.445-8.105h-67.823c-0.933,2.539-1.443,5.266-1.443,8.105
			c0,2.839,0.512,5.565,1.443,8.104h67.823C503.82-271.618,503.309-274.344,503.309-277.184z"/>
		<g>
			
				<path fill="#E2E8F5" stroke="#58595B" stroke-width="4" stroke-linecap="round" stroke-linejoin="round" stroke-miterlimit="10" d="
				M510.394-290.233h-78.846c-1.099,3.483-1.703,7.222-1.703,11.117c0,3.895,0.604,7.633,1.703,11.116h78.846"/>
			<path fill="none" stroke="#58595B" stroke-width="2" stroke-linecap="round" stroke-linejoin="round" stroke-miterlimit="10" d="
				M510.394-268c-1.099-3.483-1.701-7.221-1.701-11.116c0-3.895,0.604-7.634,1.701-11.117"/>
			
				<line fill="none" stroke="#58595B" stroke-width="4" stroke-linecap="round" stroke-linejoin="round" stroke-miterlimit="10" x1="510.394" y1="-268" x2="512.76" y2="-268"/>
			
				<line fill="none" stroke="#58595B" stroke-width="4" stroke-linecap="round" stroke-linejoin="round" stroke-miterlimit="10" x1="512.76" y1="-290.233" x2="510.394" y2="-290.233"/>
		</g>
	</g>
	<g>
		<path fill="#FFFFFF" d="M508.506-298.35c0-2.467,0.512-4.833,1.445-7.038h-67.823c-0.933,2.205-1.444,4.571-1.444,7.038
			c0,2.466,0.513,4.832,1.444,7.037h67.823C509.018-293.518,508.506-295.884,508.506-298.35z"/>
		<g>
			
				<path fill="#E2E8F5" stroke="#58595B" stroke-width="4" stroke-linecap="round" stroke-linejoin="round" stroke-miterlimit="10" d="
				M515.591-312.467h-78.846c-1.099,3.483-1.703,7.222-1.703,11.117s0.604,7.633,1.703,11.116h78.846"/>
			<path fill="none" stroke="#58595B" stroke-width="2" stroke-linecap="round" stroke-linejoin="round" stroke-miterlimit="10" d="
				M515.591-290.233c-1.099-3.483-1.702-7.221-1.702-11.116s0.604-7.634,1.702-11.117"/>
			
				<line fill="none" stroke="#58595B" stroke-width="4" stroke-linecap="round" stroke-linejoin="round" stroke-miterlimit="10" x1="515.591" y1="-290.233" x2="517.957" y2="-290.233"/>
			
				<line fill="none" stroke="#58595B" stroke-width="4" stroke-linecap="round" stroke-linejoin="round" stroke-miterlimit="10" x1="517.957" y1="-312.467" x2="515.591" y2="-312.467"/>
		</g>
	</g>
</g>
<g id="Layer_4">
	<g>
		<path fill="#FBE3D5" d="M347-421c-5.5,0-10-8.1-10-18v-19c0-9.9-5.4-18-12-18s-12,8.1-12,18v19c0,9.9-4.5,18-10,18s-10,8.1-10,18
			v14c0,9.9,8.1,18,18,18h28c9.9,0,18-8.1,18-18v-14C357-412.9,352.5-421,347-421z"/>
		<path fill="none" stroke="#58595B" stroke-width="4" stroke-miterlimit="10" d="M347-421c-5.5,0-10-8.1-10-18v-19
			c0-9.9-5.4-18-12-18s-12,8.1-12,18v19c0,9.9-4.5,18-10,18s-10,8.1-10,18v14c0,9.9,8.1,18,18,18h28c9.9,0,18-8.1,18-18v-14
			C357-412.9,352.5-421,347-421z"/>
	</g>
	<path fill="#8FC5E8" stroke="#58595B" stroke-width="4" stroke-miterlimit="10" d="M361-421h-3l-16-11l-17,31l-15.957-31l-17,11
		H289c-19.8,0-36,16.2-36,36v38c0,19.8,16.2,36,36,36h72c19.8,0,36-16.2,36-36v-38C397-404.8,380.8-421,361-421z"/>
	<line fill="none" stroke="#58595B" stroke-width="4" stroke-miterlimit="10" x1="377" y1="-347" x2="377" y2="-385"/>
	<line fill="none" stroke="#58595B" stroke-width="4" stroke-miterlimit="10" x1="273" y1="-385" x2="273" y2="-347"/>
	<polygon fill="#43729E" stroke="#58595B" stroke-width="2" stroke-miterlimit="10" points="344,-332.829 306,-332.829 
		318,-388.171 332,-388.171 	"/>
	<g>
		<path fill="#43729E" d="M335.009-390.699c-0.555,2.128-2.809,3.87-5.009,3.87h-10c-2.2,0-4.454-1.742-5.009-3.87l-1.982-7.602
			c-0.555-2.128,0.791-3.87,2.991-3.87h18c2.2,0,3.546,1.742,2.991,3.87L335.009-390.699z"/>
		<path fill="none" stroke="#58595B" stroke-width="2" stroke-miterlimit="10" d="M335.009-390.699
			c-0.555,2.128-2.809,3.87-5.009,3.87h-10c-2.2,0-4.454-1.742-5.009-3.87l-1.982-7.602c-0.555-2.128,0.791-3.87,2.991-3.87h18
			c2.2,0,3.546,1.742,2.991,3.87L335.009-390.699z"/>
	</g>
	<g>
		<polygon fill="#BBD9F0" stroke="#58595B" stroke-width="2" stroke-linejoin="round" stroke-miterlimit="10" points="342,-431 
			325,-400 348.471,-388.164 358,-420 		"/>
		<polygon fill="#BBD9F0" stroke="#58595B" stroke-width="2" stroke-linejoin="round" stroke-miterlimit="10" points="309.043,-431 
			325.043,-400 301.572,-388.164 292.043,-420 		"/>
	</g>
</g>
<g id="Layer_2">
	<path fill="#FBE3D5" d="M393-508.5c0,11.322-2.82,17.5-10,17.5s-12-5.178-12-16.5s11.157-15.5,14-15.5
		C387.844-523,393-519.822,393-508.5z"/>
	<g>
		<g>
			<path fill="#F3F4F5" d="M415.608-257.348c0,4.95-4.051,9-9,9H241.348c-4.949,0-9-4.05-9-9v-90.696c0-4.95,4.051-9,9-9h165.262
				c4.949,0,9,4.05,9,9L415.608-257.348L415.608-257.348z"/>
			<path fill="none" stroke="#58595B" stroke-width="4" stroke-miterlimit="10" d="M415.608-257.348c0,4.95-4.051,9-9,9H241.348
				c-4.949,0-9-4.05-9-9v-90.696c0-4.95,4.051-9,9-9h165.262c4.949,0,9,4.05,9,9L415.608-257.348L415.608-257.348z"/>
		</g>
		<g>
			<path fill="#E5E8EB" d="M416.143-242.312c-0.294,2.18-2.334,3.964-4.533,3.964H236.348c-2.199,0-3.76-1.784-3.466-3.964
				l0.279-2.072c0.294-2.18,2.334-3.964,4.534-3.964h175.261c2.2,0,3.76,1.784,3.466,3.964L416.143-242.312z"/>
			<path fill="none" stroke="#58595B" stroke-width="4" stroke-miterlimit="10" d="M416.143-242.312
				c-0.294,2.18-2.334,3.964-4.533,3.964H236.348c-2.199,0-3.76-1.784-3.466-3.964l0.279-2.072c0.294-2.18,2.334-3.964,4.534-3.964
				h175.261c2.2,0,3.76,1.784,3.466,3.964L416.143-242.312z"/>
		</g>
	</g>
	<path fill="#E2C5B6" d="M380.348-516.625c0,58.047-39.145,69.992-61.22,69.992s-48.606-13.945-48.606-71.992
		s24.139-70.687,53.913-70.687C354.21-589.312,380.348-574.672,380.348-516.625z"/>
	<path fill="#FBE3D5" d="M382.348-522.443c0,58.047-37.145,69.687-59.22,69.687s-50.606-12.64-50.606-70.687
		c0-58.046,24.139-70.686,53.913-70.686C356.21-594.129,382.348-580.49,382.348-522.443z"/>
	<g>
		<path fill="#E2C5B6" stroke="#58595B" stroke-width="4" stroke-linecap="round" stroke-miterlimit="10" d="M331.673-482.017
			c0.754,4.87-1.73,9.856-6.416,12.063c-4.79,2.258-10.356,0.892-13.605-2.985"/>
		<path fill="none" stroke="#58595B" stroke-width="4" stroke-linecap="round" stroke-miterlimit="10" d="M334.192-488.26
			c-4.986,11.541-18.384,16.854-29.925,11.867"/>
	</g>
	<circle fill="#58595B" cx="293.475" cy="-518.428" r="5.99"/>
	<circle fill="#58595B" cx="340.604" cy="-516.428" r="5.99"/>
	<path fill="none" stroke="#58595B" stroke-width="4" stroke-linecap="round" stroke-linejoin="round" stroke-miterlimit="10" d="
		M307.387-509.117c-0.379,4.754-7.004,7.751-7.229,10.859c-0.226,3.107,8.387,4.791,8.387,4.791"/>
	<path fill="none" stroke="#58595B" stroke-width="4" stroke-linejoin="round" stroke-miterlimit="10" d="M385-524
		c-1,0-3.249-0.344-5.726,0.979c-1.468-53.44-25.012-65.291-53.841-65.291c-29.774,0-53.912,12.64-53.912,70.687
		s26.53,71.992,48.605,71.992c18.648,0,48.05-6.953,56.729-45.039c2.415,0.727,3.817,0.672,6.144,0.672c7.18,0,10-8.178,10-19.5
		S387.844-524,385-524z"/>
	<path fill="#C3996B" stroke="#58595B" stroke-width="4" stroke-miterlimit="10" d="M383.927-524.09
		c-5.259,1.314-9.532,3.944-12.818,8.875c-3.287-17.75-20.121-36.433-18.079-49.635c-21.625,19.34-63.771,24.325-82.506,18.079
		c-18.414-6.138-25.312-26.954-21.695-42.403c14.464,13.148,35.219-13.386,65.085-22.352c29.866-8.966,48.649-2.302,61.087,14.526
		C401.349-584.244,383.598-529.349,383.927-524.09z"/>
	<path fill="none" stroke="#CDAA82" stroke-width="4" stroke-linecap="round" stroke-miterlimit="10" d="M370.643-588
		c11.029,5.34,9.459,27.194,6.99,42.608 M258.312-575.587c9.703-0.159,18.994-5.753,29.729-12.216
		c8.564-5.156,18.271-11,28.746-14.146c7.9-2.372,15.082-3.575,21.342-3.575"/>
	<path fill="#58595B" d="M311.84-300.344c0.203-1.078,0.373-2.127,0.607-3.16c0.17-0.75,0.381-1.495,0.65-2.213
		c0.688-1.826,2.083-2.771,3.988-2.74c1.497,0.024,2.999,0.252,4.479,0.501c3.188,0.538,6.346,0.541,9.515-0.188
		c1.165-0.268,2.388-0.357,3.588-0.378c1.724-0.028,2.838,0.937,3.331,2.536c0.422,1.366,0.762,2.762,1.051,4.161
		c0.897,4.354,1.792,8.706,2.61,13.074c0.364,1.944,0.662,3.917,0.774,5.89c0.122,2.088-0.939,3.455-3.005,3.876
		c-1.535,0.312-3.133,0.405-4.705,0.425c-4.376,0.055-8.755,0.062-13.132,0.003c-2.864-0.04-5.728-0.226-8.591-0.36
		c-0.398-0.02-0.801-0.105-1.189-0.205c-1.989-0.503-2.999-1.629-2.954-3.684c0.036-1.715,0.271-3.439,0.573-5.133
		c0.564-3.145,1.244-6.268,1.87-9.4c0.059-0.286,0.071-0.582,0.112-0.938c-1.102-0.105-2.187-0.172-3.262-0.318
		c-1.703-0.229-3.285-0.784-4.601-1.945c-2.19-1.934-2.647-3.942-1.506-6.594c-1.558-3.208-1.353-5.937,2.995-7.798
		c-0.051-1.691,0.669-3.105,1.983-4.18c0.615-0.504,1.315-0.979,2.059-1.241c3.775-1.326,7.578-2.596,11.539-3.248
		c3.127-0.516,6.289-0.672,9.456-0.537c0.799,0.033,1.595,0.243,2.382,0.419c3.26,0.731,6.512,1.49,9.771,2.218
		c2.966,0.662,4.648,2.545,5.504,5.405c0.381,1.281,0.654,2.466,0.046,3.761c-0.987,0.715-2.181,0.979-3.378,1.115
		c-2.626,0.301-5.11-0.168-7.438-1.485c-1.404-0.793-2.229-1.796-1.654-3.71c0.055-0.068,0.252-0.326,0.404-0.523
		c-0.496-2.242-2.242-2.783-4.131-3.07c-3.812-0.578-7.621-0.563-11.396,0.254c-1.022,0.221-2.026,0.656-2.961,1.145
		c-0.857,0.449-1.514,1.17-1.604,2.156c0.479,1.092,0.928,2.121,1.354,3.1c-2.637,2.225-9.356,3.303-11.901,1.969
		c-0.087-0.385-0.181-0.804-0.272-1.226c-1.833,0.553-2.318,2.087-1.283,4.134c1.231-0.704,2.576-1.104,3.987-0.862
		c0.957,0.164,1.971,0.404,2.791,0.893c1.742,1.038,1.73,3.017,0.023,4.138c-1.701,1.119-3.486,0.977-5.226,0.047
		c-0.578-0.309-1.091-0.736-1.674-1.139c-0.426,0.393-0.291,0.854-0.152,1.299c0.48,1.551,1.555,2.545,3.017,3.159
		C307.768-300.322,309.979-300.078,311.84-300.344z M304.668-306.951c1.671,1.958,4.261,2.175,5.075,0.478
		C308.629-307.793,306.58-308.01,304.668-306.951z"/>
</g>
<g id="Layer_8">
	<path fill="none" stroke="#58595B" stroke-width="4" stroke-miterlimit="10" d="M342.689-469.818
		c14.311-4.629,33.505-26.146,38.167-36.854"/>
	<circle fill="#58595B" cx="342.689" cy="-469.818" r="5.244"/>
	<ellipse fill="#58595B" cx="380.856" cy="-505.945" rx="7.378" ry="10.682"/>
	<path fill="none" stroke="#58595B" stroke-width="6" stroke-miterlimit="10" d="M380.856-505c0,0-7.188-19.888-3.856-22.225
		c3.33-2.338,5.348,0.467,5.348,3.252"/>
</g>
<g id="Layer_7">
	<path fill="#FCEDE4" stroke="#58595B" stroke-width="4" stroke-miterlimit="10" d="M9-437.5L21.5-424l10.5-8l-7.5-14.5
		c0,0,4.183-26.496-0.317-33.996S6.276-487.68,1.776-485.18c-3.053,1.696-5.963,26.478-11.895,38.558
		c-10.062-5.776-13.993,1.256-11.259,4.472C-12.877-432.149,2.466-436.574,9-437.5z"/>
	<g>
		<g>
			<path fill="#F1F2F2" d="M21.085-471.26c2.333,2.334,2.333,6.152,0,8.485L1.151-442.838c-2.333,2.333-6.152,2.333-8.485,0
				l-45.142-45.143c-2.333-2.333-2.333-6.151,0-8.484l19.936-19.936c2.333-2.334,6.152-2.334,8.485,0L21.085-471.26z"/>
			<path fill="none" stroke="#58595B" stroke-width="2" stroke-miterlimit="10" d="M21.085-471.26c2.333,2.334,2.333,6.152,0,8.485
				L1.151-442.838c-2.333,2.333-6.152,2.333-8.485,0l-45.142-45.143c-2.333-2.333-2.333-6.151,0-8.484l19.936-19.936
				c2.333-2.334,6.152-2.334,8.485,0L21.085-471.26z"/>
		</g>
		<g>
			<path fill="#43729E" d="M9.771-475.502c0.778,0.777,0.778,2.05,0,2.828L-8.75-454.152c-0.778,0.777-2.05,0.777-2.828,0
				l-40.191-40.191c-0.778-0.778-0.778-2.051,0-2.828l18.521-18.521c0.778-0.778,2.05-0.778,2.828,0L9.771-475.502z"/>
			<path fill="none" stroke="#58595B" stroke-width="2" stroke-miterlimit="10" d="M9.771-475.502c0.778,0.777,0.778,2.05,0,2.828
				L-8.75-454.152c-0.778,0.777-2.05,0.777-2.828,0l-40.191-40.191c-0.778-0.778-0.778-2.051,0-2.828l18.521-18.521
				c0.778-0.778,2.05-0.778,2.828,0L9.771-475.502z"/>
		</g>
		<circle fill="#58595B" cx="5.78" cy="-458.146" r="3.689"/>
	</g>
	<path fill="#FCEDE4" stroke="#58595B" stroke-width="4" stroke-miterlimit="10" d="M17.419-484.779
		c-4.5-7.5-13.987-7.322-18.407-4.683c-5.654,3.376-2.027,8.786,3.007,8.18c5.034-0.606,8.167-1.493,10.115,2.554"/>
	<path fill="#FCEDE4" stroke="#58595B" stroke-width="2" stroke-miterlimit="10" d="M23.183-480.496
		c-4.5-7.5-11.833-6.016-16.73-4.428c-6.264,2.031-2.018,6.801,3.016,6.195c5.034-0.606,5.149,1.002,8.429,4.281"/>
</g>
<g id="Layer_6">
	<g>
		<path fill="#FCEDE4" d="M-76.695-421c5.5,0,10-8.1,10-18v-19c0-9.9,5.4-18,12-18c6.6,0,12,8.1,12,18v19c0,9.9,4.5,18,10,18
			s10,8.1,10,18v14c0,9.9-8.1,18-18,18h-28c-9.9,0-18-8.1-18-18v-14C-86.695-412.9-82.195-421-76.695-421z"/>
		<path fill="none" stroke="#58595B" stroke-width="4" stroke-miterlimit="10" d="M-76.695-421c5.5,0,10-8.1,10-18v-19
			c0-9.9,5.4-18,12-18c6.6,0,12,8.1,12,18v19c0,9.9,4.5,18,10,18s10,8.1,10,18v14c0,9.9-8.1,18-18,18h-28c-9.9,0-18-8.1-18-18v-14
			C-86.695-412.9-82.195-421-76.695-421z"/>
	</g>
	<path fill="#E7E6D4" stroke="#58595B" stroke-width="2" stroke-miterlimit="10" d="M-33.71-399.328
		c-5.431,5.26-12.828,8.503-20.985,8.503c-8.157,0-15.554-3.243-20.985-8.503h-19.531v42.314h81.033v-42.314H-33.71z"/>
	<path fill="#C8DE92" stroke="#58595B" stroke-width="4" stroke-linejoin="round" stroke-miterlimit="10" d="M-90.695-421h3l7-2
		l26,50l24.957-50l8,2h3.043c19.8,0,36,17.2,16,37v37c20,19.8,3.8,36-16,36h-72c-19.8,0-36-16.2-36-36v-38
		C-126.695-404.8-110.495-421-90.695-421z"/>
	<path fill="#D2E4A6" stroke="#58595B" stroke-width="2" stroke-linejoin="round" stroke-miterlimit="10" d="M-54.695-372l-26-50
		l-7,2c0,0-12.165,23.393-5.919,32.829c6.246,9.436,19.459,7.827,19.459,7.827s-1.171,5.128,4.054,7.344S-54.695-372-54.695-372z"/>
	<path fill="#D2E4A6" stroke="#58595B" stroke-width="2" stroke-linejoin="round" stroke-miterlimit="10" d="M-54.695-372l26-50l7,2
		c0,0,12.165,23.393,5.919,32.829s-19.459,7.827-19.459,7.827s1.171,5.128-4.054,7.344S-54.695-372-54.695-372z"/>
	
		<line fill="none" stroke="#58595B" stroke-width="4" stroke-linejoin="round" stroke-miterlimit="10" x1="-54.695" y1="-373" x2="-54.695" y2="-311"/>
	
		<path fill="#C8DE92" stroke="#58595B" stroke-width="4" stroke-linecap="round" stroke-linejoin="round" stroke-miterlimit="10" d="
		M-18.695-421c27.77,0,31.115,20.307,36.48,25.672c0-11.602-2.332-28.896-4.014-34.997c2.691-4.657,11.336-11.577,16.132-10.432
		c5.334,13.567,18.6,57.707,2.896,74.876C20.509-352.442-3.217-384-3.217-384"/>
	
		<line fill="none" stroke="#58595B" stroke-width="4" stroke-linejoin="round" stroke-miterlimit="10" x1="-106.695" y1="-347" x2="-106.695" y2="-385"/>
	
		<path fill="#C8DE92" stroke="#58595B" stroke-width="4" stroke-linecap="round" stroke-linejoin="round" stroke-miterlimit="10" d="
		M17.815-384.171c0,0,0.207-6.185-0.03-11.157"/>
</g>
<g id="Layer_5">
	<path fill="#C36F69" stroke="#58595B" stroke-width="4" stroke-miterlimit="10" d="M-90.695-472.833c0,0-30.389,1.86-37.737-45.14
		c-7.349-47,11.042-89.239,38.737-87.633"/>
	<path fill="none" stroke="#CC877F" stroke-width="4" stroke-miterlimit="10" d="M-121.157-549.655
		c2.673-26.403,14.992-45.984,31.462-44.979"/>
	<path fill="#FCEDE4" d="M-115.695-509.5c0,11.322,2.82,17.5,10,17.5c7.18,0,12-5.178,12-16.5s-11.157-15.5-14-15.5
		C-110.539-524-115.695-520.822-115.695-509.5z"/>
	<path fill="#ECDAD0" d="M-101.043-518.625c0,58.047,41.811,70.596,68.926,71.992c9.076,0.468,38.9-13.945,38.9-71.992
		s-24.138-70.687-53.913-70.687S-101.043-576.672-101.043-518.625z"/>
	<path fill="#FCEDE4" d="M-102.948-519.555c0,58.047,56.814,66.798,68.125,66.798c11.311,0,39.606-12.64,39.606-70.687
		c0-58.046-24.138-70.686-53.913-70.686S-102.948-577.602-102.948-519.555z"/>
	<path fill="#FBE4D5" d="M4.783-504.646c-6.984,0-12.646,5.662-12.646,12.646c0,5.676,3.738,10.477,8.886,12.078
		c2.396-6.863,4.217-15.015,5.122-24.648C5.698-504.618,5.244-504.646,4.783-504.646z"/>
	<g>
		<path fill="#E2C5B6" stroke="#58595B" stroke-width="4" stroke-linecap="round" stroke-miterlimit="10" d="M-46.317-472.926
			c1.932,4.534,6.676,7.455,11.818,6.857c5.261-0.613,9.268-4.712,9.979-9.721"/>
		<path fill="none" stroke="#58595B" stroke-width="4" stroke-linecap="round" stroke-miterlimit="10" d="M-51.753-476.897
			c10.328,7.167,24.511,4.606,31.678-5.723"/>
	</g>
	<circle fill="#58595B" cx="-16.169" cy="-516.428" r="5.99"/>
	<circle fill="#58595B" cx="-63.3" cy="-513.428" r="5.99"/>
	<path fill="none" stroke="#58595B" stroke-width="4" stroke-linecap="round" stroke-linejoin="round" stroke-miterlimit="10" d="
		M-30.082-509.117c0.379,4.754,4.004,7.751,4.23,10.859c0.226,3.107-5.387,4.791-5.387,4.791"/>
	<path fill="none" stroke="#58595B" stroke-width="4" stroke-miterlimit="10" d="M-107.695-524c1,0,3.249-0.344,5.726,0.979
		c1.467-53.44,25.011-65.291,53.84-65.291c29.775,0,53.913,12.64,53.913,70.687s-29.224,71.992-38.312,71.992
		c-7.678,0-58.344-9.953-67.022-48.039c-1.747,1.119-3.818,1.672-6.144,1.672c-7.18,0-10-6.178-10-17.5S-110.539-524-107.695-524z"
		/>
	<path fill="#C36F69" stroke="#58595B" stroke-width="4" stroke-miterlimit="10" d="M-106.622-524.09
		c5.259,1.314,9.532,3.944,12.819,8.875c3.287-17.75,15.924-36.452,18.079-49.635c12.88,22.208,57.151,28.679,80.154,25.546
		c0.57,4.824,0.836,7.372,1.353,13.758c28.422-43.707-12.524-77.014-42.391-85.98c-29.867-8.966-45.021-0.289-53.088,5.92"/>
	<path fill="none" stroke="#CC877F" stroke-width="4" stroke-miterlimit="10" d="M3.081-549.213l1.852-0.252
		c0.899-5.769,0.352-11.401-1.648-16.857c-6.447-17.592-26.688-30.8-42.768-35.627c-8.229-2.471-15.065-3.404-20.725-3.404"/>
	<g>
		<g>
			<path fill="#E5E8EB" d="M-145.304-257.348c0,4.95,4.05,9,9,9H28.957c4.95,0,9-4.05,9-9v-90.696c0-4.95-4.05-9-9-9h-165.261
				c-4.95,0-9,4.05-9,9V-257.348z"/>
			<path fill="none" stroke="#58595B" stroke-width="4" stroke-miterlimit="10" d="M-145.304-257.348c0,4.95,4.05,9,9,9H28.957
				c4.95,0,9-4.05,9-9v-90.696c0-4.95-4.05-9-9-9h-165.261c-4.95,0-9,4.05-9,9V-257.348z"/>
		</g>
		<g>
			<path fill="#B8BBBE" d="M-145.838-242.312c0.294,2.18,2.334,3.964,4.534,3.964H33.957c2.2,0,3.76-1.784,3.466-3.964l-0.279-2.072
				c-0.294-2.18-2.334-3.964-4.534-3.964h-175.261c-2.2,0-3.76,1.784-3.466,3.964L-145.838-242.312z"/>
			<path fill="none" stroke="#58595B" stroke-width="4" stroke-miterlimit="10" d="M-145.838-242.312
				c0.294,2.18,2.334,3.964,4.534,3.964H33.957c2.2,0,3.76-1.784,3.466-3.964l-0.279-2.072c-0.294-2.18-2.334-3.964-4.534-3.964
				h-175.261c-2.2,0-3.76,1.784-3.466,3.964L-145.838-242.312z"/>
		</g>
	</g>
	<circle fill="#FBE4D5" cx="-74.049" cy="-488.646" r="12.646"/>
	
		<path fill="none" stroke="#58595B" stroke-width="4" stroke-linecap="round" stroke-linejoin="round" stroke-miterlimit="10" stroke-dasharray="2,8" d="
		M-32.996-302.695c0,11.42-9.257,20.677-20.677,20.677s-20.678-9.257-20.678-20.677c0-11.42,9.257-20.678,20.678-20.678"/>
	<circle fill="#58595B" cx="-53.673" cy="-302.695" r="15.136"/>
</g>
</svg>
