<?xml version="1.0" encoding="utf-8"?>
<!-- Generator: Adobe Illustrator 16.0.0, SVG Export Plug-In . SVG Version: 6.00 Build 0)  -->
<!DOCTYPE svg PUBLIC "-//W3C//DTD SVG 1.1//EN" "http://www.w3.org/Graphics/SVG/1.1/DTD/svg11.dtd">
<svg version="1.1" xmlns="http://www.w3.org/2000/svg" xmlns:xlink="http://www.w3.org/1999/xlink" x="0px" y="0px" width="301px"
	 height="301px" viewBox="0 0 301 301" enable-background="new 0 0 301 301" xml:space="preserve">
<g id="background" display="none">
	<g display="inline">
		<rect x="0.5" y="0.5" fill="#E6E7E8" stroke="#F3F3F3" stroke-miterlimit="10" width="300" height="300"/>
	</g>
</g>
<g id="_x30_1">
</g>
<g id="_x30_2">
</g>
<g id="_x30_3">
</g>
<g id="_x30_4">
	<g>
		<path fill="#FFF1BA" d="M124.593,101.39c-0.455,0.06-0.91,0.121-1.387,0.168c-14.618,1.453-18.655-11.878-31.623-4.977
			c-12.968,6.901-3.864,18.893-13.997,29.528c-7.088,7.438-19.789,0.037-22.766,9.87c-2.979,9.833,11.883,10.851,13.492,20.998
			c1.744,11.003-12.266,16.345-6.242,25.716s21.419-1.604,28.313,7.145c5.305,6.732-8.773,19.328-2.671,25.346
			c6.103,6.017,14.333-7.313,22.447-4.554c11.332,3.854,8.64,19.597,20.609,19.728c11.123,0.121,11.2-15.95,20.715-19.18
			C157.098,162.338,128.268,138.371,124.593,101.39z"/>
		<path fill="#DFE8F6" d="M231.804,136.295c-2.614-11.732,5.363-20.143-5.519-25.249c-10.597-4.973-15.809,8.485-27.131,4.452
			C179.94,108.653,184.21,92.618,164.137,89c-19.602-3.533-20.608,9.879-39.544,12.389c3.675,36.981,32.505,60.948,26.892,109.788
			c0.723-0.246,1.495-0.426,2.337-0.51c16.501-1.65,19.097,16.83,35.414,13.869c16.316-2.959,11.528-14.448,25.117-23.953
			c6.662-4.66,15.232-0.515,14.751-8.631c-0.481-8.117-22.804-10.593-20.556-18.406c3.335-11.592,24.206-2.932,30.058-13.48
			C244.457,149.52,234.427,148.069,231.804,136.295z"/>
	</g>
	
		<path fill="none" stroke="#595A5C" stroke-width="1.25" stroke-linecap="round" stroke-miterlimit="10" stroke-dasharray="3.75,3.75" d="
		M124.211,94.646c0.527,43.376,37.192,67.523,25.814,125.959"/>
	<g>
		<g>
			<path fill="none" stroke="#595A5C" stroke-width="2" stroke-linecap="round" stroke-miterlimit="10" d="M252.005,166.951
				c-5.029,52.344-49.132,93.271-102.794,93.271c-51.896,0-94.852-38.279-102.172-88.143"/>
			<g>
				<polygon fill="#595A5C" points="50.77,172.659 46.416,166.949 43.647,173.574 				"/>
			</g>
		</g>
	</g>
	<g>
		<g>
			<g>
				<path fill="none" stroke="#595A5C" stroke-width="2" stroke-linecap="round" stroke-miterlimit="10" d="M208.3,65.513
					c7.515,5.251,14.298,11.477,20.166,18.494"/>
				<g>
					<polygon fill="#595A5C" points="207.146,69.109 203.992,62.66 211.154,63.151 					"/>
				</g>
				<g>
					<polygon fill="#595A5C" points="224.981,85.465 231.68,88.05 230.57,80.957 					"/>
				</g>
			</g>
		</g>
		<g>
			<g>
				<path fill="none" stroke="#595A5C" stroke-width="2" stroke-linecap="round" stroke-miterlimit="10" d="M69.959,84.004
					c5.862-7.009,12.638-13.229,20.143-18.477"/>
				<g>
					<polygon fill="#595A5C" points="73.441,85.464 66.743,88.049 67.854,80.956 					"/>
				</g>
				<g>
					<polygon fill="#595A5C" points="91.252,69.126 94.404,62.676 87.242,63.17 					"/>
				</g>
			</g>
		</g>
	</g>
	<g>
		<g>
			<path fill="#FFFFFF" stroke="#595A5C" stroke-width="2" stroke-miterlimit="10" d="M41.217,133.607
				c1.289,0,2.344-3.531,2.344-6.625h5.625c0,3.094,1.055,6.625,2.344,6.625h1.758v11.509H40.028v-11.478L41.217,133.607z"/>
		</g>
		<path fill="none" stroke="#595A5C" stroke-linejoin="round" stroke-miterlimit="10" d="M48.652,140.304
			c-0.715,0.243-1.481,0.375-2.279,0.375c-0.838,0-1.642-0.146-2.388-0.414"/>
		<path fill="#C8DE8E" stroke="#595A5C" stroke-width="2" stroke-linejoin="round" stroke-miterlimit="10" d="M29.498,151.951
			v-9.907c0-4.641,3.797-8.438,8.438-8.438h0.703l1.641-0.469l6.094,11.719l5.852-11.719l1.875,0.469h0.711
			c4.641,0,8.438,4.031,8.25,8.672v9.672"/>
		<path fill="#D2E5A3" stroke="#595A5C" stroke-linejoin="round" stroke-miterlimit="10" d="M46.373,145.091l-6.094-11.719
			l-1.641,0.469c0,0-2.85,5.482-1.385,7.693c1.461,2.212,4.559,1.836,4.559,1.836s-0.273,1.201,0.951,1.721
			C43.988,145.61,46.373,145.091,46.373,145.091z"/>
		<path fill="#D2E5A3" stroke="#595A5C" stroke-linejoin="round" stroke-miterlimit="10" d="M46.373,145.091l6.094-11.719
			l1.641,0.469c0,0,2.852,5.482,1.389,7.693c-1.465,2.212-4.561,1.836-4.561,1.836s0.275,1.201-0.949,1.721
			C48.762,145.61,46.373,145.091,46.373,145.091z"/>
		<path fill="none" d="M32.076,112.865c0,2.652,0.662,4.102,2.344,4.102c1.684,0,2.813-1.215,2.813-3.867
			c0-2.654-2.614-3.633-3.281-3.633C33.287,109.466,32.076,110.21,32.076,112.865z"/>
		<path fill="#FFFFFF" stroke="#595A5C" stroke-width="2" stroke-miterlimit="10" d="M61.547,112.103
			c6.662-10.244-4.934-21.05-11.934-23.15c-7-2.102-10.552-0.068-12.443,1.387h1.5c-6.49-0.376-10.801,9.523-9.078,20.539
			c1.097,7.014,4.382,9.385,6.625,10.182"/>
		<path fill="#FFFFFF" stroke="#595A5C" stroke-width="2" stroke-miterlimit="10" d="M33.569,111.494
			c0.771-4.16,6.371-8.512,6.876-11.602c3.018,5.205,12.836,6.721,18.227,5.986c0,0,0.313,2.376,0.353,3.694
			c0.229-0.072,0.42-0.106,0.544-0.106c0.664,0,1.875,0.744,1.875,3.398c0,2.652-0.662,4.102-2.344,4.102
			c-0.276,0-0.532-0.046-0.776-0.112c-2.308,8.691-9.475,10.979-11.255,10.979c-1.799,0-10.674-2.333-12.707-11.26
			c-0.41,0.262-0.896,0.393-1.441,0.393c-1.682,0-2.344-1.449-2.344-4.102c0-2.654,1.211-3.398,1.875-3.398
			c0.234,0,0.762-0.08,1.342,0.229"/>
	</g>
	<g>
		<path fill="none" stroke="#595A5C" stroke-width="2" stroke-miterlimit="10" d="M255.882,131.298
			c-0.451-1.027-0.733-2.479-0.733-4.079"/>
		<path fill="none" stroke="#595A5C" stroke-width="2" stroke-miterlimit="10" d="M249.523,127.219c0,1.481-0.242,2.835-0.636,3.843
			"/>
		<path fill="#FFFFFF" stroke="#595A5C" stroke-width="2" stroke-linejoin="round" stroke-miterlimit="10" d="M269.211,151.95
			v-10.669c0-4.641-3.797-8.438-8.438-8.438h-0.703l-3.75-2.578l-3.984,7.266l-3.74-7.266l-3.984,2.578h-0.713
			c-4.641,0-8.438,3.797-8.438,8.438v10.669"/>
		<polyline fill="#8DC4EA" stroke="#595A5C" stroke-width="0.625" stroke-miterlimit="10" points="248.229,151.95 250.695,140.853 
			253.977,140.853 256.442,151.95 		"/>
		<path fill="#8DC4EA" stroke="#595A5C" stroke-width="0.625" stroke-miterlimit="10" d="M254.912,139.065l-0.151,0.577
			c-0.174,0.666-0.878,1.21-1.565,1.21h-1.719c-0.688,0-1.392-0.544-1.565-1.21l-0.149-0.573l2.574-1.304L254.912,139.065z"/>
		<g>
			<polygon fill="none" stroke="#595A5C" stroke-linejoin="round" stroke-miterlimit="10" points="256.32,130.5 252.336,137.766 
				257.837,140.54 260.07,133.078 			"/>
			<polygon fill="none" stroke="#595A5C" stroke-linejoin="round" stroke-miterlimit="10" points="248.596,130.5 252.346,137.766 
				246.845,140.54 244.611,133.078 			"/>
		</g>
		<path fill="#FFFFFF" stroke="#595A5C" stroke-width="2" stroke-miterlimit="10" d="M242.166,103.802
			c-0.193,1.289-2.313,3.719-2.35,5.303c-0.305-0.112-0.564-0.167-0.718-0.167c-0.666,0-1.875,0.745-1.875,3.398
			s0.66,4.102,2.344,4.102c0.301,0,0.576-0.053,0.838-0.132c1.857,8.514,7.643,10.766,11.931,10.766
			c4.37,0,10.12-1.631,12.154-10.557c0.565,0.17,0.895,0.157,1.439,0.157c1.684,0,2.344-1.917,2.344-4.57s-1.209-3.398-1.875-3.398"
			/>
		<path fill="#FFFFFF" stroke="#595A5C" stroke-width="2" stroke-miterlimit="10" d="M266.147,108.682
			c-1.233,0.309-1.235,0.925-2.005,2.08c-0.771-4.16-5.716-8.539-5.237-11.633c-5.068,4.533-14.946,5.701-19.338,4.237
			c-4.315-1.438-5.932-6.317-5.084-9.938c3.39,3.082,8.254-3.137,15.254-5.238c7-2.103,11.402-0.54,14.317,3.404
			C270.23,94.583,266.069,107.449,266.147,108.682z"/>
		<path fill="#FFFFFF" stroke="#595A5C" stroke-width="2" stroke-miterlimit="10" d="M238.104,109.42
			c-0.771-4.16-1.358-4.263-0.88-7.356"/>
		<g>
			<path fill="none" stroke="#595A5C" stroke-width="1.25" stroke-miterlimit="10" d="M257.482,121.401
				c3.354-1.084,7.852-6.128,8.945-8.637"/>
			<circle fill="#595A5C" cx="257.481" cy="121.401" r="1.229"/>
			<ellipse fill="#595A5C" cx="266.427" cy="112.935" rx="1.729" ry="2.504"/>
			<path fill="none" stroke="#595A5C" stroke-width="1.875" stroke-miterlimit="10" d="M266.428,113.156
				c0,0-1.686-4.661-0.904-5.209s1.253,0.11,1.253,0.763"/>
		</g>
	</g>
	<g>
		
			<line fill="none" stroke="#595A5C" stroke-width="3" stroke-linecap="round" stroke-linejoin="round" stroke-miterlimit="10" x1="263.498" y1="151.95" x2="274.354" y2="151.95"/>
		
			<line fill="none" stroke="#595A5C" stroke-width="3" stroke-linecap="round" stroke-linejoin="round" stroke-miterlimit="10" x1="208" y1="151.95" x2="259.979" y2="151.95"/>
		
			<line fill="none" stroke="#595A5C" stroke-width="3" stroke-linecap="round" stroke-linejoin="round" stroke-miterlimit="10" x1="278.686" y1="151.95" x2="284.719" y2="151.95"/>
		
			<line fill="none" stroke="#595A5C" stroke-width="3" stroke-linecap="round" stroke-linejoin="round" stroke-miterlimit="10" x1="289.639" y1="151.95" x2="292.867" y2="151.95"/>
	</g>
	<g>
		
			<line fill="none" stroke="#595A5C" stroke-width="3" stroke-linecap="round" stroke-linejoin="round" stroke-miterlimit="10" x1="56.258" y1="151.95" x2="35.402" y2="151.95"/>
		
			<line fill="none" stroke="#595A5C" stroke-width="3" stroke-linecap="round" stroke-linejoin="round" stroke-miterlimit="10" x1="89.212" y1="151.95" x2="59.777" y2="151.95"/>
		
			<line fill="none" stroke="#595A5C" stroke-width="3" stroke-linecap="round" stroke-linejoin="round" stroke-miterlimit="10" x1="32.812" y1="151.95" x2="25.037" y2="151.95"/>
		
			<line fill="none" stroke="#595A5C" stroke-width="3" stroke-linecap="round" stroke-linejoin="round" stroke-miterlimit="10" x1="20.117" y1="151.95" x2="6.889" y2="151.95"/>
	</g>
	<g>
		<g>
			<path fill="#BAD8F2" d="M165.866,68.413h9.003l18,15V36.494c0-6.601-5.399-12-12-12h-33.313c-6.601,0-12,5.399-12,12v5.183"/>
		</g>
		<g>
			<path fill="#FFFFFF" d="M169.616,68.413h5.253l18,15V36.494c0-6.601-5.399-12-12-12h-33.313c-6.601,0-12,5.399-12,12v32.474"/>
		</g>
		<g>
			<path fill="none" stroke="#595A5C" stroke-width="3" stroke-linecap="round" stroke-linejoin="round" stroke-miterlimit="10" d="
				M169.616,68.413h5.253l18,15V36.494c0-6.601-5.399-12-12-12h-33.313c-6.601,0-12,5.399-12,12v1.433"/>
		</g>
		<g>
			<path fill="#D2E5A3" stroke="#595A5C" stroke-width="3" stroke-linejoin="round" stroke-miterlimit="10" d="M165.866,73.595
				c0,6.601-5.399,12-12,12h-30.313l-18,15V53.676c0-6.601,5.399-12,12-12h36.313c6.601,0,12,5.399,12,12V73.595z"/>
		</g>
		<circle fill="#595A5C" cx="135.556" cy="64.926" r="2.25"/>
		<circle fill="#595A5C" cx="120.556" cy="64.926" r="2.25"/>
		<circle fill="#595A5C" cx="150.556" cy="64.926" r="2.25"/>
		
			<line fill="none" stroke="#595A5C" stroke-width="2" stroke-linecap="round" stroke-linejoin="round" stroke-miterlimit="10" x1="170.366" y1="53.676" x2="170.366" y2="61.176"/>
		<path fill="none" stroke="#595A5C" stroke-width="2" stroke-linecap="round" stroke-linejoin="round" stroke-miterlimit="10" d="
			M153.866,37.176c6.71,0,12.498,4.026,15.074,9.791"/>
		
			<line fill="none" stroke="#595A5C" stroke-width="2" stroke-linecap="round" stroke-linejoin="round" stroke-miterlimit="10" x1="146.366" y1="37.176" x2="150.555" y2="37.176"/>
		
			<line fill="none" stroke="#595A5C" stroke-width="2" stroke-linecap="round" stroke-linejoin="round" stroke-miterlimit="10" x1="174.866" y1="56.652" x2="174.866" y2="61.176"/>
		<path fill="none" stroke="#595A5C" stroke-width="2" stroke-linecap="round" stroke-linejoin="round" stroke-miterlimit="10" d="
			M161.072,33.949c8.041,2.947,13.794,10.678,13.794,19.727"/>
		
			<line fill="none" stroke="#595A5C" stroke-width="2" stroke-linecap="round" stroke-linejoin="round" stroke-miterlimit="10" x1="146.366" y1="32.676" x2="153.866" y2="32.676"/>
	</g>
	
		<polygon fill="#4272A0" stroke="#595A5C" stroke-width="2" stroke-linecap="round" stroke-linejoin="round" stroke-miterlimit="10" points="
		149.211,227.096 174.211,248.193 149.211,268.617 124.211,248.193 	"/>
	<g>
		<path fill="#FFFFFF" d="M169.211,272.04c0,1.1-0.9,2-2,2h-36c-1.1,0-2-0.9-2-2v-46c0-1.101,0.9-2,2-2h36c1.1,0,2,0.899,2,2V272.04
			z"/>
		<path fill="none" stroke="#595A5C" stroke-width="2" stroke-linecap="round" stroke-linejoin="round" stroke-miterlimit="10" d="
			M169.211,272.04c0,1.1-0.9,2-2,2h-36c-1.1,0-2-0.9-2-2v-46c0-1.101,0.9-2,2-2h36c1.1,0,2,0.899,2,2V272.04z"/>
	</g>
	
		<polygon fill="#8DC4EA" stroke="#595A5C" stroke-width="2" stroke-linecap="round" stroke-linejoin="round" stroke-miterlimit="10" points="
		174.211,275.04 124.211,275.04 124.211,248.193 149.211,263.617 174.211,248.193 	"/>
	
		<polygon fill="#8DC4EA" stroke="#595A5C" stroke-width="2" stroke-linecap="round" stroke-linejoin="round" stroke-miterlimit="10" points="
		149.211,259.942 174.211,275.04 124.211,275.04 	"/>
	<text transform="matrix(1 0 0 1 137.1094 247.9648)" fill="#595A5C" font-family="'MyriadPro-Semibold'" font-size="29.4085">@</text>
	<g>
		<g>
			<path fill="#FFFFFF" d="M88,224c0,1.1-0.9,2-2,2H60c-1.1,0-2-0.9-2-2v-36c0-1.1,0.9-2,2-2h26c1.1,0,2,0.9,2,2V224z"/>
			<path fill="none" stroke="#595A5C" stroke-width="2" stroke-linecap="round" stroke-linejoin="round" stroke-miterlimit="10" d="
				M88,224c0,1.1-0.9,2-2,2H60c-1.1,0-2-0.9-2-2v-36c0-1.1,0.9-2,2-2h26c1.1,0,2,0.9,2,2V224z"/>
		</g>
		<g>
			<path fill="#FFFFFF" d="M238,224c0,1.1-0.9,2-2,2h-26c-1.1,0-2-0.9-2-2v-36c0-1.1,0.9-2,2-2h26c1.1,0,2,0.9,2,2V224z"/>
			<path fill="none" stroke="#595A5C" stroke-width="2" stroke-linecap="round" stroke-linejoin="round" stroke-miterlimit="10" d="
				M238,224c0,1.1-0.9,2-2,2h-26c-1.1,0-2-0.9-2-2v-36c0-1.1,0.9-2,2-2h26c1.1,0,2,0.9,2,2V224z"/>
		</g>
		<g>
			<path fill="none" stroke="#595A5C" stroke-width="2" stroke-linecap="round" stroke-miterlimit="10" d="M231.183,198.874
				c0-4.392-3.56-7.949-7.949-7.949c-4.389,0-7.948,3.558-7.948,7.949c0,2.647,2.311,5.312,2.311,5.312
				c1.578,1.579,1.12,6.428,1.32,7.144c0.188,0.679,1.014,1.123,1.835,1.123c0,0,3.152,0.12,4.966-0.488
				c0.773-0.262,1.646-0.446,1.834-1.125c0.199-0.714-0.363-5.025,1.321-6.708C228.872,204.131,231.183,201.521,231.183,198.874z"/>
			<path fill="none" stroke="#595A5C" stroke-width="2" stroke-linecap="round" stroke-miterlimit="10" d="M219.023,215.39
				c0,0,6.508,0.036,8.527-1.124"/>
			<path fill="none" stroke="#595A5C" stroke-width="2" stroke-linecap="round" stroke-miterlimit="10" d="M219.023,218.326
				c0,0,6.508,0.036,8.527-1.124"/>
			<path fill="none" stroke="#595A5C" stroke-width="3" stroke-linecap="round" stroke-miterlimit="10" d="M222.418,221.145
				c0.614-0.045,1.258-0.102,1.882-0.179"/>
			<path fill="none" stroke="#595A5C" stroke-width="2" stroke-linecap="round" stroke-miterlimit="10" d="M224.701,210.996
				c0,0-0.421-8.42,0.98-9.821"/>
			<path fill="none" stroke="#595A5C" stroke-width="2" stroke-linecap="round" stroke-miterlimit="10" d="M221.897,210.996
				c0,0,0.424-8.42-0.978-9.821"/>
			<path fill="none" stroke="#595A5C" stroke-width="2" stroke-linecap="round" stroke-linejoin="round" stroke-miterlimit="10" d="
				M219.217,200.197c1.133,1.466,3.789,1.081,4.145-0.698c0.689,1.874,3.27,1.442,4.189,0.698"/>
		</g>
		<g>
			<g>
				<path fill="#FFFFFF" d="M188,202c0,1.1-0.9,2-2,2h-26c-1.1,0-2-0.9-2-2v-36c0-1.1,0.9-2,2-2h26c1.1,0,2,0.9,2,2V202z"/>
				
					<path fill="none" stroke="#595A5C" stroke-width="2" stroke-linecap="round" stroke-linejoin="round" stroke-miterlimit="10" d="
					M188,202c0,1.1-0.9,2-2,2h-26c-1.1,0-2-0.9-2-2v-36c0-1.1,0.9-2,2-2h26c1.1,0,2,0.9,2,2V202z"/>
			</g>
			<g>
				<g>
					<g>
						<path fill="none" stroke="#595A5C" stroke-width="2" stroke-miterlimit="10" d="M163.368,188.725
							c0.982,2.336,2.868,4.305,5.423,5.352c5.115,2.094,10.97-0.297,13.084-5.338c2.113-5.043-0.319-10.826-5.431-12.918
							c-3.885-1.59-8.199-0.592-10.974,2.19"/>
						<g>
							<polygon fill="#595A5C" points="169.453,180.084 162.286,175.068 163.363,181.158 							"/>
						</g>
					</g>
				</g>
				<g>
					<path fill="#595A5C" d="M171.364,187.631c-0.953,0.55-1.732,0.1-1.732-1v-4.219c0-1.1,0.779-1.549,1.732-1l3.652,2.109
						c0.953,0.551,0.953,1.45,0,2L171.364,187.631z"/>
				</g>
			</g>
		</g>
		<g>
			
				<line fill="none" stroke="#595A5C" stroke-width="2" stroke-linecap="round" stroke-linejoin="round" stroke-miterlimit="10" x1="63" y1="211" x2="72" y2="211"/>
			<g>
				<g>
					
						<line fill="none" stroke="#595A5C" stroke-width="2" stroke-linecap="round" stroke-linejoin="round" x1="73.106" y1="211" x2="73.606" y2="211"/>
					
						<line fill="none" stroke="#595A5C" stroke-width="2" stroke-linecap="round" stroke-linejoin="round" stroke-dasharray="0.8085,2.4255" x1="76.032" y1="211" x2="81.287" y2="211"/>
					
						<line fill="none" stroke="#595A5C" stroke-width="2" stroke-linecap="round" stroke-linejoin="round" x1="82.5" y1="211" x2="83" y2="211"/>
				</g>
			</g>
			<g>
				<g>
					
						<line fill="none" stroke="#595A5C" stroke-width="2" stroke-linecap="round" stroke-linejoin="round" x1="63" y1="221" x2="63.5" y2="221"/>
					
						<line fill="none" stroke="#595A5C" stroke-width="2" stroke-linecap="round" stroke-linejoin="round" stroke-dasharray="0.7778,3.1111" x1="66.611" y1="221" x2="68.944" y2="221"/>
					
						<line fill="none" stroke="#595A5C" stroke-width="2" stroke-linecap="round" stroke-linejoin="round" x1="70.5" y1="221" x2="71" y2="221"/>
				</g>
			</g>
			
				<line fill="none" stroke="#595A5C" stroke-width="2" stroke-linecap="round" stroke-linejoin="round" stroke-miterlimit="10" x1="63" y1="201" x2="83" y2="201"/>
			
				<line fill="none" stroke="#595A5C" stroke-width="2" stroke-linecap="round" stroke-linejoin="round" stroke-miterlimit="10" x1="63" y1="193" x2="73" y2="193"/>
			
				<line fill="none" stroke="#595A5C" stroke-width="2" stroke-linecap="round" stroke-linejoin="round" stroke-miterlimit="10" x1="63" y1="206" x2="83" y2="206"/>
			<g>
				<g>
					
						<line fill="none" stroke="#595A5C" stroke-width="2" stroke-linecap="round" stroke-linejoin="round" x1="63" y1="216" x2="63.5" y2="216"/>
					
						<line fill="none" stroke="#595A5C" stroke-width="2" stroke-linecap="round" stroke-linejoin="round" stroke-dasharray="1,3" x1="66.5" y1="216" x2="81" y2="216"/>
					
						<line fill="none" stroke="#595A5C" stroke-width="2" stroke-linecap="round" stroke-linejoin="round" x1="82.5" y1="216" x2="83" y2="216"/>
				</g>
			</g>
		</g>
		<g>
			<g>
				<path fill="#FFFFFF" d="M138,202c0,1.1-0.9,2-2,2h-26c-1.1,0-2-0.9-2-2v-36c0-1.1,0.9-2,2-2h26c1.1,0,2,0.9,2,2V202z"/>
				
					<path fill="none" stroke="#595A5C" stroke-width="2" stroke-linecap="round" stroke-linejoin="round" stroke-miterlimit="10" d="
					M138,202c0,1.1-0.9,2-2,2h-26c-1.1,0-2-0.9-2-2v-36c0-1.1,0.9-2,2-2h26c1.1,0,2,0.9,2,2V202z"/>
			</g>
			<g>
				
					<line fill="none" stroke="#595A5C" stroke-width="2" stroke-linecap="round" stroke-linejoin="round" stroke-miterlimit="10" x1="113" y1="188" x2="133" y2="188"/>
				
					<line fill="none" stroke="#595A5C" stroke-width="2" stroke-linecap="round" stroke-linejoin="round" stroke-miterlimit="10" x1="113" y1="198" x2="123" y2="198"/>
				
					<line fill="none" stroke="#595A5C" stroke-width="2" stroke-linecap="round" stroke-linejoin="round" stroke-miterlimit="10" x1="113" y1="178" x2="133" y2="178"/>
				
					<line fill="none" stroke="#595A5C" stroke-width="2" stroke-linecap="round" stroke-linejoin="round" stroke-miterlimit="10" x1="113" y1="171" x2="133" y2="171"/>
				
					<line fill="none" stroke="#595A5C" stroke-width="2" stroke-linecap="round" stroke-linejoin="round" stroke-miterlimit="10" x1="113" y1="183" x2="133" y2="183"/>
				
					<line fill="none" stroke="#595A5C" stroke-width="2" stroke-linecap="round" stroke-linejoin="round" stroke-miterlimit="10" x1="113" y1="193" x2="133" y2="193"/>
			</g>
		</g>
		<g>
			<g>
				<path fill="#FFFFFF" d="M88.147,190.609c0,0,0.796-0.795,1.769-1.768c0.972-0.973,2.722-0.813,3.889,0.354
					s1.326,2.917,0.354,3.889c-0.973,0.973-1.768,1.769-1.768,1.769"/>
				
					<path fill="none" stroke="#595A5C" stroke-width="2" stroke-linecap="round" stroke-linejoin="round" stroke-miterlimit="10" d="
					M88.147,190.609c0,0,0.796-0.795,1.769-1.768c0.972-0.973,2.722-0.813,3.889,0.354s1.326,2.917,0.354,3.889
					c-0.973,0.973-1.768,1.769-1.768,1.769"/>
			</g>
			
				<rect x="76.58" y="195.401" transform="matrix(0.7071 -0.7071 0.7071 0.7071 -115.5161 117.9393)" fill="#FFFFFF" stroke="#595A5C" stroke-width="2" stroke-linecap="round" stroke-linejoin="round" stroke-miterlimit="10" width="16.038" height="6.001"/>
			<g>
				
					<polygon fill="#595A5C" stroke="#595A5C" stroke-width="2" stroke-linecap="round" stroke-linejoin="round" stroke-miterlimit="10" points="
					72,211 76.069,208.838 74.162,206.931 				"/>
				
					<polygon fill="#FFFFFF" stroke="#595A5C" stroke-width="2" stroke-linecap="round" stroke-linejoin="round" stroke-miterlimit="10" points="
					76.807,201.95 74.162,206.931 76.069,208.838 81.051,206.193 				"/>
			</g>
		</g>
	</g>
</g>
<g id="_x30_5">
</g>
<g id="_x30_6">
</g>
<g id="_x30_7">
</g>
</svg>
