<?xml version="1.0" encoding="utf-8"?>
<!-- Generator: Adobe Illustrator 16.0.0, SVG Export Plug-In . SVG Version: 6.00 Build 0)  -->
<!DOCTYPE svg PUBLIC "-//W3C//DTD SVG 1.1//EN" "http://www.w3.org/Graphics/SVG/1.1/DTD/svg11.dtd">
<svg version="1.1" xmlns="http://www.w3.org/2000/svg" xmlns:xlink="http://www.w3.org/1999/xlink" x="0px" y="0px" width="301px"
	 height="301px" viewBox="0 0 301 301" enable-background="new 0 0 301 301" xml:space="preserve">
<g id="background" display="none">
	<g display="inline">
		<rect x="0.5" y="0.5" fill="#E6E7E8" stroke="#F3F3F3" stroke-miterlimit="10" width="300" height="300"/>
	</g>
</g>
<g id="_x30_1">
</g>
<g id="_x30_2">
</g>
<g id="_x30_3">
</g>
<g id="_x30_4">
</g>
<g id="_x30_5">
	<g>
		<path fill="#FFF1BA" d="M143.464,70.285c-3.282-2.606-7.133-4.386-13.176-3.647c-16.379,2-12.362,15.988-27.307,22.982
			c-9.785,4.58-18.707-6.336-25.143,2.342c-6.436,8.679,7.626,15.479,4.817,25.913c-5.342,19.846-21.052,17.214-22.471,37.718
			c-1.42,20.504,12.701,19.529,16.924,39.645c2.277,10.854-9.749,16.987-2.302,25.205c7.448,8.219,16.396-3.993,26.477,0.633
			c10.204,4.684,6.739,19.435,17.961,19.784s10.322-17.75,21.454-19.211c3.633-0.477,6.68-0.19,9.372,0.544
			C171.37,148.254,139.918,121.803,143.464,70.285z"/>
		<path fill="#F9E3D4" d="M222,141.294c-2.438-13.114,13.884-17.999,8.718-30.297s-17.109-4.23-26.588-13.615
			c-8.907-8.819-2.243-23.46-14.561-25.789c-11.989-2.267-13.684,12.013-26.172,10.934c-10.374-0.896-14.319-7.782-19.934-12.241
			c-3.546,51.518,27.906,77.969,6.607,151.907c11.257,3.069,16.238,14.047,31.168,10.617c18.5-4.25,13.396-16.289,29.313-26.632
			c8.367-5.437,17.838,1.598,20.624-7.983c2.787-9.581-15.871-14.254-13.813-24.018c1.912-9.068,20.876-5.867,22.047-15.061
			S223.693,150.405,222,141.294z"/>
	</g>
	
		<path fill="none" stroke="#595A5C" stroke-width="1.25" stroke-linecap="round" stroke-miterlimit="10" stroke-dasharray="3.75,3.75" d="
		M144.306,62.072c-7.901,57.939,29.211,83.065,4.771,163.491"/>
	<g>
		<g>
			<g>
				<path fill="none" stroke="#595A5C" stroke-width="2" stroke-linecap="round" stroke-linejoin="round" d="M251.048,99.299
					C232.464,62.331,194.196,36.963,150,36.963c-44.195,0-82.463,25.367-101.048,62.333"/>
				<g>
					<polygon fill="#595A5C" points="246.816,100.777 254.624,96.835 252.691,102.709 					"/>
				</g>
				<g>
					<polygon fill="#595A5C" points="53.183,100.778 45.375,96.834 47.308,102.709 					"/>
				</g>
			</g>
		</g>
		<g>
			<g>
				<path fill="none" stroke="#595A5C" stroke-width="2" stroke-linecap="round" stroke-linejoin="round" d="M48.951,200.701
					c18.585,36.968,56.853,62.336,101.049,62.336c45.543,0,84.79-26.938,102.691-65.746"/>
				<g>
					<polygon fill="#595A5C" points="53.183,199.222 45.375,203.166 47.308,197.291 					"/>
				</g>
			</g>
		</g>
	</g>
	<g>
		<g>
			<path fill="#FFFFFF" stroke="#595A5C" stroke-width="2" stroke-miterlimit="10" d="M42.006,163.606
				c1.289,0,2.344-3.531,2.344-6.625h5.625c0,3.094,1.055,6.625,2.344,6.625H54.6v12.538H39.447v-12.389L42.006,163.606z"/>
		</g>
		<path fill="none" stroke="#595A5C" stroke-linejoin="round" stroke-miterlimit="10" d="M49.441,170.304
			c-0.715,0.243-1.481,0.375-2.279,0.375c-0.838,0-1.642-0.146-2.388-0.414"/>
		<path fill="#C8DE8E" stroke="#595A5C" stroke-width="2" stroke-linejoin="round" stroke-miterlimit="10" d="M30.287,181.95v-9.906
			c0-4.641,3.797-8.438,8.438-8.438h0.703l1.641-0.469l6.094,11.719l5.852-11.719l1.875,0.469H55.6c4.641,0,8.438,4.031,5.25,8.672
			v9.672"/>
		<path fill="#D2E5A3" stroke="#595A5C" stroke-linejoin="round" stroke-miterlimit="10" d="M47.162,175.091l-6.094-11.719
			l-1.641,0.469c0,0-2.85,5.482-1.385,7.693c1.461,2.212,4.559,1.836,4.559,1.836s-0.273,1.201,0.951,1.721
			C44.777,175.609,47.162,175.091,47.162,175.091z"/>
		<path fill="#D2E5A3" stroke="#595A5C" stroke-linejoin="round" stroke-miterlimit="10" d="M47.162,175.091l6.094-11.719
			l1.641,0.469c0,0,2.852,5.482,1.389,7.693c-1.465,2.212-4.561,1.836-4.561,1.836s0.275,1.201-0.949,1.721
			C49.551,175.609,47.162,175.091,47.162,175.091z"/>
		<g>
			<path fill="#FDEEE4" stroke="#595A5C" stroke-width="1.25" stroke-miterlimit="10" d="M63.312,159.712l1.495,4.044l2.991-0.791
				l-0.323-3.813c0,0,3.282-5.36,2.98-7.389c-0.302-2.027-3.232-3.163-4.432-3.025c-0.813,0.095-3.666,5.2-6.034,7.284
				c-1.66-2.154-3.143-0.983-2.838-0.042C58.095,158.908,61.813,159.326,63.312,159.712z"/>
			<g>
				<g>
					<path fill="#595A5C" d="M68.776,153.052c0.395,0.953-0.062,2.056-1.015,2.45l-5.238,2.171c-0.953,0.395-2.056-0.062-2.45-1.015
						l-5.366-12.957c-0.395-0.953,0.062-2.056,1.015-2.45l5.237-2.17c0.953-0.395,2.056,0.062,2.45,1.015L68.776,153.052z"/>
					<path fill="none" stroke="#595A5C" stroke-width="0.625" stroke-miterlimit="10" d="M68.776,153.052
						c0.395,0.953-0.062,2.056-1.015,2.45l-5.238,2.171c-0.953,0.395-2.056-0.062-2.45-1.015l-5.366-12.957
						c-0.395-0.953,0.062-2.056,1.015-2.45l5.237-2.17c0.953-0.395,2.056,0.062,2.45,1.015L68.776,153.052z"/>
				</g>
				<g>
					<path fill="#FFFFFF" d="M66.827,151.408c0.132,0.317-0.021,0.685-0.338,0.816l-5.384,2.229
						c-0.317,0.132-0.685-0.021-0.816-0.338l-4.979-12.02c-0.132-0.317,0.021-0.685,0.338-0.816l5.384-2.229
						c0.317-0.132,0.685,0.021,0.816,0.338L66.827,151.408z"/>
					<path fill="none" stroke="#595A5C" stroke-width="0.625" stroke-miterlimit="10" d="M66.827,151.408
						c0.132,0.317-0.021,0.685-0.338,0.816l-5.384,2.229c-0.317,0.132-0.685-0.021-0.816-0.338l-4.979-12.02
						c-0.132-0.317,0.021-0.685,0.338-0.816l5.384-2.229c0.317-0.132,0.685,0.021,0.816,0.338L66.827,151.408z"/>
				</g>
				<circle fill="#B7BABE" cx="64.465" cy="154.953" r="0.864"/>
			</g>
			
				<path fill="#C8DE8E" stroke="#595A5C" stroke-width="2" stroke-linecap="round" stroke-linejoin="round" stroke-miterlimit="10" d="
				M57.431,163.949c6.508,0,7.292,4.76,8.55,6.018c0-2.721-1.547-7.773-1.941-9.203c0.631-1.092,2.657-1.713,3.781-1.445
				c1.25,3.181,5.359,13.525,1.679,17.549c-2.88,3.15-8.441-4.246-8.441-4.246"/>
			
				<path fill="#C8DE8E" stroke="#595A5C" stroke-width="2" stroke-linecap="round" stroke-linejoin="round" stroke-miterlimit="10" d="
				M65.987,172.582c0,0,0.048-1.451-0.007-2.615"/>
		</g>
		<path fill="#FFFFFF" stroke="#595A5C" stroke-width="2" stroke-miterlimit="10" d="M62.336,142.103
			c6.662-10.244-4.934-21.05-11.934-23.15c-7-2.102-10.552-0.068-12.443,1.387h1.5c-6.49-0.376-10.801,9.523-9.078,20.539
			c1.097,7.014,4.382,9.385,6.625,10.182"/>
		<path fill="#FFFFFF" stroke="#595A5C" stroke-width="2" stroke-miterlimit="10" d="M34.358,141.493
			c0.771-4.16,6.371-8.512,6.876-11.602c3.018,5.205,12.836,6.721,18.227,5.986c0,0,0.313,2.376,0.353,3.694
			c0.229-0.072,0.42-0.106,0.544-0.106c0.664,0,1.875,0.744,1.875,3.398c0,2.652-0.662,4.102-2.344,4.102
			c-0.276,0-0.532-0.046-0.776-0.112c-2.308,8.691-9.475,10.979-11.255,10.979c-1.799,0-10.674-2.333-12.707-11.26
			c-0.41,0.262-0.896,0.393-1.441,0.393c-1.682,0-2.344-1.449-2.344-4.102c0-2.654,1.211-3.398,1.875-3.398
			c0.234,0,0.762-0.08,1.342,0.229"/>
		<path fill="#FDEEE4" stroke="#595A5C" stroke-width="1.25" stroke-miterlimit="10" d="M69.195,149.68
			c-0.302-2.027-2.372-2.841-3.564-2.667c-1.527,0.224-1.228,1.722-0.083,2.042c1.145,0.319,1.902,0.409,1.96,1.461"/>
		<path fill="#FDEEE4" stroke="#595A5C" stroke-width="0.625" stroke-miterlimit="10" d="M70.059,151.123
			c-0.302-2.028-2.021-2.365-3.225-2.46c-1.538-0.122-1.048,1.293,0.098,1.613c1.145,0.32,1.025,0.679,1.441,1.683"/>
	</g>
	<g>
		<path fill="#FFFFFF" d="M266.105,136.228c0,7.26-5.885,13.146-13.145,13.146c-7.261,0-13.146-5.886-13.146-13.146
			s-2.353-13.146,13.146-13.146C268.457,123.082,266.105,128.968,266.105,136.228z"/>
		<g>
			<path fill="#FFFFFF" stroke="#595A5C" stroke-width="2" stroke-miterlimit="10" d="M250.313,157.219
				c0,1.481-0.242,1.835-0.636,2.843c0,0-4.365,6.559,3.284,6.559s3.71-6.322,3.71-6.322c-0.451-1.027-0.733-1.479-0.733-3.079"/>
		</g>
		<path fill="#FFFFFF" stroke="#595A5C" stroke-width="2" stroke-linejoin="round" stroke-miterlimit="10" d="M270,181.95v-12.669
			c0-4.641-3.797-8.438-8.438-8.438h-0.703l-3.75-1.578l-3.984,5.266l-3.74-5.266l-3.984,1.578h-0.713
			c-4.641,0-8.438,3.797-8.438,8.438v12.669"/>
		<polyline fill="#C36F67" stroke="#595A5C" stroke-width="0.625" stroke-miterlimit="10" points="249.019,181.95 251.484,167.853 
			254.766,167.853 257.231,181.95 		"/>
		<path fill="#C36F67" stroke="#595A5C" stroke-width="0.625" stroke-miterlimit="10" d="M255.221,166.972
			c-0.174,0.666-0.549,0.881-1.236,0.881h-1.719c-0.688,0-1.392,0.135-1.565-0.531l2.425-2.556L255.221,166.972z"/>
		<g>
			<polygon fill="none" stroke="#595A5C" stroke-linejoin="round" stroke-miterlimit="10" points="257.109,159.5 253.125,164.766 
				258.626,170.54 260.859,161.078 			"/>
			<polygon fill="none" stroke="#595A5C" stroke-linejoin="round" stroke-miterlimit="10" points="249.385,159.5 253.135,164.766 
				247.634,170.54 245.4,161.078 			"/>
		</g>
		<path fill="#FFFFFF" stroke="#595A5C" stroke-width="2" stroke-miterlimit="10" d="M239.002,139.313
			c-1.433-7.594-3.492-20.379,14.133-20.633c16.609-0.24,14.881,13.1,13.802,20.001c-1.233,0.309-1.711,1.591-2.005,1.925
			c-1.222-4.155-0.273-12.044-1.807-14.668c-0.746-1.277-4.957,3.369-9.725,3.401c-5.023,0.035-9.593-5.108-10.266-3.653
			c-1.721,3.72-1.073,10.88-1.852,14.92c-0.803-0.577-1.242-1.669-1.396-1.669c-0.666,0-1.875,0.745-1.875,3.398
			s0.66,4.102,2.344,4.102c0.301,0,0.576-0.053,0.838-0.132c1.857,8.514,7.643,10.766,11.931,10.766
			c4.37,0,10.12-1.631,12.154-10.557c0.565,0.17,0.895,0.157,1.439,0.157c1.684,0,2.344-1.917,2.344-4.57s-1.209-3.398-1.875-3.398"
			/>
		<g>
			<path fill="none" stroke="#595A5C" stroke-width="1.25" stroke-miterlimit="10" d="M258.271,151.401
				c3.354-1.084,7.852-6.128,8.945-8.637"/>
			<circle fill="#595A5C" cx="258.271" cy="151.401" r="1.229"/>
			<ellipse fill="#595A5C" cx="267.216" cy="142.935" rx="1.729" ry="2.504"/>
			<path fill="none" stroke="#595A5C" stroke-width="1.875" stroke-miterlimit="10" d="M267.217,143.156
				c0,0-1.686-4.661-0.904-5.209s1.253,0.11,1.253,0.763"/>
		</g>
		<path fill="#4272A0" stroke="#595A5C" stroke-miterlimit="10" d="M236.25,181.95v-12.669c0-4.641,3.797-8.438,8.438-8.438h0.713
			l7.734,21.106"/>
		<path fill="#4272A0" stroke="#595A5C" stroke-miterlimit="10" d="M270.01,181.95v-12.669c0-4.641-3.797-8.438-8.438-8.438h-0.713
			l-7.734,21.106"/>
	</g>
	<g>
		<g>
			<path fill="#C36F67" d="M99.742,134.754v-21.229c0-6.6,5.4-12,12-12h76.516c6.6,0,12,5.4,12,12v21.229"/>
			<path fill="none" stroke="#595A5C" stroke-width="3" stroke-linejoin="round" stroke-miterlimit="10" d="M99.742,134.754v-21.229
				c0-6.6,5.4-12,12-12h76.516c6.6,0,12,5.4,12,12v21.229"/>
		</g>
		<g>
			<path fill="#FFFFFF" d="M200.258,134.754v60.771c0,6.6-5.4,12-12,12h-76.516c-6.6,0-12-5.4-12-12v-60.771"/>
			<path fill="none" stroke="#595A5C" stroke-width="3" stroke-linejoin="round" stroke-miterlimit="10" d="M200.258,134.754v60.771
				c0,6.6-5.4,12-12,12h-76.516c-6.6,0-12-5.4-12-12v-60.771"/>
		</g>
		
			<line fill="#E6E7EB" stroke="#595A5C" stroke-width="2" stroke-miterlimit="10" x1="99.742" y1="134.754" x2="200.258" y2="134.754"/>
		<text transform="matrix(1 0 0 1 120 192.5254)" fill="#595A5C" font-family="'TimesNewRomanPS-BoldItalicMT'" font-size="60">31</text>
		<circle fill="#595A5C" cx="178.258" cy="115.275" r="10"/>
		<g>
			<path fill="#FFFFFF" d="M177.258,120.275c-2.2,0-4-1.8-4-4v-22c0-2.2,1.8-4,4-4h2c2.2,0,4,1.8,4,4v22c0,2.2-1.8,4-4,4H177.258z"
				/>
			<path fill="none" stroke="#595A5C" stroke-width="2" stroke-miterlimit="10" d="M177.258,120.275c-2.2,0-4-1.8-4-4v-22
				c0-2.2,1.8-4,4-4h2c2.2,0,4,1.8,4,4v22c0,2.2-1.8,4-4,4H177.258z"/>
		</g>
		<circle fill="#595A5C" cx="121.742" cy="115.275" r="10"/>
		<g>
			<path fill="#FFFFFF" d="M120.742,120.275c-2.2,0-4-1.8-4-4v-22c0-2.2,1.8-4,4-4h2c2.2,0,4,1.8,4,4v22c0,2.2-1.8,4-4,4H120.742z"
				/>
			<path fill="none" stroke="#595A5C" stroke-width="2" stroke-miterlimit="10" d="M120.742,120.275c-2.2,0-4-1.8-4-4v-22
				c0-2.2,1.8-4,4-4h2c2.2,0,4,1.8,4,4v22c0,2.2-1.8,4-4,4H120.742z"/>
		</g>
	</g>
	<g>
		
			<line fill="none" stroke="#595A5C" stroke-width="3" stroke-linecap="round" stroke-linejoin="round" stroke-miterlimit="10" x1="264.287" y1="181.95" x2="275.143" y2="181.95"/>
		
			<line fill="none" stroke="#595A5C" stroke-width="3" stroke-linecap="round" stroke-linejoin="round" stroke-miterlimit="10" x1="221.333" y1="181.95" x2="260.768" y2="181.95"/>
		
			<line fill="none" stroke="#595A5C" stroke-width="3" stroke-linecap="round" stroke-linejoin="round" stroke-miterlimit="10" x1="279.475" y1="181.95" x2="285.508" y2="181.95"/>
	</g>
	<g>
		
			<line fill="none" stroke="#595A5C" stroke-width="3" stroke-linecap="round" stroke-linejoin="round" stroke-miterlimit="10" x1="57.047" y1="181.95" x2="36.191" y2="181.95"/>
		
			<line fill="none" stroke="#595A5C" stroke-width="3" stroke-linecap="round" stroke-linejoin="round" stroke-miterlimit="10" x1="80.001" y1="181.95" x2="60.566" y2="181.95"/>
		
			<line fill="none" stroke="#595A5C" stroke-width="3" stroke-linecap="round" stroke-linejoin="round" stroke-miterlimit="10" x1="33.601" y1="181.95" x2="25.826" y2="181.95"/>
		
			<line fill="none" stroke="#595A5C" stroke-width="3" stroke-linecap="round" stroke-linejoin="round" stroke-miterlimit="10" x1="20.906" y1="181.95" x2="15.678" y2="181.95"/>
	</g>
	<g>
		<g>
			<g>
				<path fill="#FFFFFF" d="M175,284c0,3.3-2.7,6-6,6h-38c-3.3,0-6-2.7-6-6v-48c0-3.3,2.7-6,6-6h38c3.3,0,6,2.7,6,6V284z"/>
				
					<path fill="none" stroke="#595A5C" stroke-width="2" stroke-linecap="round" stroke-linejoin="round" stroke-miterlimit="10" d="
					M175,284c0,3.3-2.7,6-6,6h-38c-3.3,0-6-2.7-6-6v-48c0-3.3,2.7-6,6-6h38c3.3,0,6,2.7,6,6V284z"/>
			</g>
			<rect x="145" y="260" fill="#C8DE8E" stroke="#595A5C" stroke-width="2" stroke-miterlimit="10" width="10" height="20"/>
			<rect x="135" y="270" fill="#8DC4EA" stroke="#595A5C" stroke-width="2" stroke-miterlimit="10" width="10" height="10"/>
			<rect x="155" y="250" fill="#CE867E" stroke="#595A5C" stroke-width="2" stroke-miterlimit="10" width="10" height="30"/>
		</g>
		<polygon fill="none" stroke="#595A5C" stroke-width="2" stroke-linejoin="round" stroke-miterlimit="10" points="141.702,238.164 
			143.981,242.781 149.076,243.521 145.389,247.116 146.26,252.191 141.702,249.795 137.145,252.191 138.016,247.116 
			134.328,243.521 139.423,242.781 		"/>
	</g>
	<g>
		<path fill="#FFFFFF" stroke="#595A5C" stroke-width="2" stroke-linejoin="round" stroke-miterlimit="10" d="M161.104,44.646h6.002
			l12,10V23.367c0-4.4-3.6-8-8-8h-22.209c-4.4,0-8,3.6-8,8v3.455"/>
	</g>
	<g>
		<path fill="#FFFFFF" stroke="#595A5C" stroke-width="2" stroke-linejoin="round" stroke-miterlimit="10" d="M161.104,48.102
			c0,4.4-3.6,8-8,8h-20.209l-12,10V34.822c0-4.4,3.6-8,8-8h24.209c4.4,0,8,3.6,8,8V48.102z"/>
	</g>
	<circle fill="#595A5C" cx="140.896" cy="42.322" r="2"/>
	<circle fill="#595A5C" cx="130.896" cy="42.322" r="2"/>
	<circle fill="#595A5C" cx="150.896" cy="42.322" r="2"/>
	<polyline fill="none" stroke="#595A5C" stroke-width="0.625" stroke-miterlimit="10" points="242.584,161.119 242.065,170.54 
		245.4,171.14 245.4,174.901 253.135,181.95 	"/>
	<polyline fill="none" stroke="#595A5C" stroke-width="0.625" stroke-miterlimit="10" points="263.687,161.119 264.205,170.54 
		260.87,171.14 260.87,174.901 253.136,181.95 	"/>
</g>
<g id="_x30_6">
</g>
<g id="_x30_7">
</g>
</svg>
