<?xml version="1.0" encoding="utf-8"?>
<!-- Generator: Adobe Illustrator 16.0.0, SVG Export Plug-In . SVG Version: 6.00 Build 0)  -->
<!DOCTYPE svg PUBLIC "-//W3C//DTD SVG 1.1//EN" "http://www.w3.org/Graphics/SVG/1.1/DTD/svg11.dtd">
<svg version="1.1" xmlns="http://www.w3.org/2000/svg" xmlns:xlink="http://www.w3.org/1999/xlink" x="0px" y="0px" width="301px"
	 height="301px" viewBox="0 0 301 301" enable-background="new 0 0 301 301" xml:space="preserve">
<g id="background" display="none">
	<g display="inline">
		<rect x="0.5" y="0.5" fill="#E6E7E8" stroke="#F3F3F3" stroke-miterlimit="10" width="300" height="300"/>
	</g>
</g>
<g id="_x30_1">
</g>
<g id="_x30_2">
</g>
<g id="_x30_3">
</g>
<g id="_x30_4">
</g>
<g id="_x30_5">
</g>
<g id="_x30_6">
	<g>
		<path fill="#FFF1BA" d="M167.433,60.773c-17.856-2.845-18.673-13.999-35.924-8.583c-17.252,5.417-10.852,20.896-26.892,29.244
			c-13.776,7.169-22.971-6.795-35,3.027c-12.03,9.823-2.246,17.328-8.615,31.492c-6.943,15.441-19.12,12.83-19.12,29.76
			c0,16.931,13.233,14.466,19.329,30.261c4.049,10.492-6.129,18.306,2.961,24.928c9.089,6.623,19.323-9.118,29.064-3.499
			c12.885,7.434,4.157,24.072,17.598,30.446c13.44,6.375,17.981-8.429,32.685-6.17c17.252,2.649,16.799,18.199,34.176,16.559
			c17.377-1.642,13.809-11.132,27.962-21.347c13.924-10.049,21.808-3.734,28.572-19.517s-10.086-21.837-5.259-38.315
			c4.04-13.792,21.523-10.006,23.551-24.234c2.026-14.228-10.049-12.869-15.187-26.291c-3.434-8.972,4.284-16.486-4.593-20.157
			s-19.404,15.594-27.288,10.105c-11.837-8.239,2.013-25.458-8.583-35.242C187.695,54.768,181.675,63.043,167.433,60.773z"/>
	</g>
	<g>
		<g>
			<g>
				<path fill="none" stroke="#595A5C" stroke-width="2" stroke-linecap="round" stroke-linejoin="round" d="M126,40H54
					c-13.2,0-24,10.8-24,24v51.319c0,13.2,10.057,24,22.348,24c2.823,0,4.068,0,4.889,0"/>
				<g>
					<polygon fill="#595A5C" points="56.647,134.946 56.647,143.692 61.02,139.319 					"/>
				</g>
			</g>
		</g>
		<g>
			<g>
				<path fill="none" stroke="#595A5C" stroke-width="2" stroke-linecap="round" stroke-linejoin="round" d="M234.871,139.319
					c0,0,0.154,0,12.564,0s22.564-10.8,22.564-24V64c0-13.2-10.8-24-24-24h-69.214"/>
				<g>
					<polygon fill="#595A5C" points="177.372,44.373 177.372,35.627 173,40 					"/>
				</g>
			</g>
		</g>
	</g>
	<g>
		<g>
			<g>
				<path fill="none" stroke="#595A5C" stroke-width="2" stroke-linecap="round" stroke-linejoin="round" d="M234.34,154.575H246
					c13.2,0,24,10.8,24,24V236c0,13.2-10.8,24-24,24h-63.535"/>
				<g>
					<polygon fill="#595A5C" points="183.051,264.373 183.051,255.627 178.679,260 					"/>
				</g>
			</g>
		</g>
		<g>
			<path fill="none" d="M246.001,265"/>
		</g>
		<g>
			<path fill="none" d="M178.68,265"/>
		</g>
	</g>
	<g>
		<path fill="#FFFFFF" stroke="#595A5C" stroke-width="2" stroke-linecap="round" stroke-miterlimit="10" d="M159.032,35.715
			c0-4.989-4.045-9.032-9.033-9.032c-4.987,0-9.031,4.043-9.031,9.032c0,3.009,2.625,6.036,2.625,6.036
			c1.794,1.795,1.273,7.304,1.501,8.118c0.214,0.771,1.151,1.276,2.085,1.276c0,0,3.582,0.136,5.643-0.556
			c0.879-0.296,1.87-0.507,2.084-1.277c0.227-0.813-0.412-5.711,1.502-7.624C156.407,41.688,159.032,38.724,159.032,35.715z"/>
		<path fill="none" stroke="#595A5C" stroke-width="2" stroke-linecap="round" stroke-miterlimit="10" d="M145.216,54.482
			c0,0,7.395,0.042,9.689-1.276"/>
		<path fill="none" stroke="#595A5C" stroke-width="2" stroke-linecap="round" stroke-miterlimit="10" d="M145.216,57.82
			c0,0,7.395,0.041,9.689-1.277"/>
		<path fill="none" stroke="#595A5C" stroke-width="3" stroke-linecap="round" stroke-miterlimit="10" d="M149.073,61.022
			c0.697-0.05,1.429-0.115,2.139-0.203"/>
		<path fill="none" stroke="#595A5C" stroke-width="2" stroke-linecap="round" stroke-miterlimit="10" d="M151.668,49.49
			c0,0-0.479-9.568,1.112-11.16"/>
		<path fill="none" stroke="#595A5C" stroke-width="2" stroke-linecap="round" stroke-miterlimit="10" d="M148.481,49.49
			c0,0,0.48-9.568-1.111-11.16"/>
		<path fill="none" stroke="#595A5C" stroke-width="2" stroke-linecap="round" stroke-linejoin="round" stroke-miterlimit="10" d="
			M145.435,37.219c1.288,1.665,4.306,1.229,4.709-0.793c0.785,2.13,3.716,1.638,4.762,0.793"/>
		<g>
			
				<line fill="none" stroke="#595A5C" stroke-width="3" stroke-linecap="round" stroke-miterlimit="10" x1="164.032" y1="35.715" x2="167.61" y2="35.715"/>
			
				<line fill="none" stroke="#595A5C" stroke-width="3" stroke-linecap="round" stroke-miterlimit="10" x1="132.39" y1="35.715" x2="135.968" y2="35.715"/>
		</g>
		<g>
			
				<line fill="none" stroke="#595A5C" stroke-width="3" stroke-linecap="round" stroke-miterlimit="10" x1="159.922" y1="45.638" x2="162.453" y2="48.168"/>
			
				<line fill="none" stroke="#595A5C" stroke-width="3" stroke-linecap="round" stroke-miterlimit="10" x1="137.548" y1="23.264" x2="140.078" y2="25.793"/>
		</g>
		<g>
			
				<line fill="none" stroke="#595A5C" stroke-width="3" stroke-linecap="round" stroke-miterlimit="10" x1="159.923" y1="25.792" x2="162.453" y2="23.262"/>
			
				<line fill="none" stroke="#595A5C" stroke-width="3" stroke-linecap="round" stroke-miterlimit="10" x1="137.549" y1="48.167" x2="140.078" y2="45.637"/>
		</g>
		<g>
			
				<line fill="none" stroke="#595A5C" stroke-width="3" stroke-linecap="round" stroke-miterlimit="10" x1="150" y1="21.682" x2="150" y2="18.104"/>
		</g>
	</g>
	<g>
		
			<path fill="#8DC4EA" stroke="#595A5C" stroke-width="2" stroke-linecap="round" stroke-linejoin="round" stroke-miterlimit="10" d="
			M141.825,236.937c0-1.649,1.351-3,3-3h20.351c1.651,0,3,1.351,3,3v27.483c0,1.649-1.349,3-3,3h-13.258l-10.093-10.096V236.937z"/>
		
			<path fill="#FFFFFF" stroke="#595A5C" stroke-width="2" stroke-linecap="round" stroke-linejoin="round" stroke-miterlimit="10" d="
			M163.175,269.421c0,1.649-1.351,3-3,3h-20.351c-1.651,0-3-1.351-3-3v-27.483c0-1.649,1.349-3,3-3h13.258l10.093,10.096V269.421z"
			/>
		
			<path fill="#FFFFFF" stroke="#595A5C" stroke-width="2" stroke-linecap="round" stroke-linejoin="round" stroke-miterlimit="10" d="
			M163.175,249.033h-7.093c-1.649,0-3-1.351-3-3v-7.094L163.175,249.033z"/>
	</g>
	<path fill="none" stroke="#4272A0" stroke-width="3" stroke-linecap="round" stroke-linejoin="round" stroke-miterlimit="10" d="
		M156.419,254.29C150,257.7,148,263.71,148,263.71l-4.419-4.419"/>
	<g>
		<g>
			<path fill="#B7BABE" d="M66.659,192.065c0,2.2,1.8,4,4,4h160.212c2.2,0,4-1.8,4-4V86.572c0-2.2-1.8-4-4-4H70.659
				c-2.2,0-4,1.8-4,4V192.065z"/>
			<path fill="none" stroke="#595A5C" stroke-width="3" stroke-miterlimit="10" d="M66.659,192.065c0,2.2,1.8,4,4,4h160.212
				c2.2,0,4-1.8,4-4V86.572c0-2.2-1.8-4-4-4H70.659c-2.2,0-4,1.8-4,4V192.065z"/>
		</g>
		<g>
			<path fill="#FFFFFF" d="M76.659,177.065c0,2.2,1.8,4,4,4h140.212c2.2,0,4-1.8,4-4V96.572c0-2.2-1.8-4-4-4H80.659
				c-2.2,0-4,1.8-4,4V177.065z"/>
			<path fill="none" stroke="#FFFFFF" stroke-width="2" stroke-linecap="round" stroke-linejoin="round" stroke-miterlimit="10" d="
				M76.659,177.065c0,2.2,1.8,4,4,4h140.212c2.2,0,4-1.8,4-4V96.572c0-2.2-1.8-4-4-4H80.659c-2.2,0-4,1.8-4,4V177.065z"/>
		</g>
		<g>
			<path fill="#B7BABE" d="M46.659,214.428c0,1.65,1.35,3,3,3h202.212c1.65,0,3-1.35,3-3v-5.362c0-1.65-1.35-3-3-3H49.659
				c-1.65,0-3,1.35-3,3V214.428z"/>
			<path fill="none" stroke="#595A5C" stroke-width="3" stroke-miterlimit="10" d="M46.659,214.428c0,1.65,1.35,3,3,3h202.212
				c1.65,0,3-1.35,3-3v-5.362c0-1.65-1.35-3-3-3H49.659c-1.65,0-3,1.35-3,3V214.428z"/>
		</g>
		<g>
			<path fill="#E6E7EB" d="M47.746,206.811c-0.598,0.339-0.524,0.617,0.163,0.617h205.712c0.688,0,0.761-0.278,0.163-0.617
				l-17.826-10.128c-0.598-0.339-1.649-0.617-2.337-0.617H67.909c-0.688,0-1.739,0.278-2.337,0.617L47.746,206.811z"/>
			<path fill="none" stroke="#595A5C" stroke-width="3" stroke-miterlimit="10" d="M47.746,206.811
				c-0.598,0.339-0.524,0.617,0.163,0.617h205.712c0.688,0,0.761-0.278,0.163-0.617l-17.826-10.128
				c-0.598-0.339-1.649-0.617-2.337-0.617H67.909c-0.688,0-1.739,0.278-2.337,0.617L47.746,206.811z"/>
		</g>
		<g>
			<line fill="#DFE8F6" x1="234.871" y1="201.288" x2="66.659" y2="201.288"/>
			
				<line fill="none" stroke="#595A5C" stroke-width="3" stroke-linecap="round" stroke-miterlimit="10" stroke-dasharray="3,6" x1="234.871" y1="201.288" x2="66.659" y2="201.288"/>
		</g>
	</g>
	<g>
		<g>
			<path fill="none" stroke="#595A5C" stroke-width="2" stroke-linejoin="round" stroke-miterlimit="10" d="M162.303,164.579h-0.6
				l-4.801,4v-12.512c0-1.76,1.439-3.199,3.2-3.199h6.884c1.76,0,3.199,1.439,3.199,3.199v2.182"/>
		</g>
		<circle fill="#595A5C" cx="170.186" cy="163.05" r="1.6"/>
		<circle fill="#595A5C" cx="174.186" cy="163.05" r="1.6"/>
		<circle fill="#595A5C" cx="166.186" cy="163.05" r="1.6"/>
		<g>
			<path fill="none" stroke="#595A5C" stroke-width="2" stroke-linejoin="round" stroke-miterlimit="10" d="M162.104,165.962
				c0,1.76,1.439,3.199,3.199,3.199h8.084l4.801,4v-12.512c0-1.76-1.44-3.2-3.201-3.2h-9.684c-1.76,0-3.199,1.44-3.199,3.2V165.962z
				"/>
		</g>
	</g>
	<g>
		<g>
			<path fill="none" stroke="#595A5C" stroke-width="2" stroke-miterlimit="10" d="M132.74,172.215c0-0.806,0-0.8,0-0.8
				c0-0.885,2.131-0.801,3.016-0.801h7.799v-15.199h-3.199v-1.6h-3.801c-1.766,0-3.814,1.432-3.814,3.199V172.215"/>
			<path fill="none" stroke="#595A5C" stroke-width="2" stroke-miterlimit="10" d="M132.74,172.215v-15.2
				c0-1.768-1.617-3.199-3.385-3.199h-3.801v1.6h-3.199v15.199h7.801c0.883,0,2.584-0.084,2.584,0.801
				C132.74,171.415,132.74,171.409,132.74,172.215"/>
		</g>
		<g>
			<path fill="none" stroke="#595A5C" stroke-width="2" stroke-miterlimit="10" d="M132.74,172.215c0-1.767,1.248-3.2,3.016-3.2h4.6
				v-15.199h-4.6c-1.768,0-3.016,1.432-3.016,3.199V172.215z"/>
			<path fill="none" stroke="#595A5C" stroke-width="2" stroke-miterlimit="10" d="M132.74,172.215c0-1.767-1.617-3.2-3.385-3.2
				h-3.801v-15.199h3.801c1.768,0,3.385,1.432,3.385,3.199V172.215"/>
		</g>
	</g>
	<g>
		<g>
			<path fill="none" stroke="#595A5C" stroke-width="2" stroke-miterlimit="10" d="M92.213,159.763c0-3.48,2.821-6.303,6.304-6.303
				s6.303,2.822,6.303,6.303c0,4.902-4.922,5.621-6.303,7.002s-1.52,3.411-1.52,3.411c0,1.321-1.07,2.394-2.393,2.394
				c-1.32,0-2.392-1.072-2.392-2.394"/>
			<path fill="none" stroke="#595A5C" stroke-width="2" stroke-linecap="round" stroke-linejoin="round" stroke-miterlimit="10" d="
				M95.122,164.575c1.123,0,2.035-0.91,2.035-2.035c0-1.123-0.912-2.036-2.035-2.036v-0.579c0-1.875,1.52-3.396,3.395-3.396
				s3.396,1.521,3.396,3.396"/>
		</g>
		<g>
			<g>
				
					<line fill="none" stroke="#595A5C" stroke-width="2" stroke-linecap="round" stroke-linejoin="round" stroke-miterlimit="10" x1="86.616" y1="163.015" x2="88.548" y2="163.015"/>
				
					<line fill="none" stroke="#595A5C" stroke-width="2" stroke-linecap="round" stroke-linejoin="round" stroke-miterlimit="10" x1="110.116" y1="163.015" x2="108.186" y2="163.015"/>
			</g>
			<g>
				
					<line fill="none" stroke="#595A5C" stroke-width="2" stroke-linecap="round" stroke-linejoin="round" stroke-miterlimit="10" x1="87.476" y1="167.888" x2="89.291" y2="167.228"/>
				
					<line fill="none" stroke="#595A5C" stroke-width="2" stroke-linecap="round" stroke-linejoin="round" stroke-miterlimit="10" x1="109.257" y1="158.142" x2="107.442" y2="158.801"/>
			</g>
			<g>
				
					<line fill="none" stroke="#595A5C" stroke-width="2" stroke-linecap="round" stroke-linejoin="round" stroke-miterlimit="10" x1="87.476" y1="158.142" x2="89.291" y2="158.801"/>
				
					<line fill="none" stroke="#595A5C" stroke-width="2" stroke-linecap="round" stroke-linejoin="round" stroke-miterlimit="10" x1="109.257" y1="167.888" x2="107.442" y2="167.228"/>
			</g>
		</g>
	</g>
	<g>
		<g>
			<path fill="none" stroke="#595A5C" stroke-width="2" stroke-linecap="round" stroke-linejoin="round" stroke-miterlimit="10" d="
				M203.277,156.214c0,0,0.913-0.913,2.029-2.028s2.984-1.073,4.15,0.093l1.414,1.414c1.166,1.166,1.208,3.034,0.093,4.15
				c-1.115,1.115-2.028,2.028-2.028,2.028"/>
		</g>
		
			<rect x="197.725" y="158.515" transform="matrix(0.7071 -0.7072 0.7072 0.7071 -55.5632 190.9022)" fill="none" stroke="#595A5C" stroke-width="2" stroke-linecap="round" stroke-linejoin="round" stroke-miterlimit="10" width="9.82" height="8.001"/>
		<g>
			
				<polygon fill="#595A5C" stroke="#595A5C" stroke-width="2" stroke-linecap="round" stroke-linejoin="round" stroke-miterlimit="10" points="
				191.276,173.872 196.188,172.013 193.135,168.962 			"/>
			
				<polygon fill="none" stroke="#595A5C" stroke-width="2" stroke-linecap="round" stroke-linejoin="round" stroke-miterlimit="10" points="
				196.334,163.159 193.135,168.962 196.188,172.013 201.992,168.815 			"/>
		</g>
	</g>
	<g>
		<path fill="none" stroke="#FFFFFF" stroke-width="2" stroke-linecap="round" stroke-linejoin="round" stroke-miterlimit="10" d="
			M113.239,144.017v31.055c0,2.2-1.8,4-4,4h-22c-2.2,0-4-1.8-4-4v-31.055"/>
	</g>
	<g>
		<path fill="none" stroke="#FFFFFF" stroke-width="2" stroke-linecap="round" stroke-linejoin="round" stroke-miterlimit="10" d="
			M147.74,144.017v31.055c0,2.2-1.8,4-4,4h-22c-2.2,0-4-1.8-4-4v-31.055"/>
	</g>
	<g>
		<path fill="none" stroke="#FFFFFF" stroke-width="2" stroke-linecap="round" stroke-linejoin="round" stroke-miterlimit="10" d="
			M182.186,144.017v31.055c0,2.2-1.8,4-4,4h-22c-2.2,0-4-1.8-4-4v-31.055"/>
	</g>
	<g>
		<path fill="none" stroke="#FFFFFF" stroke-width="2" stroke-linecap="round" stroke-linejoin="round" stroke-miterlimit="10" d="
			M216.992,144.017v31.055c0,2.2-1.8,4-4,4h-22c-2.2,0-4-1.8-4-4v-31.055"/>
	</g>
	<g>
		<rect x="127.74" y="124.017" fill="#C8DE8E" stroke="#FFFFFF" stroke-width="2" stroke-miterlimit="10" width="10" height="20"/>
		<rect x="117.74" y="134.017" fill="#CE867E" stroke="#FFFFFF" stroke-width="2" stroke-miterlimit="10" width="10" height="10"/>
		<rect x="137.74" y="114.017" fill="#8DC4EA" stroke="#FFFFFF" stroke-width="2" stroke-miterlimit="10" width="10" height="30"/>
	</g>
	<g>
		<rect x="162.186" y="124.017" fill="#C8DE8E" stroke="#FFFFFF" stroke-width="2" stroke-miterlimit="10" width="10" height="20"/>
		<rect x="152.186" y="134.017" fill="#CE867E" stroke="#FFFFFF" stroke-width="2" stroke-miterlimit="10" width="10" height="10"/>
		<rect x="172.186" y="114.017" fill="#8DC4EA" stroke="#FFFFFF" stroke-width="2" stroke-miterlimit="10" width="10" height="30"/>
	</g>
	<g>
		<rect x="196.992" y="124.017" fill="#C8DE8E" stroke="#FFFFFF" stroke-width="2" stroke-miterlimit="10" width="10" height="20"/>
		<rect x="186.992" y="134.017" fill="#CE867E" stroke="#FFFFFF" stroke-width="2" stroke-miterlimit="10" width="10" height="10"/>
		<rect x="206.992" y="114.017" fill="#8DC4EA" stroke="#FFFFFF" stroke-width="2" stroke-miterlimit="10" width="10" height="30"/>
	</g>
	<g>
		<rect x="93.239" y="124.017" fill="#C8DE8E" stroke="#FFFFFF" stroke-width="2" stroke-miterlimit="10" width="10" height="20"/>
		<rect x="83.239" y="134.017" fill="#CE867E" stroke="#FFFFFF" stroke-width="2" stroke-miterlimit="10" width="10" height="10"/>
		<rect x="103.239" y="114.017" fill="#8DC4EA" stroke="#FFFFFF" stroke-width="2" stroke-miterlimit="10" width="10" height="30"/>
	</g>
</g>
<g id="_x30_7">
</g>
</svg>
