<?xml version="1.0" encoding="utf-8"?>
<!-- Generator: Adobe Illustrator 16.0.0, SVG Export Plug-In . SVG Version: 6.00 Build 0)  -->
<!DOCTYPE svg PUBLIC "-//W3C//DTD SVG 1.1//EN" "http://www.w3.org/Graphics/SVG/1.1/DTD/svg11.dtd">
<svg version="1.1" xmlns="http://www.w3.org/2000/svg" xmlns:xlink="http://www.w3.org/1999/xlink" x="0px" y="0px" width="301px"
	 height="301px" viewBox="0 0 301 301" enable-background="new 0 0 301 301" xml:space="preserve">
<g id="background" display="none">
	<g display="inline">
		<rect x="0.5" y="0.5" fill="#E6E7E8" stroke="#F3F3F3" stroke-miterlimit="10" width="300" height="300"/>
	</g>
</g>
<g id="_x30_1">
</g>
<g id="_x30_2">
</g>
<g id="_x30_3">
</g>
<g id="_x30_4">
</g>
<g id="_x30_5">
</g>
<g id="_x30_6">
</g>
<g id="_x30_7">
	
		<line fill="#FFFFFF" stroke="#595A5C" stroke-linecap="round" stroke-linejoin="round" stroke-miterlimit="10" x1="278.767" y1="221.72" x2="240.767" y2="221.72"/>
	<g opacity="0.3">
		<path fill="#8DC4EA" d="M166.704,51.956c-14.307-1.641-15.757-14.613-29.348-9.854c-13.592,4.76-6.884,23.269-20.369,28.321
			c-12.128,4.544-19.257-13.807-31.272-8.972C73.7,66.286,80.924,75.173,73.736,85.947c-10.028,15.034-21.26,10.548-24.348,28.354
			c-3.089,17.807,13.182,18.985,13.672,37.051c0.485,17.899-15.693,19.974-11.648,37.416c4.044,17.442,12.865,12.728,25.12,25.781
			c13.785,14.683,8.131,23.208,27.021,30.192c18.889,6.984,23.027-8.589,42.892-5.273c11.165,1.862,11.243,17.737,22.388,15.765
			c11.146-1.972,5.811-17.094,15.727-22.552c16.46-9.06,25.642,4.337,40.03-7.745s5.046-19.425,13.386-36.261
			c7.53-15.203,18.961-12.527,18.961-29.492s-12.839-14.442-19.257-30.146c-7.009-17.148,4.114-24.197-8.401-37.855
			s-26.893-0.242-39.653-13.671c-7.018-7.385,6.985-22.021-0.688-28.721C182.781,43.415,176.826,53.117,166.704,51.956z"/>
	</g>
	<path fill="none" stroke="#595A5C" stroke-width="2" stroke-linecap="round" stroke-linejoin="round" stroke-miterlimit="10" d="
		M226.143,144.387c13.526-4.368,19.083-7.952,24.849-20.272"/>
	<path fill="none" stroke="#595A5C" stroke-width="2" stroke-linecap="round" stroke-linejoin="round" stroke-miterlimit="10" d="
		M226.143,164.446c15.771,1.572,24.849,7.022,31.542,17.648"/>
	<g>
		
			<path fill="#FFFFFF" stroke="#595A5C" stroke-width="2" stroke-linecap="round" stroke-linejoin="round" stroke-miterlimit="10" d="
			M257.592,119.877c9.395,0,17.008-7.615,17.008-17.008s-7.613-17.008-17.008-17.008c-9.394,0-17.008,7.615-17.008,17.008
			S248.198,119.877,257.592,119.877"/>
		<path fill="#1684C7" d="M252.832,109.982h-3.315V99.373h3.315V109.982z M251.09,98.046h-0.024c-1.2,0-1.978-0.812-1.978-1.839
			c0-1.047,0.801-1.842,2.025-1.842c1.223,0,1.975,0.793,1.998,1.84C253.111,97.232,252.336,98.046,251.09,98.046z M266.096,109.982
			h-3.76v-5.49c0-1.438-0.587-2.418-1.881-2.418c-0.988,0-1.538,0.662-1.795,1.301c-0.096,0.229-0.08,0.547-0.08,0.867v5.74h-3.725
			c0,0,0.049-9.725,0-10.609h3.725v1.665c0.22-0.728,1.409-1.767,3.309-1.767c2.355,0,4.207,1.525,4.207,4.812V109.982z"/>
	</g>
	
		<rect x="240.767" y="187.72" fill="#FFFFFF" stroke="#595A5C" stroke-width="2" stroke-linecap="round" stroke-linejoin="round" stroke-miterlimit="10" width="38" height="28"/>
	
		<rect x="243.767" y="190.72" fill="#FFFFFF" stroke="#8DC4EA" stroke-linecap="round" stroke-linejoin="round" stroke-miterlimit="10" stroke-dasharray="1,2" width="32" height="22"/>
	
		<line fill="none" stroke="#4272A0" stroke-linecap="round" stroke-linejoin="round" stroke-miterlimit="10" x1="259.767" y1="194.72" x2="264.767" y2="194.72"/>
	
		<line fill="none" stroke="#4272A0" stroke-linecap="round" stroke-linejoin="round" stroke-miterlimit="10" x1="259.767" y1="200.72" x2="271.767" y2="200.72"/>
	
		<line fill="none" stroke="#4272A0" stroke-linecap="round" stroke-linejoin="round" stroke-miterlimit="10" x1="259.767" y1="203.72" x2="271.767" y2="203.72"/>
	
		<line fill="none" stroke="#4272A0" stroke-linecap="round" stroke-linejoin="round" stroke-miterlimit="10" x1="259.767" y1="206.72" x2="271.767" y2="206.72"/>
	
		<line fill="none" stroke="#4272A0" stroke-linecap="round" stroke-linejoin="round" stroke-miterlimit="10" x1="259.767" y1="209.72" x2="267.767" y2="209.72"/>
	<g>
		<polygon fill="#4272A0" points="251.394,197.231 252.852,200.186 256.111,200.66 253.752,202.96 254.31,206.208 251.394,204.674 
			248.477,206.208 249.033,202.96 246.674,200.66 249.936,200.186 		"/>
	</g>
	<polyline fill="none" stroke="#595A5C" stroke-width="3" stroke-linecap="round" stroke-miterlimit="10" points="72.002,223.23 
		72.002,60.77 211.997,60.77 	"/>
	<g>
		
			<rect x="80.002" y="68.77" fill="#FFFFFF" stroke="#595A5C" stroke-width="3" stroke-miterlimit="10" width="139.996" height="162.461"/>
		<g>
			<path fill="#FDEEE4" stroke="#595A5C" stroke-width="2" stroke-miterlimit="10" d="M158.199,175.09
				c-2.578,0-4.688-7.063-4.688-13.25h-11.25c0,6.188-2.109,13.25-4.688,13.25h-3.516l13.828,22.969l11.654-22.414L158.199,175.09z"
				/>
			<path fill="none" d="M119.293,133.605c0,5.305,1.324,8.203,4.688,8.203c3.367,0,5.625-2.43,5.625-7.734
				c0-5.309-5.229-7.266-6.563-7.266C121.715,126.809,119.293,128.297,119.293,133.605z"/>
			<path fill="#C36F67" stroke="#595A5C" stroke-width="2" stroke-miterlimit="10" d="M178.234,132.082
				c13.324-20.488-9.867-42.1-23.867-46.301c-14-4.203-21.104-0.137-24.887,2.773h3c-12.98-0.752-21.602,19.047-18.156,41.078
				c2.193,14.027,8.764,18.77,13.25,20.363"/>
			<path fill="none" stroke="#CE867E" stroke-width="1.25" stroke-miterlimit="10" d="M134.412,92.119
				c-9.793-0.567-16.748,12.237-16.543,28.135"/>
			<path fill="none" stroke="#CE867E" stroke-width="1.25" stroke-miterlimit="10" d="M177.512,122.872
				c3.209-15.458-13.375-30.004-23.957-33.179"/>
			<path fill="#F9E3D4" d="M122.279,130.863c1.541-8.32,12.742-17.023,13.752-23.203c6.035,10.41,25.672,13.441,36.453,11.973
				c0,0,0.625,4.752,0.705,7.389c0.457-0.145,0.84-0.213,1.088-0.213c1.328,0,3.75,1.488,3.75,6.797
				c0,5.305-1.324,8.203-4.688,8.203c-0.553,0-1.064-0.092-1.553-0.225c-4.615,17.383-19.949,21.959-23.51,21.959
				c-3.598,0-20.348-4.666-24.414-22.52c-0.82,0.523-1.793,0.785-2.883,0.785c-3.363,0-4.688-2.898-4.688-8.203
				c0-5.309,2.422-6.797,3.75-6.797c0.469,0,1.523-0.16,2.684,0.457"/>
			<path fill="#FDEEE4" d="M122.279,130.863c1.541-8.32,12.742-17.023,13.752-23.203c6.035,10.41,25.672,13.441,36.453,11.973
				c0,0,0.625,4.752,0.705,7.389c0.457-0.145,0.84-0.213,1.088-0.213c1.328,0,3.75,1.488,3.75,6.797
				c0,5.305-1.324,8.203-4.688,8.203c-0.553,0-1.064-0.092-1.553-0.225c-3.199,12.05-21.365,16.959-23.51,16.959
				c-2.383,0-21.563-4.999-24.414-17.52c-0.82,0.523-1.793,0.785-2.883,0.785c-3.363,0-4.688-2.898-4.688-8.203
				c0-5.309,2.422-6.797,3.75-6.797c0.469,0,1.523-0.16,2.684,0.457"/>
			<path fill="none" stroke="#595A5C" stroke-width="2" stroke-linecap="round" stroke-linejoin="round" stroke-miterlimit="10" d="
				M151.725,134.791c0.176,2.229,1.875,3.633,1.982,5.092c0.105,1.456-2.525,2.244-2.525,2.244"/>
			<circle fill="#F9E3D4" cx="132.421" cy="144.386" r="5.927"/>
			<circle fill="#F9E3D4" cx="163.354" cy="144.386" r="5.927"/>
			<path fill="none" stroke="#595A5C" stroke-width="2" stroke-linecap="round" stroke-miterlimit="10" d="M157.436,147.02
				c-5.375,5.375-14.088,5.375-19.461,0.002"/>
			<path fill="none" stroke="#595A5C" stroke-width="2" stroke-linecap="round" stroke-miterlimit="10" d="M132.811,133.648
				c2.338-2.338,6.129-2.338,8.467,0"/>
			<path fill="none" stroke="#595A5C" stroke-width="2" stroke-linecap="round" stroke-miterlimit="10" d="M155.277,133.648
				c2.338-2.338,6.129-2.338,8.467,0"/>
			<path fill="#E7E6D3" stroke="#595A5C" stroke-width="2" stroke-miterlimit="10" d="M157.742,185.095
				c-2.547,2.467-6.014,3.987-9.836,3.987c-3.826,0-7.293-1.521-9.838-3.987h-9.156v19.837h37.984v-19.837H157.742z"/>
			<path fill="#C8DE8E" stroke="#595A5C" stroke-width="2" stroke-linejoin="round" stroke-miterlimit="10" d="M171.053,212.391
				v-20.578c10-9.281,2.406-16.875-6.875-16.875h-1.406L159.49,174l-12.188,23.438L135.605,174l-3.75,0.938h-1.428
				c-9.281,0-16.875,8.063-6.5,17.344v20.109"/>
			<path fill="#D2E5A3" stroke="#595A5C" stroke-width="2" stroke-linejoin="round" stroke-miterlimit="10" d="M148.906,197.906
				l-12.188-23.438l-3.281,0.938c0,0-5.705,10.966-2.775,15.387c2.928,4.424,9.121,3.671,9.121,3.671s-0.549,2.402,1.9,3.442
				C144.133,198.943,148.906,197.906,148.906,197.906z"/>
			<path fill="#D2E5A3" stroke="#595A5C" stroke-width="2" stroke-linejoin="round" stroke-miterlimit="10" d="M146.906,197.906
				l12.188-23.438l3.281,0.938c0,0,5.701,10.966,2.773,15.387c-2.928,4.424-9.123,3.671-9.123,3.671s0.551,2.402-1.898,3.442
				C151.678,198.943,146.906,197.906,146.906,197.906z"/>
			<g>
				<g>
					
						<path fill="#FDEEE4" stroke="#595A5C" stroke-width="2" stroke-linecap="round" stroke-linejoin="round" stroke-miterlimit="10" d="
						M113.922,166.637l-1.305,8.649l-5.764,2.25l-0.484-8.556c0,0-4.623-2.366-5.873-4.014c-2.479-3.266,0.854-10.787,2.955-11.979
						c1.422-0.807,4.68-1.065,7.279,2.089c-0.66-6.042,2.033-8.931,5.061-7.843c1.984,0.711-1.91,5.094-0.457,9.924
						C116.021,159.454,114.811,165.559,113.922,166.637z"/>
					<path fill="#FDEEE4" stroke="#595A5C" stroke-miterlimit="10" d="M102.992,153.959c3.578-2.559,6.4-0.242,8.096,1.469
						c2.172,2.197-1.91,3.514-4.723,1.389c-0.232,0.329-0.572,0.541-1.172,0.614"/>
					<path fill="#FDEEE4" stroke="#595A5C" stroke-linecap="round" stroke-miterlimit="10" d="M103.936,155.939
						c2.736-0.395,4.379,0.22,6.074,1.932c2.172,2.196-1.555,2.689-3.52,1.352c-0.23,0.33-0.574,0.541-1.172,0.615"/>
					<path fill="#FDEEE4" stroke="#595A5C" stroke-linecap="round" stroke-miterlimit="10" d="M102.992,158.317
						c1.828-0.312,3.957,0.164,5.652,1.875c2.172,2.196-1.795,2.901-3.76,1.564c-0.23,0.328-0.574,0.538-1.172,0.61"/>
					<path fill="#FDEEE4" stroke="#595A5C" stroke-linecap="round" stroke-miterlimit="10" d="M101.896,161.248
						c2.549-0.637,3.518,0.213,4.74,1.217c2.389,1.961-1.588,2.611-3.557,1.274c-0.232,0.329-0.572,0.54-1.172,0.613"/>
				</g>
				
					<path fill="#C8DE8E" stroke="#595A5C" stroke-width="2" stroke-linecap="round" stroke-linejoin="round" stroke-miterlimit="10" d="
					M131.033,174.938c-13.016,0-16.563,12.407-22.59,16.014l-1.547,11.051c6.15,5.464,16.883-9.721,16.883-9.721"/>
				
					<path fill="#C8DE8E" stroke="#595A5C" stroke-width="2" stroke-linecap="round" stroke-linejoin="round" stroke-miterlimit="10" d="
					M114.914,193.195c1.016-6.626-0.109-16.023-0.25-23.079c-2.898,1.258-6.508,4.25-8.986,0.955
					c-0.676,6.799-6.873,23.616,1.219,30.931"/>
			</g>
			<path fill="none" stroke="#595A5C" stroke-width="2" stroke-miterlimit="10" d="M122.279,130.863
				c1.541-8.32,12.742-17.023,13.752-23.203c6.035,10.41,25.672,13.441,36.453,11.973c0,0,0.625,4.752,0.705,7.389
				c0.457-0.145,0.84-0.213,1.088-0.213c1.328,0,3.75,1.488,3.75,6.797c0,5.305-1.324,8.203-4.688,8.203
				c-0.553,0-1.064-0.092-1.553-0.225c-4.615,17.383-19.949,21.959-23.51,21.959c-3.598,0-20.348-4.666-24.414-22.52
				c-0.82,0.523-1.793,0.785-2.883,0.785c-3.363,0-4.688-2.898-4.688-8.203c0-5.309,2.422-6.797,3.75-6.797
				c0.469,0,1.523-0.16,2.684,0.457"/>
			
				<path fill="#C8DE8E" stroke="#595A5C" stroke-width="2" stroke-linecap="round" stroke-linejoin="round" stroke-miterlimit="10" d="
				M163.709,174.938c13.016,0,16.563,12.407,22.588,16.014l1.549,11.051c-6.15,5.464-16.883-9.721-16.883-9.721"/>
			<g>
				<path fill="#FDEEE4" stroke="#595A5C" stroke-width="2" stroke-miterlimit="10" d="M190.492,169.217l1.045,8.56l6.186-0.157
					l1.131-7.57c0,0,8.861-8.921,9.209-13.006c0.35-4.087-4.834-7.644-7.23-7.93c-1.623-0.193-9.533,8.425-15.1,11.39
					c-2.24-4.956-5.664-3.365-5.508-1.39C180.711,165.246,187.756,167.774,190.492,169.217z"/>
				<g>
					<g>
						<path fill="#F2F2F2" d="M204.5,160.63c0.164,1.018-0.534,1.985-1.553,2.149l-14.896,2.401
							c-1.019,0.165-1.986-0.534-2.15-1.552l-4.586-28.43c-0.164-1.019,0.534-1.986,1.553-2.15l14.893-2.403
							c1.019-0.164,1.986,0.534,2.15,1.552L204.5,160.63z"/>
						<path fill="none" stroke="#595A5C" stroke-width="2" stroke-miterlimit="10" d="M204.5,160.63
							c0.164,1.018-0.534,1.985-1.553,2.149l-14.896,2.401c-1.019,0.165-1.986-0.534-2.15-1.552l-4.586-28.43
							c-0.164-1.019,0.534-1.986,1.553-2.15l14.893-2.403c1.019-0.164,1.986,0.534,2.15,1.552L204.5,160.63z"/>
					</g>
					<g>
						<path fill="#4272A0" d="M201.264,155.295c0.055,0.34-0.178,0.662-0.518,0.717l-12.736,2.055
							c-0.34,0.055-0.662-0.178-0.717-0.518l-3.23-20.01c-0.055-0.34,0.178-0.662,0.518-0.717l12.738-2.053
							c0.34-0.055,0.662,0.178,0.717,0.518L201.264,155.295z"/>
					</g>
					<path fill="#595A5C" d="M196.641,160.209c0.154,0.947-0.486,1.833-1.432,1.985c-0.941,0.15-1.83-0.491-1.982-1.433
						c-0.15-0.943,0.492-1.831,1.432-1.983C195.602,158.627,196.488,159.271,196.641,160.209z"/>
					
						<line fill="none" stroke="#595A5C" stroke-linecap="round" stroke-miterlimit="10" x1="187.176" y1="134.415" x2="194.104" y2="133.297"/>
				</g>
				<path fill="#FDEEE4" stroke="#595A5C" stroke-width="2" stroke-miterlimit="10" d="M205.406,149.989
					c0.695-6.113,0.26-10.745-1.881-11.858c-2.74-1.422-4.002,1.359-2.523,3.217c1.482,1.857,1.889,2.922,1.477,4.66"/>
				<path fill="#FDEEE4" stroke="#595A5C" stroke-width="2" stroke-miterlimit="10" d="M206.813,152.141
					c0.604-4.288-4.115-7.331-6.527-7.283c-3.086,0.061-2.865,3.107-0.676,4.028c2.191,0.924,3.055,1.665,3.525,3.388"/>
				<path fill="#FDEEE4" stroke="#595A5C" stroke-width="2" stroke-miterlimit="10" d="M207.193,154.143
					c0.83-3.13-3.994-6.229-6.406-6.184c-3.086,0.063-2.865,3.11-0.678,4.031c2.191,0.924,3.055,1.664,3.527,3.387"/>
				<path fill="#FDEEE4" stroke="#595A5C" stroke-width="2" stroke-miterlimit="10" d="M208.148,156.693
					c-0.525-4.365-3.543-4.561-5.951-4.657c-3.086-0.121-1.988,2.665,0.324,3.215c2.313,0.548,1.146,0.222,1.494,2.366"/>
			</g>
			
				<path fill="#C8DE8E" stroke="#595A5C" stroke-width="2" stroke-linecap="round" stroke-linejoin="round" stroke-miterlimit="10" d="
				M182.322,191.24c1.186-6.597,5.664-12.546,8.082-19.177c2.334,2.13,5.588,2.599,9.002,0.286
				c-1.564,6.649-3.502,26.539-13.525,30.839"/>
		</g>
		<g>
			<g>
				<path fill="#BAD8F2" d="M121.217,220.853c-0.159,0-0.319-0.038-0.465-0.115l-4.091-2.151l-4.093,2.151
					c-0.146,0.077-0.306,0.115-0.465,0.115c-0.208,0-0.414-0.064-0.588-0.191c-0.308-0.224-0.462-0.603-0.397-0.978l0.782-4.558
					l-3.311-3.228c-0.272-0.266-0.371-0.663-0.253-1.024c0.118-0.362,0.431-0.626,0.808-0.681l4.575-0.665l2.047-4.146
					c0.168-0.342,0.516-0.558,0.896-0.558s0.728,0.216,0.896,0.558l2.047,4.146l4.574,0.665c0.376,0.055,0.689,0.318,0.807,0.681
					c0.118,0.361,0.02,0.759-0.253,1.024l-3.311,3.228l0.782,4.558c0.064,0.375-0.089,0.754-0.397,0.978
					C121.63,220.788,121.424,220.853,121.217,220.853z"/>
				<path fill="#595A5C" d="M116.66,205.825l2.279,4.617l5.094,0.74l-3.688,3.595l0.871,5.075l-4.557-2.396l-4.559,2.396
					l0.871-5.075l-3.688-3.595l5.096-0.74L116.66,205.825 M116.66,203.825c-0.761,0-1.457,0.433-1.793,1.114l-1.814,3.675
					l-4.055,0.589c-0.753,0.109-1.379,0.638-1.614,1.361c-0.235,0.724-0.04,1.519,0.506,2.051l2.935,2.86l-0.693,4.039
					c-0.129,0.75,0.18,1.509,0.795,1.956c0.349,0.253,0.761,0.382,1.176,0.382c0.318,0,0.638-0.076,0.931-0.229l3.628-1.907
					l3.625,1.907c0.293,0.153,0.612,0.229,0.931,0.229c0.415,0,0.827-0.129,1.176-0.382c0.616-0.447,0.924-1.206,0.795-1.956
					l-0.693-4.039l2.935-2.86c0.545-0.532,0.741-1.326,0.506-2.051c-0.235-0.724-0.861-1.252-1.615-1.361l-4.053-0.589l-1.814-3.675
					C118.117,204.258,117.421,203.825,116.66,203.825L116.66,203.825z"/>
			</g>
			<g>
				<path fill="#BAD8F2" d="M137.467,220.853c-0.159,0-0.319-0.038-0.465-0.115l-4.091-2.151l-4.093,2.151
					c-0.146,0.077-0.306,0.115-0.465,0.115c-0.208,0-0.414-0.064-0.588-0.191c-0.308-0.224-0.462-0.603-0.397-0.978l0.782-4.558
					l-3.311-3.228c-0.272-0.266-0.371-0.663-0.253-1.024c0.118-0.362,0.431-0.626,0.808-0.681l4.575-0.665l2.047-4.146
					c0.168-0.342,0.516-0.558,0.896-0.558s0.728,0.216,0.896,0.558l2.047,4.146l4.574,0.665c0.376,0.055,0.689,0.318,0.807,0.681
					c0.118,0.361,0.02,0.759-0.253,1.024l-3.311,3.228l0.782,4.558c0.064,0.375-0.089,0.754-0.397,0.978
					C137.88,220.788,137.674,220.853,137.467,220.853z"/>
				<path fill="#595A5C" d="M132.91,205.825l2.279,4.617l5.094,0.74l-3.688,3.595l0.871,5.075l-4.557-2.396l-4.559,2.396
					l0.871-5.075l-3.688-3.595l5.096-0.74L132.91,205.825 M132.91,203.825c-0.761,0-1.457,0.433-1.793,1.114l-1.814,3.675
					l-4.055,0.589c-0.753,0.109-1.379,0.638-1.614,1.361c-0.235,0.724-0.04,1.519,0.506,2.051l2.935,2.86l-0.693,4.039
					c-0.129,0.75,0.18,1.509,0.795,1.956c0.349,0.253,0.761,0.382,1.176,0.382c0.318,0,0.638-0.076,0.931-0.229l3.628-1.907
					l3.625,1.907c0.293,0.153,0.612,0.229,0.931,0.229c0.415,0,0.827-0.129,1.176-0.382c0.616-0.447,0.924-1.206,0.795-1.956
					l-0.693-4.039l2.935-2.86c0.545-0.532,0.741-1.326,0.506-2.051c-0.235-0.724-0.861-1.252-1.615-1.361l-4.053-0.589l-1.814-3.675
					C134.367,204.258,133.671,203.825,132.91,203.825L132.91,203.825z"/>
			</g>
			<g>
				<path fill="#BAD8F2" d="M153.717,220.853c-0.159,0-0.319-0.038-0.465-0.115l-4.091-2.151l-4.093,2.151
					c-0.146,0.077-0.306,0.115-0.465,0.115c-0.208,0-0.414-0.064-0.588-0.191c-0.308-0.224-0.462-0.603-0.397-0.978l0.782-4.558
					l-3.311-3.228c-0.272-0.266-0.371-0.663-0.253-1.024c0.118-0.362,0.431-0.626,0.808-0.681l4.575-0.665l2.047-4.146
					c0.168-0.342,0.516-0.558,0.896-0.558s0.728,0.216,0.896,0.558l2.047,4.146l4.574,0.665c0.376,0.055,0.689,0.318,0.807,0.681
					c0.118,0.361,0.02,0.759-0.253,1.024l-3.311,3.228l0.782,4.558c0.064,0.375-0.089,0.754-0.397,0.978
					C154.13,220.788,153.924,220.853,153.717,220.853z"/>
				<path fill="#595A5C" d="M149.16,205.825l2.279,4.617l5.094,0.74l-3.688,3.595l0.871,5.075l-4.557-2.396l-4.559,2.396
					l0.871-5.075l-3.688-3.595l5.096-0.74L149.16,205.825 M149.16,203.825c-0.761,0-1.457,0.433-1.793,1.114l-1.814,3.675
					l-4.055,0.589c-0.753,0.109-1.379,0.638-1.614,1.361c-0.235,0.724-0.04,1.519,0.506,2.051l2.935,2.86l-0.693,4.039
					c-0.129,0.75,0.18,1.509,0.795,1.956c0.349,0.253,0.761,0.382,1.176,0.382c0.318,0,0.638-0.076,0.931-0.229l3.628-1.907
					l3.625,1.907c0.293,0.153,0.612,0.229,0.931,0.229c0.415,0,0.827-0.129,1.176-0.382c0.616-0.447,0.924-1.206,0.795-1.956
					l-0.693-4.039l2.935-2.86c0.545-0.532,0.741-1.326,0.506-2.051c-0.235-0.724-0.861-1.252-1.615-1.361l-4.053-0.589l-1.814-3.675
					C150.617,204.258,149.921,203.825,149.16,203.825L149.16,203.825z"/>
			</g>
			<g>
				<path fill="#BAD8F2" d="M169.967,220.853c-0.159,0-0.319-0.038-0.465-0.115l-4.091-2.151l-4.093,2.151
					c-0.146,0.077-0.306,0.115-0.465,0.115c-0.208,0-0.414-0.064-0.588-0.191c-0.308-0.224-0.462-0.603-0.397-0.978l0.782-4.558
					l-3.311-3.228c-0.272-0.266-0.371-0.663-0.253-1.024c0.118-0.362,0.431-0.626,0.808-0.681l4.575-0.665l2.047-4.146
					c0.168-0.342,0.516-0.558,0.896-0.558s0.728,0.216,0.896,0.558l2.047,4.146l4.574,0.665c0.376,0.055,0.689,0.318,0.807,0.681
					c0.118,0.361,0.02,0.759-0.253,1.024l-3.311,3.228l0.782,4.558c0.064,0.375-0.089,0.754-0.397,0.978
					C170.38,220.788,170.174,220.853,169.967,220.853z"/>
				<path fill="#595A5C" d="M165.41,205.825l2.279,4.617l5.094,0.74l-3.688,3.595l0.871,5.075l-4.557-2.396l-4.559,2.396
					l0.871-5.075l-3.688-3.595l5.096-0.74L165.41,205.825 M165.41,203.825c-0.761,0-1.457,0.433-1.793,1.114l-1.814,3.675
					l-4.055,0.589c-0.753,0.109-1.379,0.638-1.614,1.361c-0.235,0.724-0.04,1.519,0.506,2.051l2.935,2.86l-0.693,4.039
					c-0.129,0.75,0.18,1.509,0.795,1.956c0.349,0.253,0.761,0.382,1.176,0.382c0.318,0,0.638-0.076,0.931-0.229l3.628-1.907
					l3.625,1.907c0.293,0.153,0.612,0.229,0.931,0.229c0.415,0,0.827-0.129,1.176-0.382c0.616-0.447,0.924-1.206,0.795-1.956
					l-0.693-4.039l2.935-2.86c0.545-0.532,0.741-1.326,0.506-2.051c-0.235-0.724-0.861-1.252-1.615-1.361l-4.053-0.589l-1.814-3.675
					C166.867,204.258,166.171,203.825,165.41,203.825L165.41,203.825z"/>
			</g>
			<g>
				<path fill="#BAD8F2" d="M186.217,220.853c-0.159,0-0.319-0.038-0.465-0.115l-4.091-2.151l-4.093,2.151
					c-0.146,0.077-0.306,0.115-0.465,0.115c-0.208,0-0.414-0.064-0.588-0.191c-0.308-0.224-0.462-0.603-0.397-0.978l0.782-4.558
					l-3.311-3.228c-0.272-0.266-0.371-0.663-0.253-1.024c0.118-0.362,0.431-0.626,0.808-0.681l4.575-0.665l2.047-4.146
					c0.168-0.342,0.516-0.558,0.896-0.558s0.728,0.216,0.896,0.558l2.047,4.146l4.574,0.665c0.376,0.055,0.689,0.318,0.807,0.681
					c0.118,0.361,0.02,0.759-0.253,1.024l-3.311,3.228l0.782,4.558c0.064,0.375-0.089,0.754-0.397,0.978
					C186.63,220.788,186.424,220.853,186.217,220.853z"/>
				<path fill="#595A5C" d="M181.66,205.825l2.279,4.617l5.094,0.74l-3.688,3.595l0.871,5.075l-4.557-2.396l-4.559,2.396
					l0.871-5.075l-3.688-3.595l5.096-0.74L181.66,205.825 M181.66,203.825c-0.761,0-1.457,0.433-1.793,1.114l-1.814,3.675
					l-4.055,0.589c-0.753,0.109-1.379,0.638-1.614,1.361c-0.235,0.724-0.04,1.519,0.506,2.051l2.935,2.86l-0.693,4.039
					c-0.129,0.75,0.18,1.509,0.795,1.956c0.349,0.253,0.761,0.382,1.176,0.382c0.318,0,0.638-0.076,0.931-0.229l3.628-1.907
					l3.625,1.907c0.293,0.153,0.612,0.229,0.931,0.229c0.415,0,0.827-0.129,1.176-0.382c0.616-0.447,0.924-1.206,0.795-1.956
					l-0.693-4.039l2.935-2.86c0.545-0.532,0.741-1.326,0.506-2.051c-0.235-0.724-0.861-1.252-1.615-1.361l-4.053-0.589l-1.814-3.675
					C183.117,204.258,182.421,203.825,181.66,203.825L181.66,203.825z"/>
			</g>
		</g>
	</g>
	<g>
		<polygon fill="#C49967" stroke="#595A5C" stroke-width="2" stroke-miterlimit="10" points="75.921,205.738 36.403,148.016 
			41.452,134.713 55.679,134.518 95.196,192.24 80.972,192.436 		"/>
		<polygon fill="#C49967" stroke="#595A5C" stroke-width="2" stroke-miterlimit="10" points="26.185,192.24 65.702,134.518 
			79.929,134.713 84.978,148.016 45.46,205.738 40.411,192.438 		"/>
		<g>
			<g>
				<g>
					<path fill="#D0AB81" d="M98.171,153.432c0,1.926-4.126,3.505-4.416,5.349c-0.297,1.894,3.137,4.666,2.558,6.449
						c-0.59,1.815-5.002,2.04-5.857,3.717c-0.865,1.693,1.539,5.396,0.428,6.923c-1.116,1.534-5.381,0.386-6.72,1.725
						c-1.338,1.338-0.189,5.604-1.724,6.72c-1.526,1.11-5.229-1.293-6.923-0.429c-1.676,0.856-1.9,5.269-3.715,5.858
						c-1.784,0.579-4.557-2.855-6.449-2.558c-1.845,0.29-3.424,4.416-5.35,4.416s-3.505-4.126-5.35-4.416
						c-1.893-0.297-4.666,3.137-6.449,2.558c-1.814-0.59-2.039-5.002-3.716-5.858c-1.694-0.864-5.397,1.539-6.924,0.429
						c-1.534-1.116-0.386-5.382-1.724-6.72c-1.339-1.339-5.604-0.19-6.72-1.725c-1.111-1.526,1.293-5.229,0.428-6.923
						c-0.855-1.676-5.268-1.9-5.857-3.716c-0.579-1.783,2.854-4.557,2.558-6.449c-0.29-1.844-4.416-3.424-4.416-5.35
						s4.126-3.505,4.416-5.35c0.297-1.893-3.137-4.665-2.558-6.449c0.59-1.814,5.002-2.039,5.857-3.716
						c0.865-1.694-1.539-5.396-0.428-6.924c1.116-1.533,5.381-0.386,6.72-1.724c1.338-1.339,0.189-5.604,1.724-6.72
						c1.526-1.111,5.229,1.293,6.924,0.428c1.676-0.855,1.9-5.268,3.716-5.857c1.783-0.579,4.557,2.854,6.449,2.558
						c1.845-0.29,3.424-4.416,5.35-4.416c1.925,0,3.505,4.126,5.349,4.416c1.893,0.297,4.666-3.137,6.449-2.558
						c1.815,0.59,2.04,5.002,3.716,5.858c1.694,0.864,5.396-1.539,6.923-0.429c1.534,1.117,0.386,5.382,1.725,6.721
						c1.338,1.338,5.603,0.189,6.719,1.724c1.111,1.526-1.293,5.229-0.428,6.923c0.855,1.677,5.268,1.902,5.856,3.717
						c0.579,1.783-2.854,4.556-2.557,6.448C94.045,149.926,98.171,151.506,98.171,153.432z"/>
					<path fill="none" stroke="#595A5C" stroke-width="2" stroke-miterlimit="10" d="M98.171,153.432
						c0,1.926-4.126,3.505-4.416,5.349c-0.297,1.894,3.137,4.666,2.558,6.449c-0.59,1.815-5.002,2.04-5.857,3.717
						c-0.865,1.693,1.539,5.396,0.428,6.923c-1.116,1.534-5.381,0.386-6.72,1.725c-1.338,1.338-0.189,5.604-1.724,6.72
						c-1.526,1.11-5.229-1.293-6.923-0.429c-1.676,0.856-1.9,5.269-3.715,5.858c-1.784,0.579-4.557-2.855-6.449-2.558
						c-1.845,0.29-3.424,4.416-5.35,4.416s-3.505-4.126-5.35-4.416c-1.893-0.297-4.666,3.137-6.449,2.558
						c-1.814-0.59-2.039-5.002-3.716-5.858c-1.694-0.864-5.397,1.539-6.924,0.429c-1.534-1.116-0.386-5.382-1.724-6.72
						c-1.339-1.339-5.604-0.19-6.72-1.725c-1.111-1.526,1.293-5.229,0.428-6.923c-0.855-1.676-5.268-1.9-5.857-3.716
						c-0.579-1.783,2.854-4.557,2.558-6.449c-0.29-1.844-4.416-3.424-4.416-5.35s4.126-3.505,4.416-5.35
						c0.297-1.893-3.137-4.665-2.558-6.449c0.59-1.814,5.002-2.039,5.857-3.716c0.865-1.694-1.539-5.396-0.428-6.924
						c1.116-1.533,5.381-0.386,6.72-1.724c1.338-1.339,0.189-5.604,1.724-6.72c1.526-1.111,5.229,1.293,6.924,0.428
						c1.676-0.855,1.9-5.268,3.716-5.857c1.783-0.579,4.557,2.854,6.449,2.558c1.845-0.29,3.424-4.416,5.35-4.416
						c1.925,0,3.505,4.126,5.349,4.416c1.893,0.297,4.666-3.137,6.449-2.558c1.815,0.59,2.04,5.002,3.716,5.858
						c1.694,0.864,5.396-1.539,6.923-0.429c1.534,1.117,0.386,5.382,1.725,6.721c1.338,1.338,5.603,0.189,6.719,1.724
						c1.111,1.526-1.293,5.229-0.428,6.923c0.855,1.677,5.268,1.902,5.856,3.717c0.579,1.783-2.854,4.556-2.557,6.448
						C94.045,149.926,98.171,151.506,98.171,153.432z"/>
				</g>
				<circle fill="#FFFFFF" cx="60.002" cy="153.432" r="26.045"/>
			</g>
			<g>
				<path fill-rule="evenodd" clip-rule="evenodd" fill="#C49967" d="M77.063,143.5c-0.182-0.586-0.416-1.158-0.635-1.734
					c-0.553-1.459-1.57-2.451-3.07-2.877c-1.281-0.365-2.582-0.658-3.879-0.959c-0.914-0.211-1.848-0.34-2.752-0.58
					c-1.367-0.361-2.732-0.67-4.16-0.594c-0.984,0.053-1.971,0.082-2.953,0.137c-1.557,0.082-3.094,0.301-4.598,0.711
					c-0.811,0.223-1.635,0.4-2.434,0.656c-1.502,0.484-3.033,0.914-4.477,1.543c-1.344,0.588-2.271,1.66-2.465,3.193
					c-0.063,0.482-0.256,0.766-0.719,0.895c-0.162,0.045-0.318,0.137-0.461,0.232c-0.738,0.488-1.395,1.072-1.541,1.994
					c-0.133,0.855-0.15,1.732,0.289,2.531c0.209,0.383,0.199,0.699,0.018,1.104c-0.344,0.771-0.342,1.607-0.043,2.383
					c0.533,1.387,1.541,2.342,2.93,2.865c1.043,0.396,2.127,0.627,3.256,0.602c0.264-0.006,0.529,0.031,0.883,0.057
					c-0.047,0.367-0.066,0.611-0.115,0.848c-0.473,2.398-0.951,4.793-1.42,7.191c-0.215,1.09-0.396,2.184-0.35,3.305
					c0.039,0.891,0.318,1.682,1.084,2.16c0.488,0.307,1.072,0.563,1.637,0.621c1.592,0.166,3.195,0.285,4.795,0.305
					c3.83,0.043,7.66,0.027,11.49,0.016c0.861-0.004,1.729-0.051,2.582-0.15c2.473-0.285,3.219-1.898,2.992-3.621
					c-0.289-2.174-0.678-4.338-1.092-6.492c-0.445-2.328-0.957-4.643-1.467-6.955c-0.234-1.059-0.465-2.127-0.826-3.145
					c-0.359-1.02-1.176-1.529-2.283-1.584c-1.1-0.055-2.168,0.066-3.215,0.398c-0.234,0.074-0.475,0.154-0.717,0.182
					c-1.996,0.209-3.977,0.266-5.959-0.217c-0.926-0.225-1.902-0.301-2.859-0.326c-1.395-0.037-2.398,0.648-2.98,1.922
					c-0.141,0.313-0.27,0.641-0.348,0.975c-0.172,0.744-0.316,1.496-0.463,2.246c-0.17,0.869-0.215,0.969-1.115,0.889
					c-0.977-0.088-1.965-0.229-2.908-0.488c-1.078-0.295-1.826-1.055-2.234-2.111c-0.129-0.334-0.23-0.689,0.061-1.047
					c0.213,0.152,0.393,0.279,0.57,0.408c0.607,0.445,1.275,0.748,2.027,0.846c0.951,0.125,1.824-0.074,2.582-0.662
					c0.914-0.711,0.953-1.801,0.162-2.635c-0.646-0.68-1.473-0.877-2.344-0.955c-1.021-0.094-2.016,0.025-2.9,0.57
					c-0.822-1.186-0.441-2.496,0.76-2.82c0.029,0.037,0.09,0.072,0.092,0.107c0.01,0.805,0.545,0.996,1.213,1.111
					c0.891,0.156,1.766,0.148,2.65-0.01c1.535-0.277,3.043-0.643,4.439-1.369c0.557-0.287,0.631-0.492,0.393-1.072
					c-0.131-0.318-0.297-0.623-0.451-0.934c-0.457-0.914-0.379-1.451,0.48-2.023c0.605-0.404,1.289-0.756,1.986-0.951
					c2.629-0.736,5.324-0.564,8.006-0.424c0.682,0.035,1.361,0.23,2.025,0.412c0.82,0.225,1.352,0.791,1.613,1.594
					c0.045,0.143,0.033,0.344-0.031,0.477c-0.576,1.137-0.363,2.023,0.697,2.727c0.939,0.621,1.975,1.002,3.078,1.223
					c1.568,0.313,3.094,0.166,4.58-0.4c0.242-0.092,0.533-0.232,0.654-0.439C77.157,144.789,77.263,144.145,77.063,143.5z
					 M48.595,149.287c0.176,0.072,0.434,0.365,0.396,0.457c-0.084,0.223-0.291,0.49-0.504,0.553
					c-0.645,0.191-1.322,0.23-1.947-0.086c-0.385-0.197-0.732-0.469-1.227-0.793C46.519,148.742,47.56,148.854,48.595,149.287z"/>
			</g>
		</g>
	</g>
</g>
</svg>
