<svg xmlns="http://www.w3.org/2000/svg" xmlns:xlink="http://www.w3.org/1999/xlink" version="1.1" x="0px" y="0px" viewBox="0 0 48 60" enable-background="new 0 0 48 48" xml:space="preserve"><g><g><g><rect x="1" y="2.6" fill="#000000" width="3.3" height="44.4"/></g></g><g><g><rect x="1" y="43.7" fill="#000000" width="43.9" height="3.3"/></g></g><g><g><path fill="#000000" d="M8.6,24c-0.3,0-0.5-0.1-0.7-0.3c-0.4-0.4-0.4-1,0-1.4l10.9-10.4c0.4-0.3,0.9-0.4,1.3-0.1l8.8,7l12-12.6     c0.4-0.4,1-0.4,1.4,0c0.4,0.4,0.4,1,0,1.4L29.7,20.8c-0.4,0.4-0.9,0.4-1.3,0.1l-8.8-7L9.2,23.8C9.1,24,8.8,24,8.6,24z"/></g></g><g><g><polygon fill="#000000" points="9.6,47 12.8,47 12.8,25.7 9.6,28.8    "/></g></g><g><g><polygon fill="#000000" points="18.2,20.6 18.2,47 21.4,47 21.4,20.9 19.5,19.4    "/></g></g><g><g><polygon fill="#000000" points="26.7,25.1 26.7,47 30,47 30,27.9 29,26.9    "/></g></g><g><g><polygon fill="#000000" points="35.3,20.2 35.3,47 38.6,47 38.6,16.8    "/></g></g><g><g><polygon fill="#000000" points="47,1 36.1,3.4 44.6,12.1    "/></g></g></g><text x="0" y="63" fill="#000000" font-size="5px" font-weight="bold" font-family="'Helvetica Neue', Helvetica, Arial-Unicode, Arial, Sans-serif"></text><text x="0" y="68" fill="#000000" font-size="5px" font-weight="bold" font-family="'Helvetica Neue', Helvetica, Arial-Unicode, Arial, Sans-serif"></text></svg>