<?xml version="1.0" encoding="UTF-8"?>
<svg width="162px" height="45px" viewBox="0 0 162 45" version="1.1" xmlns="http://www.w3.org/2000/svg" xmlns:xlink="http://www.w3.org/1999/xlink">
    <!-- Generator: Sketch 46.2 (44496) - http://www.bohemiancoding.com/sketch -->
    <title>logoebph-forsvg</title>
    <desc>Created with Sketch.</desc>
    <defs></defs>
    <g id="Page-1" stroke="none" stroke-width="1" fill="none" fill-rule="evenodd">
        <g id="logoebph-forsvg" fill-rule="nonzero">
            <polygon id="Shape" fill="#FFFFFF" points="0 0 161.122881 0 161.122881 45 0 45"></polygon>
            <path d="M88.8559322,3.05275424 C90.6387712,2.96313559 92.2023305,3.47415254 93.9069915,3.87457627 C95.8137712,4.21588983 97.7129237,4.59533898 99.5853814,5.10254237 C100.716102,5.41525424 101.926907,5.66504237 102.893644,6.36101695 C103.980508,7.12563559 104.666949,8.25254237 105.059746,9.50529661 C105.24661,10.1478814 105.517373,10.7733051 105.668008,11.4254237 C105.725212,12.0451271 105.504025,12.7258475 105.357203,13.3226695 C102.191949,15.0158898 97.9665254,14.5525424 95.1139831,12.4264831 C94.0900424,11.7476695 93.9966102,10.0506356 94.8966102,9.2440678 C94.6334746,8.7559322 94.4313559,8.18008475 94.0614407,7.76440678 C93.4989407,7.21716102 92.6122881,6.94830508 91.8629237,6.7690678 C90.0190678,6.37436441 88.0665254,6.33241525 86.1864407,6.37817797 C84.4970339,6.38580508 82.7733051,6.52881356 81.1315678,6.94258475 C80.1743644,7.19427966 79.1523305,7.56800847 78.395339,8.22394068 C77.9319915,8.62055085 77.5773305,9.12394068 77.5048729,9.74364407 C77.9205508,10.6913136 78.4677966,11.5474576 78.7137712,12.5713983 C77.3885593,13.3474576 75.9470339,13.8622881 74.457839,14.2226695 C72.4118644,14.6993644 70.3925847,14.9758475 68.3675847,14.2302966 C68.2894068,13.7745763 68.2112288,13.3188559 68.1311441,12.8631356 C67.5057203,13.2883475 66.9108051,13.6163136 66.6762712,14.3923729 C66.3883475,15.1436441 66.7506356,15.9139831 66.9584746,16.6347458 C67.6983051,16.2743644 68.3675847,15.9158898 69.204661,15.8434322 C70.6538136,15.7099576 72.3146186,15.9216102 73.4091102,16.9722458 C74.1851695,17.6834746 74.2175847,18.9667373 73.5177966,19.7408898 C72.5739407,20.8239407 70.9436441,21.0927966 69.6012712,20.7591102 C68.4705508,20.5036017 67.6983051,19.8305085 66.8269068,19.125 C66.4951271,20.6752119 67.517161,21.9832627 68.7527542,22.7707627 C70.4021186,23.7184322 72.3641949,23.7699153 74.215678,23.7146186 C74.5798729,21.9603814 74.7266949,19.817161 75.6591102,18.2707627 C76.1949153,17.3440678 77.1273305,16.7815678 78.1798729,16.6538136 C79.9074153,16.4192797 81.8466102,16.8807203 83.5341102,17.2258475 C85.0957627,17.4375 86.7088983,17.3497881 88.2819915,17.3211864 C90.0190678,17.290678 91.5139831,16.4402542 93.2434322,16.4860169 C94.3779661,16.4955508 95.4934322,16.6404661 96.2408898,17.5900424 C96.9864407,18.5815678 97.2457627,20.0192797 97.5127119,21.2110169 C98.4565678,25.8139831 99.5243644,30.4474576 100.260381,35.0847458 C100.500636,36.5033898 100.885805,38.0402542 100.670339,39.4798729 C100.51589,40.4847458 99.9152542,41.3447034 98.9923729,41.7851695 C97.390678,42.5841102 95.5487288,42.3934322 93.8135593,42.4735169 C88.0341102,42.4449153 82.2298729,42.5802966 76.4580508,42.2790254 C75.2872881,42.2103814 73.9449153,42.1283898 72.9324153,41.4724576 C72.1677966,40.9805085 71.757839,40.1720339 71.6434322,39.2853814 C71.4699153,37.8419492 71.740678,36.3088983 72.0209746,34.892161 C72.6826271,31.7154661 73.3099576,28.5311441 73.9105932,25.3430085 C72.2154661,25.3849576 70.5756356,25.2495763 68.9815678,24.6451271 C67.4523305,24.057839 66.1061441,22.8336864 65.4673729,21.3177966 C64.9887712,20.1260593 65.1413136,18.865678 65.7896186,17.7730932 C65.0707627,16.407839 64.6627119,14.9205508 65.3396186,13.4466102 C65.9536017,12.1900424 67.0728814,11.5817797 68.3313559,11.1069915 C68.321822,9.74936441 68.7584746,8.69682203 69.7004237,7.73199153 C70.5298729,6.81864407 71.5957627,6.37245763 72.7417373,5.98538136 C74.3834746,5.44957627 76.0423729,4.96334746 77.7012712,4.48283898 C79.3563559,4.00423729 80.9904661,3.56949153 82.7122881,3.40741525 C84.7754237,3.13665254 86.7737288,3.00889831 88.8559322,3.05275424 Z" id="Shape" fill="#FFFFFF"></path>
            <path d="M14.5925847,16.7377119 C15.3247881,16.8483051 16.2228814,17.021822 16.7891949,17.5290254 C17.3879237,18.0629237 17.4375,19.0582627 17.3002119,19.7904661 C17.1400424,20.4883475 16.2610169,20.8811441 15.7042373,21.2358051 C15.1341102,21.6591102 14.2779661,21.5389831 13.6811441,21.2377119 C13.3055085,21.0336864 13.2177966,20.6408898 13.0538136,20.2786017 C13.3474576,19.8533898 13.6411017,19.4300847 13.9175847,18.9972458 C13.3684322,18.7417373 12.8173729,18.5949153 12.2072034,18.5891949 C11.0192797,18.5491525 9.63686441,18.7646186 8.71779661,19.5845339 C8.28305085,19.9620763 8.32309322,20.4521186 8.23919492,20.9726695 C8.02563559,22.9080508 7.52415254,24.7728814 7.12372881,26.6949153 C8.62436441,26.5614407 10.125,26.4260593 11.6256356,26.2887712 C12.1347458,26.2353814 12.6305085,26.2925847 13.1300847,26.3936441 C12.7525424,26.9351695 12.3807203,27.7970339 11.6504237,27.8980932 C10.0754237,28.2622881 8.44894068,28.5463983 6.91207627,29.0516949 C6.76525424,29.0936441 6.68707627,29.1908898 6.67563559,29.3415254 C6.47923729,30.6629237 6.45063559,32.0396186 6.50021186,33.3724576 C6.52309322,34.0379237 6.89872881,34.6995763 7.53368644,34.9417373 C8.73495763,35.1877119 9.8904661,35.0237288 11.0440678,34.6519068 C12.2243644,34.2838983 13.4199153,34.234322 14.6459746,34.2724576 C14.6574153,34.6442797 14.7470339,34.9951271 14.5449153,35.3269068 C14.304661,35.7845339 13.8394068,36.0362288 13.4161017,36.2993644 C10.8057203,37.8247881 7.61186441,38.457839 4.66207627,37.6398305 C3.90699153,37.367161 3.07182203,37.1173729 2.79533898,36.2745763 C2.3815678,35.0885593 2.42733051,33.6889831 2.61038136,32.4629237 C2.98411017,29.9574153 3.72394068,27.4194915 4.34173729,24.9635593 C4.63347458,23.7622881 4.97669492,22.595339 5.12161017,21.3635593 C4.78029661,21.1652542 4.27690678,21.0622881 4.14533898,20.6447034 C3.87648305,19.895339 4.2845339,18.9133475 4.95381356,18.4995763 C5.76800847,17.921822 6.62605932,17.8188559 7.52987288,17.4489407 C9.72838983,16.5279661 12.2567797,16.4307203 14.5925847,16.7377119 Z" id="Shape" fill="#FFFFFF"></path>
            <path d="M69.975,17.3669492 C70.9894068,17.454661 71.9427966,17.5824153 72.5834746,18.4652542 C72.0991525,18.917161 71.645339,19.2794492 70.9455508,19.2794492 C69.6756356,19.3938559 68.7756356,18.7283898 67.8947034,17.9141949 C68.5544492,17.645339 69.2485169,17.3497881 69.975,17.3669492 Z" id="Shape" fill="#4999F1"></path>
            <path d="M62.7254237,18.9743644 C63.2059322,19.0144068 63.354661,19.4052966 63.3108051,19.8324153 C63.1735169,20.8620763 62.7997881,21.8497881 62.6586864,22.8832627 C62.3764831,24.8491525 62.0256356,26.8112288 61.8444915,28.7885593 C62.9523305,27.7760593 64.159322,26.921822 65.457839,26.1724576 C65.9326271,25.9188559 66.5618644,25.5260593 67.1148305,25.6728814 C67.5476695,25.7930085 68.0834746,26.1896186 67.8756356,26.6987288 C67.4389831,28.3347458 67.4771186,30.15 67.3646186,31.8413136 C67.3455508,33.0540254 67.0805085,34.2533898 67.1033898,35.4622881 C67.0995763,36.1925847 67.5286017,36.692161 67.6544492,37.3747881 C67.5591102,37.8991525 66.9622881,38.2595339 66.5389831,38.5112288 C65.8430085,38.9116525 65.007839,39.1690678 64.2699153,38.7114407 C63.7817797,38.3701271 63.7875,37.7294492 63.8161017,37.1955508 C63.9743644,35.0866525 64.5654661,32.9872881 64.8019068,30.8879237 C64.8838983,30.2262712 64.8095339,29.5798729 64.6588983,28.9353814 C64.1898305,29.1184322 63.7550847,29.2728814 63.4557203,29.7057203 C62.4527542,31.0347458 61.8540254,32.7298729 61.3735169,34.3086864 C61.1313559,35.0580508 61.0722458,35.853178 60.8224576,36.5949153 C60.7461864,36.8599576 60.3495763,36.9858051 60.1169492,37.0716102 C59.5849576,37.2279661 58.9366525,37.3213983 58.4027542,37.1459746 C57.8669492,36.9400424 58.0480932,36.2879237 58.0557203,35.8436441 C58.4161017,32.6059322 59.0033898,29.3853814 59.5105932,26.1648305 C59.8213983,24.3247881 60.0730932,22.4618644 60.4754237,20.6370763 C60.5879237,20.2423729 60.6165254,19.8629237 60.9902542,19.6188559 C61.4745763,19.271822 62.117161,18.9476695 62.7254237,18.9743644 Z" id="Shape" fill="#FFFFFF"></path>
            <path d="M120.134746,18.9877119 C120.558051,19.0697034 120.693432,19.4415254 120.647669,19.8305085 C120.518008,20.8620763 120.129025,21.8440678 119.997458,22.8813559 C119.720975,24.8548729 119.354873,26.8264831 119.183263,28.8133475 C120.373093,27.675 121.763136,26.7387712 123.204661,25.9493644 C123.837712,25.615678 124.453602,25.4688559 125.033263,26.0008475 C125.511864,26.3936441 125.086653,27.0019068 125.037076,27.4995763 C124.697669,29.5836864 124.804449,31.7459746 124.5375,33.8396186 C124.47839,34.4383475 124.381144,35.065678 124.445975,35.6644068 C124.520339,36.2917373 124.875,36.7741525 124.998941,37.3728814 C124.878814,37.9182203 124.245763,38.3014831 123.791949,38.5569915 C123.115042,38.9269068 122.338983,39.1423729 121.625847,38.7286017 C121.128178,38.3891949 121.112924,37.721822 121.151059,37.1802966 C121.322669,35.0199153 121.936653,32.8633475 122.157839,30.7067797 C122.224576,30.1061441 122.150212,29.5379237 121.976695,28.9620763 C121.238771,29.1813559 120.905085,29.4711864 120.495127,30.115678 C119.379661,31.9423729 118.676059,34.0455508 118.29661,36.1430085 C118.208898,36.4404661 118.199364,36.7207627 117.888559,36.8713983 C117.28411,37.1974576 116.452754,37.3385593 115.787288,37.1612288 C115.19428,36.9324153 115.384958,36.354661 115.392585,35.8569915 C115.752966,32.6307203 116.336441,29.4216102 116.839831,26.2144068 C117.158263,24.3400424 117.411864,22.4466102 117.821822,20.5913136 C117.913347,20.2728814 117.955297,19.8819915 118.247034,19.6760593 C118.754237,19.2927966 119.486441,18.9095339 120.134746,18.9877119 Z" id="Shape" fill="#FFFFFF"></path>
            <path d="M80.0809322,19.3042373 C80.5080508,19.3175847 80.8932203,19.540678 80.8817797,20.0154661 C80.8455508,20.7896186 80.6129237,21.5618644 80.4699153,22.3226695 C80.0866525,24.2561441 79.6175847,26.2086864 79.3983051,28.1631356 C80.1533898,27.5625 80.7769068,26.9103814 81.6978814,26.5614407 C82.428178,26.2830508 83.2919492,26.1514831 84.054661,26.342161 C85.1091102,26.6911017 85.6735169,27.7322034 85.7936441,28.7847458 C86.0853814,31.759322 84.6896186,34.7682203 82.2794492,36.5186441 C81.0762712,37.3938559 79.4669492,37.8286017 77.9949153,37.5559322 C77.1807203,37.4014831 76.5324153,36.8675847 76.1911017,36.1163136 C75.6686441,34.9455508 75.6934322,33.6184322 75.8612288,32.3713983 C76.3169492,28.6836864 76.9042373,25.0074153 77.5849576,21.3540254 C77.754661,20.2023305 78.9425847,19.3023305 80.0809322,19.3042373 Z" id="Shape" fill="#FFFFFF"></path>
            <path d="M41.8900424,19.8934322 C42.2294492,20.3815678 41.8252119,21.2205508 41.7889831,21.7849576 C41.3847458,25.0684322 40.9614407,28.3538136 40.6201271,31.6449153 C40.5629237,32.270339 40.4771186,32.9205508 40.5247881,33.5478814 C40.6239407,34.329661 40.95,35.0866525 41.0396186,35.8665254 C41.0033898,36.4004237 40.3932203,36.8504237 39.9851695,37.1288136 C39.4779661,37.4510593 38.7972458,37.8419492 38.1775424,37.670339 C37.6322034,37.4987288 37.4625,36.9190678 37.3805085,36.4118644 C37.2127119,35.1076271 37.4586864,33.7004237 37.6455508,32.4038136 C38.1298729,29.103178 38.6141949,25.8006356 39.0947034,22.5 C39.1881356,21.9127119 39.228178,21.2872881 39.4150424,20.7209746 C39.7506356,19.7904661 41.0815678,19.2127119 41.8900424,19.8934322 Z" id="Shape" fill="#FFFFFF"></path>
            <path d="M45.1105932,21.8707627 C45.6997881,21.6629237 46.5101695,21.7506356 46.7694915,22.4103814 C47.0612288,23.1978814 46.9697034,24.3552966 46.0697034,24.7042373 C45.5396186,24.896822 44.5919492,24.9673729 44.2315678,24.4277542 C43.7415254,23.5582627 44.1858051,22.2616525 45.1105932,21.8707627 Z" id="Shape" fill="#FFFFFF"></path>
            <path d="M53.5862288,25.9684322 C54.4633475,25.9417373 55.5521186,25.953178 56.3205508,26.4336864 C57.0794492,26.870339 57.2605932,27.995339 56.6961864,28.6550847 C56.1775424,29.2461864 55.3137712,29.5436441 54.5396186,29.5016949 C54.1353814,29.4730932 53.7902542,29.2194915 53.7654661,28.7923729 C53.8474576,28.3766949 54.0838983,27.9838983 54.2478814,27.596822 C53.0065678,27.3622881 51.6813559,27.4938559 50.9605932,28.6588983 C50.7279661,29.0745763 50.6822034,30.1919492 51.3247881,30.2586864 C52.329661,30.296822 53.3326271,29.9383475 54.3489407,29.9841102 C55.1211864,30.0069915 55.9868644,30.2091102 56.4654661,30.8726695 C56.9459746,31.5610169 56.9383475,32.5430085 56.7495763,33.3286017 C56.4616525,34.5012712 55.6341102,35.4680085 54.7074153,36.2040254 C53.6110169,37.0735169 52.3334746,37.653178 50.9110169,37.6150424 C49.8260593,37.5940678 48.5008475,37.3709746 47.7,36.5739407 C47.1241525,35.9637712 46.8533898,34.8616525 47.6103814,34.2705508 C48.167161,33.7786017 49.3322034,33.4086864 49.9347458,33.9769068 C50.0186441,34.5069915 49.8394068,35.1057203 49.9900424,35.6129237 C50.4743644,36.2860169 51.3438559,36.2841102 52.0608051,36.0324153 C52.8158898,35.7463983 53.5538136,35.2277542 54.0038136,34.5489407 C54.2516949,34.2057203 54.2879237,33.4735169 53.9103814,33.2199153 C52.3868644,32.6822034 50.6650424,33.6966102 49.2177966,33.1379237 C48.5942797,32.9358051 48.1175847,32.4419492 47.9536017,31.803178 C47.6542373,30.5485169 48.0050847,29.2194915 48.8230932,28.2298729 C49.9805085,26.8283898 51.7786017,26.0180085 53.5862288,25.9684322 Z" id="Shape" fill="#FFFFFF"></path>
            <path d="M113.306568,26.2620763 C114.012076,26.7483051 114.136017,27.6216102 114.202754,28.4129237 C114.351483,31.0538136 113.502966,33.7519068 111.987076,35.9065678 C111.291102,36.8542373 110.305297,37.7275424 109.046822,37.6302966 C107.921822,37.540678 107.248729,36.3851695 107.279237,35.3383475 C107.300212,34.8616525 107.450847,34.1008475 107.938983,33.8739407 C108.417585,33.7404661 108.993432,34.1351695 109.466314,34.234322 C109.963983,34.0188559 110.335805,33.4639831 110.633263,33.0273305 C111.443644,31.7650424 112.131992,30.3444915 111.956568,28.8 C111.908898,28.4472458 111.756356,28.1726695 111.373093,28.1211864 C110.841102,28.0697034 110.301483,28.5463983 109.943008,28.8972458 C108.800847,30.1137712 107.868432,31.5877119 107.380297,33.1913136 C106.714831,35.3707627 106.733898,37.7866525 106.505085,40.0461864 C106.434534,40.5286017 106.489831,41.2569915 105.92161,41.4514831 C105.330508,41.6288136 104.487712,41.5258475 104.112076,40.9747881 C103.827966,40.5743644 103.873729,39.9394068 103.864195,39.470339 C103.976695,35.4584746 104.636441,31.5705508 105.397246,27.6425847 C105.511653,27.1506356 105.717585,26.5309322 106.228602,26.3230932 C106.798729,26.1438559 107.622458,26.3669492 107.860805,26.965678 C107.984746,27.3470339 107.979025,27.7779661 108.011441,28.1764831 C108.816102,27.5129237 109.616949,26.7463983 110.543644,26.2620763 C111.388347,25.8292373 112.484746,25.7224576 113.306568,26.2620763 Z" id="Shape" fill="#FFFFFF"></path>
            <path d="M134.04089,25.970339 C134.759746,26.0618644 135.263136,26.6644068 135.55678,27.2802966 C136.117373,28.5158898 136.418644,29.9097458 136.319492,31.2654661 C136.180297,32.8595339 135.436653,34.2686441 134.477542,35.5194915 C133.623305,36.5930085 132.568856,37.445339 131.176907,37.6627119 C130.147246,37.7904661 128.896398,37.7122881 128.005932,37.1211864 C127.132627,36.5262712 126.819915,35.515678 126.722669,34.5108051 C126.642585,33.4525424 126.686441,32.3237288 127.022034,31.3074153 C127.294703,30.4779661 127.779025,29.8201271 128.248093,29.0898305 C128.856356,28.1745763 129.661017,27.3985169 130.635381,26.8855932 C131.146398,26.6110169 131.703178,26.6338983 132.254237,26.4603814 C132.877754,26.2449153 133.341102,25.8635593 134.04089,25.970339 Z" id="Shape" fill="#FFFFFF"></path>
            <path d="M156.344492,25.9932203 C156.954661,26.1324153 157.477119,26.4832627 157.692585,27.0934322 C157.991949,27.9800847 157.84322,29.0173729 157.406568,29.8372881 C156.954661,30.7125 156.352119,31.5934322 155.543644,32.1730932 C154.517797,32.9033898 153.198305,33.3533898 152.044703,33.8491525 C152.410805,34.5947034 153.017161,35.0752119 153.863771,35.1324153 C155.208051,35.1286017 156.483686,34.6271186 157.654449,34.0074153 C157.732627,34.2305085 157.820339,34.4364407 157.852754,34.6709746 C157.623941,35.1400424 157.116737,35.5004237 156.71822,35.8245763 C155.890678,36.4480932 155.114619,37.1173729 154.117373,37.4472458 C153.036229,37.8019068 151.752966,37.8057203 150.717585,37.3004237 C149.762288,36.8351695 149.148305,35.9084746 148.858475,34.9112288 C148.484746,33.542161 148.503814,32.0529661 148.942373,30.7010593 C149.451483,29.1622881 150.507839,27.8580508 151.813983,26.9199153 C153.108686,25.9989407 154.79428,25.6709746 156.344492,25.9932203 Z" id="Shape" fill="#FFFFFF"></path>
            <path d="M45.8427966,26.4165254 C46.2661017,26.8379237 46.0830508,27.6463983 46.0201271,28.1764831 C45.6826271,30.1137712 45.1449153,31.95 45.2097458,33.9444915 C45.2326271,34.6442797 45.4824153,35.3211864 45.5110169,36.0152542 C45.5224576,36.3966102 45.1983051,36.7016949 44.9351695,36.934322 C44.3879237,37.3805085 43.6213983,37.6875 42.9101695,37.5978814 C42.4430085,37.5006356 42.1474576,37.1898305 42.0635593,36.7226695 C41.8252119,35.4298729 42.0597458,33.9864407 42.2809322,32.6993644 C42.5879237,31.1434322 42.8033898,29.5207627 43.2533898,28.0144068 C43.4040254,27.5205508 43.5870763,26.982839 43.9588983,26.6072034 C44.4088983,26.0980932 45.303178,26.0084746 45.8427966,26.4165254 Z" id="Shape" fill="#FFFFFF"></path>
            <path d="M90.1944915,26.0313559 C90.8523305,26.1324153 90.882839,26.7273305 90.8561441,27.2707627 C90.6845339,29.0555085 90.259322,30.8192797 90.0972458,32.6059322 C90.0514831,33.1074153 90.2745763,33.4868644 90.467161,33.9273305 C91.5273305,33.2084746 92.2690678,32.2016949 92.8830508,31.0957627 C93.4932203,29.907839 93.6591102,28.3881356 94.067161,27.1315678 C94.3493644,26.2601695 95.4362288,26.0923729 96.2199153,26.2391949 C96.6508475,26.342161 96.8110169,26.6243644 96.8052966,27.0591102 C96.7728814,28.2908898 96.5955508,29.5245763 96.4220339,30.7449153 C96.0807203,32.9052966 95.7317797,35.1533898 95.0358051,37.2336864 C94.6601695,38.4006356 93.9870763,39.4398305 93.1366525,40.3169492 C92.2976695,41.1845339 91.2394068,41.8366525 90,41.867161 C89.2182203,41.8786017 88.2,41.8461864 87.5612288,41.3332627 C87.0254237,40.9233051 86.9834746,40.1415254 87.2161017,39.5561441 C87.4983051,38.9230932 88.4230932,38.7438559 89.0275424,38.8983051 C89.6052966,39.0775424 89.9294492,39.7944915 90.2516949,40.2597458 C90.770339,39.9432203 91.1841102,39.5866525 91.4567797,39.0298729 C92.2309322,37.5387712 92.7476695,35.8341102 92.9002119,34.1599576 C91.9163136,35.1305085 91.0105932,36.5033898 89.7788136,37.1536017 C88.9951271,37.575 88.0817797,37.1841102 87.7061441,36.4118644 C87.1455508,35.2353814 87.2027542,33.6870763 87.3152542,32.417161 C87.4830508,30.8002119 87.5841102,29.1298729 87.9730932,27.5510593 C88.2648305,26.5137712 89.1,25.8864407 90.1944915,26.0313559 Z" id="Shape" fill="#FFFFFF"></path>
            <path d="M19.0677966,26.3116525 C19.479661,26.3230932 19.8877119,26.4622881 20.0211864,26.8913136 C20.1336864,27.3947034 19.9716102,27.9743644 19.9239407,28.479661 C20.7362288,27.8084746 21.5885593,27.0152542 22.5495763,26.567161 C23.0872881,26.325 23.6841102,26.1838983 24.221822,26.515678 C24.6966102,26.8741525 24.9158898,27.4366525 24.9273305,28.0201271 C24.9387712,30.0584746 24.6699153,32.1254237 24.5116525,34.1256356 C24.4353814,34.8692797 24.896822,35.4947034 24.9158898,36.1868644 C24.6527542,36.9190678 23.7584746,37.5311441 23.028178,37.7370763 C22.1033898,37.9353814 21.4150424,37.1040254 21.4036017,36.242161 C21.3864407,34.5908898 21.825,32.8976695 22.0900424,31.2711864 C22.1872881,30.6190678 22.3588983,29.890678 22.2387712,29.2366525 C21.5237288,29.0383475 20.8830508,29.6961864 20.492161,30.2110169 C19.2279661,31.9347458 18.9838983,34.1675847 18.7894068,36.2288136 C18.753178,37.2317797 17.5652542,37.3557203 16.8006356,37.4529661 C16.1942797,37.4548729 16.0150424,36.9610169 16.0588983,36.4366525 C16.2800847,34.0455508 16.5527542,31.6449153 16.9322034,29.2728814 C17.0599576,28.5769068 17.1572034,27.8237288 17.4451271,27.1735169 C17.7273305,26.5423729 18.4271186,26.3230932 19.0677966,26.3116525 Z" id="Shape" fill="#FFFFFF"></path>
            <path d="M32.3180085,26.4470339 C33.0788136,26.2620763 33.7480932,26.4641949 34.4974576,26.4603814 C34.9855932,26.4050847 35.4641949,26.246822 35.9447034,26.1457627 C36.4480932,27.0724576 36.2650424,27.9686441 36.2192797,28.9754237 C36.0038136,31.4523305 35.7025424,33.9292373 35.2487288,36.3737288 C34.9455508,37.9353814 34.346822,39.4779661 33.0769068,40.5057203 C31.7021186,41.5944915 29.9326271,41.8404661 28.2298729,41.6707627 C27.640678,41.590678 26.9561441,41.4095339 26.5461864,40.9480932 C26.0256356,40.3150424 26.1019068,39.2834746 26.7502119,38.7591102 C27.2497881,38.2881356 28.1917373,38.0307203 28.7256356,38.5817797 C29.0192797,38.9783898 29.0364407,39.5771186 29.2366525,40.0309322 C29.3529661,40.2845339 29.6733051,40.1739407 29.8925847,40.1644068 C30.7277542,40.0137712 31.2711864,39.4016949 31.6086864,38.6618644 C32.1502119,37.4567797 32.3389831,36.0133475 32.5048729,34.7148305 C31.5915254,35.7730932 30.4817797,37.1516949 28.9830508,37.2737288 C27.6826271,37.3519068 26.7559322,36.3832627 26.4794492,35.1819915 C26.0389831,33.0177966 26.8207627,30.678178 28.3004237,29.0669492 C29.3472458,27.9076271 30.7658898,26.792161 32.3180085,26.4470339 Z" id="Shape" fill="#FFFFFF"></path>
            <path d="M141.807203,26.5633475 C142.25339,27.0400424 141.942585,27.8980932 141.889195,28.4701271 C142.701483,27.8332627 143.515678,27.0629237 144.442373,26.6014831 C144.955297,26.3688559 145.573093,26.178178 146.105085,26.4641949 C146.625636,26.775 146.898305,27.4004237 146.888771,27.9934322 C146.900212,29.6809322 146.75339,31.3550847 146.577966,33.0330508 C146.520763,33.7557203 146.389195,34.4021186 146.631356,35.1076271 C146.75339,35.6434322 147.092797,36.1544492 146.654237,36.6368644 C146.215678,37.1459746 145.578814,37.6360169 144.90572,37.7542373 C144.099153,37.8667373 143.481356,37.1688559 143.397458,36.4194915 C143.262076,33.9711864 144.3375,31.5286017 144.221186,29.1069915 C143.290678,29.2538136 142.749153,29.7495763 142.25339,30.5180085 C141.208475,32.1559322 140.9625,34.1408898 140.787076,36.034322 C140.74322,36.5243644 140.61928,36.9572034 140.112076,37.1440678 C139.601059,37.3290254 138.798305,37.6207627 138.300636,37.3118644 C137.883051,36.9400424 138.054661,36.3355932 138.077542,35.8493644 C138.373093,33.3038136 138.6,30.7125 139.107203,28.2012712 C139.261653,27.5434322 139.364619,26.9122881 140.007203,26.5519068 C140.510593,26.2983051 141.343856,26.1667373 141.807203,26.5633475 Z" id="Shape" fill="#FFFFFF"></path>
            <path d="M154.943008,27.7264831 C155.175636,28.496822 154.861017,29.4540254 154.424364,30.1061441 C153.760805,31.0595339 152.782627,31.8088983 151.678602,32.1807203 C151.466949,31.1911017 151.770127,30.3006356 152.241102,29.440678 C152.631992,28.7351695 153.196398,27.865678 153.974364,27.5567797 C154.285169,27.4442797 154.788559,27.3336864 154.943008,27.7264831 Z" id="Shape" fill="#4999F1"></path>
            <path d="M33.4601695,27.9381356 C33.8319915,28.4834746 33.6012712,29.3891949 33.4487288,29.9860169 C33.0273305,31.3512712 32.3237288,32.7680085 31.275,33.7557203 C30.7582627,34.2381356 30.2853814,34.1408898 29.6561441,33.9940678 C29.604661,33.0826271 29.6885593,32.1864407 29.9688559,31.3150424 C30.3387712,30.1957627 30.6896186,29.154661 31.6506356,28.3976695 C32.0834746,28.0239407 32.9186441,27.6311441 33.4601695,27.9381356 Z" id="Shape" fill="#4999F1"></path>
            <path d="M81.8885593,28.3290254 C82.1917373,28.2584746 82.5540254,28.2108051 82.8533898,28.3137712 C83.3167373,28.5368644 83.5875,29.0345339 83.5646186,29.5436441 C83.5341102,31.1720339 82.6970339,32.7641949 81.6006356,33.9311441 C81.0324153,34.5260593 80.195339,35.0885593 79.3334746,34.8807203 C78.7805085,34.6862288 78.6336864,34.0932203 78.6050847,33.5707627 C78.5230932,32.3923729 78.9902542,31.3512712 79.5317797,30.3387712 C80.0103814,29.4139831 80.8817797,28.6226695 81.8885593,28.3290254 Z" id="Shape" fill="#4999F1"></path>
            <path d="M131.144492,28.4338983 C131.384746,28.7580508 131.623093,29.1794492 131.970127,29.4006356 C132.692797,29.3434322 133.188559,29.1470339 133.690042,28.6226695 C133.813983,28.6932203 133.937924,28.7637712 134.063771,28.8362288 C134.191525,29.7209746 134.386017,30.5237288 134.161017,31.4180085 C133.916949,32.4152542 133.505085,33.4716102 132.807203,34.2400424 C132.317161,34.7625 131.607839,35.0790254 130.902331,34.7930085 C130.000424,34.390678 129.552331,33.3705508 129.565678,32.4209746 C129.586653,30.9947034 130.097669,29.4387712 131.144492,28.4338983 Z" id="Shape" fill="#4999F1"></path>
        </g>
    </g>
</svg>