<?xml version="1.0" encoding="UTF-8"?>
<svg width="447px" height="367px" viewBox="0 0 447 367" version="1.1" xmlns="http://www.w3.org/2000/svg" xmlns:xlink="http://www.w3.org/1999/xlink">
    <!-- Generator: Sketch 46.2 (44496) - http://www.bohemiancoding.com/sketch -->
    <title>Group</title>
    <desc>Created with Sketch.</desc>
    <defs></defs>
    <g id="Page-1" stroke="none" stroke-width="1" fill="none" fill-rule="evenodd">
        <g id="Group" transform="translate(-1.000000, 1.000000)">
            <g transform="translate(12.022901, 15.458015)" id="Shape" fill-rule="nonzero">
                <path d="M226.198855,13.996374 C228.764885,14.7778626 231.60229,15.3807252 234.848473,15.7001908 C256.737023,17.8574427 265.652863,2.2740458 294.219275,7.27041985 C328.572137,13.2784351 334.691794,29.2156489 347.929008,40.2114504 C361.166221,51.2072519 388.494275,48.3801527 405.716221,71.4194656 C421.696374,92.7979008 408.857634,101.260305 410.683397,120.162023 C412.50916,139.06374 439.145038,156.29771 435.177481,190.763931 C431.888359,219.354389 411.021756,226.95458 403.88874,236.878626 C396.755725,246.800954 400.489695,269.835115 371.46126,283.467366 C349.974618,293.55458 325.298473,283.721565 317.562595,287.065649 C309.826718,290.409733 291.089885,309.560496 253.121565,311.918702 C235.068321,313.040267 220.807443,309.478053 209.349618,305.470992 C186.109351,223.330534 244.161069,107.833397 226.198855,13.996374 Z" fill="#E2E8F5"></path>
                <path d="M17.4984733,175.601336 C16.9574427,161.508779 -4.86755725,143.063931 2.7240458,114.784351 C10.4324427,86.0719466 37.3998092,83.7326336 45.8467557,71.9570611 C54.2937023,60.1832061 49.9637405,43.3305344 76.6219466,31.1066794 C99.3933206,20.6639313 122.274618,33.6795802 132.914885,27.3727099 C143.555153,21.0641221 153.559924,4.01564885 182.746374,1.23835878 C205.699809,-0.946374046 211.474237,9.51183206 226.198855,13.996374 C244.161069,107.833397 186.109351,223.330534 209.349618,305.469275 C197.450382,301.307634 188.575763,296.665076 181.65229,296.283779 C168.059542,295.538359 135.175191,313.924809 101.308397,305.350763 C69.1316794,297.206107 67.798855,287.319847 55.1765267,272.900954 C42.5541985,258.482061 25.6637405,270.21813 13.7645038,245.665649 C1.44446565,220.249237 18.0377863,189.693893 17.4984733,175.601336 Z" fill="#FDF0BC"></path>
            </g>
            <path d="M228.308015,0.317748092 C274.141031,105.488931 184.295611,251.063931 228.308015,342.769466" id="Shape" stroke="#58595B" stroke-width="1.25" stroke-linecap="round" stroke-dasharray="3.75,3.75"></path>
            <path d="M245.395992,356.875763 C245.395992,361.303626 241.773664,364.927672 237.344084,364.927672 L157.907061,364.927672 C153.479198,364.927672 149.855153,361.305344 149.855153,356.875763 L149.855153,356.875763 C149.855153,352.447901 153.477481,348.823855 157.907061,348.823855 L237.344084,348.823855 C241.773664,348.825573 245.395992,352.447901 245.395992,356.875763 L245.395992,356.875763 Z" id="Shape" fill="#EBEDEF" fill-rule="nonzero"></path>
            <path d="M321.612595,353.655344 C321.612595,358.083206 317.990267,361.707252 313.560687,361.707252 L234.123664,361.707252 C229.695802,361.707252 226.071756,358.084924 226.071756,353.655344 L226.071756,353.655344 C226.071756,349.227481 229.694084,345.603435 234.123664,345.603435 L313.560687,345.603435 C317.990267,345.605153 321.612595,349.227481 321.612595,353.655344 L321.612595,353.655344 Z" id="Shape" fill="#EBEDEF" fill-rule="nonzero"></path>
            <path d="M183.672137,352.045992 C183.672137,356.473855 180.049809,360.097901 175.620229,360.097901 L96.1832061,360.097901 C91.7553435,360.097901 88.1312977,356.475573 88.1312977,352.045992 L88.1312977,352.045992 C88.1312977,347.61813 91.753626,343.994084 96.1832061,343.994084 L175.620229,343.994084 C180.048092,343.994084 183.672137,347.61813 183.672137,352.045992 L183.672137,352.045992 Z" id="Shape" fill="#EBEDEF" fill-rule="nonzero"></path>
            <path d="M447.208969,357.413359 C447.208969,361.841221 443.586641,365.465267 439.157061,365.465267 L390.314885,365.465267 C385.887023,365.465267 382.262977,361.842939 382.262977,357.413359 L382.262977,357.413359 C382.262977,352.985496 385.885305,349.36145 390.314885,349.36145 L439.158779,349.36145 C443.586641,349.36145 447.208969,352.985496 447.208969,357.413359 L447.208969,357.413359 Z" id="Shape" fill="#EBEDEF" fill-rule="nonzero"></path>
            <path d="M142.342557,355.80229 C142.342557,360.230153 138.720229,363.854198 134.290649,363.854198 L109.064885,363.854198 C104.637023,363.854198 101.012977,360.23187 101.012977,355.80229 L101.012977,355.80229 C101.012977,351.374427 104.635305,347.750382 109.064885,347.750382 L134.292366,347.750382 C138.720229,347.752099 142.342557,351.374427 142.342557,355.80229 L142.342557,355.80229 Z" id="Shape" fill="#EBEDEF" fill-rule="nonzero"></path>
            <path d="M336.105344,355.80229 C336.105344,360.230153 332.483015,363.854198 328.053435,363.854198 L302.825954,363.854198 C298.398092,363.854198 294.774046,360.23187 294.774046,355.80229 L294.774046,355.80229 C294.774046,351.374427 298.396374,347.750382 302.825954,347.750382 L328.053435,347.750382 C332.481298,347.752099 336.105344,351.374427 336.105344,355.80229 L336.105344,355.80229 Z" id="Shape" fill="#EBEDEF" fill-rule="nonzero"></path>
            <path d="M97.2566794,353.655344 C97.2566794,358.083206 93.6343511,361.707252 89.204771,361.707252 L9.76774809,361.707252 C5.3398855,361.707252 1.71583969,358.084924 1.71583969,353.655344 L1.71583969,353.655344 C1.71583969,349.227481 5.33816794,345.603435 9.76774809,345.603435 L89.204771,345.603435 C93.6343511,345.605153 97.2566794,349.227481 97.2566794,353.655344 L97.2566794,353.655344 Z" id="Shape" fill="#EBEDEF" fill-rule="nonzero"></path>
            <path d="M423.054962,352.58187 C423.054962,357.009733 419.432634,360.633779 415.003053,360.633779 L335.566031,360.633779 C331.138168,360.633779 327.514122,357.01145 327.514122,352.58187 L327.514122,352.58187 C327.514122,348.154008 331.13645,344.529962 335.566031,344.529962 L415.003053,344.529962 C419.432634,344.531679 423.054962,348.154008 423.054962,352.58187 L423.054962,352.58187 Z" id="Shape" fill="#EBEDEF" fill-rule="nonzero"></path>
            <g transform="translate(96.183206, 48.091603)" id="Shape">
                <path d="M109.858397,37.8927481 C109.915076,39.2101145 107.410878,40.694084 107.312977,41.9770992 C107.211641,43.2875954 108.45,44.9416031 108.195802,46.2057252 C107.938168,47.4887405 108.487786,49.3093511 108.082443,50.535687 C107.671947,51.7774809 102.031489,50.9650763 101.478435,52.1364504 C100.920229,53.3164122 101.730916,55.0150763 101.040458,56.1108779 C100.346565,57.2135496 100.889313,59.1870229 100.070038,60.195229 C99.2490458,61.2051527 99.8587786,63.8192748 98.9244275,64.726145 C97.9900763,65.6278626 93.9229008,62.984542 92.8837786,63.7729008 C91.8498092,64.5543893 90.9515267,65.1727099 89.8230916,65.8288168 C88.7049618,66.4814885 88.8990458,69.6881679 87.6984733,70.2051527 C86.5116412,70.7152672 84.8679389,70.246374 83.610687,70.6139313 C82.3740458,70.9746183 81.329771,72.7969466 80.0330153,73.0099237 C78.765458,73.2177481 77.3141221,74.5969466 75.9984733,74.653626 C74.6828244,74.7103053 73.3053435,70.9849237 72.0240458,70.8870229 C70.7135496,70.785687 69.4580153,70.8853053 68.1956107,70.634542 C66.9108779,70.3769084 66.0332061,69.0698473 64.8068702,68.6645038 C63.5650763,68.2522901 62.3026718,68.3038168 61.1312977,67.7507634 C59.9513359,67.1942748 57.5656489,68.760687 56.4698473,68.070229 C55.3671756,67.3763359 53.1360687,67.7645038 52.1278626,66.945229 C51.1179389,66.1242366 50.8757634,64.0236641 49.9723282,63.0875954 C49.0688931,62.1532443 49.8795802,59.640458 49.0946565,58.6013359 C48.3114504,57.5673664 49.7730916,55.2795802 49.1169847,54.1528626 C48.4660305,53.0330153 43.2240458,54.2610687 42.7070611,53.0587786 C42.1986641,51.8736641 42.3807252,50.175 42.0131679,48.9194656 C41.6524809,47.6811069 41.8912214,46.1387405 41.6782443,44.8402672 C41.4704198,43.5727099 45.1700382,41.9977099 45.1133588,40.6803435 C45.0566794,39.3629771 43.351145,38.2774809 43.4490458,36.9944656 C43.5503817,35.6839695 39.8456107,33.7585878 40.0998092,32.4944656 C40.3574427,31.2097328 45.3125954,31.1272901 45.7179389,29.9009542 C46.1284351,28.6591603 42.4477099,25.7513359 43.0007634,24.5799618 C43.5589695,23.4 44.3335878,21.9950382 45.0257634,20.8958015 C45.7196565,19.7931298 47.0748092,18.8312977 47.894084,17.8230916 C48.7150763,16.8148855 53.1068702,19.1507634 54.0429389,18.2473282 C54.9772901,17.3438931 55.4152672,16.3408397 56.4526718,15.555916 C57.4866412,14.7727099 56.0473282,10.2847328 57.1757634,9.62862595 C58.2938931,8.97767176 59.2711832,7.30133588 60.4717557,6.78435115 C61.6585878,6.27423664 64.8326336,11.114313 66.0898855,10.7484733 C67.3282443,10.3877863 68.2385496,9.7351145 69.5353053,9.5221374 C70.8045802,9.31431298 71.8419847,8.73377863 73.1576336,8.67709924 C74.4732824,8.62041985 75.6171756,8.34561069 76.9001908,8.44351145 C78.210687,8.54484733 79.9694656,5.63015267 81.2335878,5.88435115 C82.5183206,6.14198473 83.3152672,8.60496183 84.5433206,9.01030534 C85.7851145,9.42251908 87.1660305,9.46374046 88.335687,10.0167939 C89.5156489,10.5732824 91.9614504,9.18034351 93.0589695,9.87080153 C94.1616412,10.5646947 93.4454198,14.0032443 94.453626,14.8242366 C95.4635496,15.645229 95.671374,17.1498092 96.5748092,18.0858779 C97.4765267,19.0185115 99.0807252,19.1971374 99.8673664,20.2379771 C100.650573,21.2719466 99.1236641,23.5975191 99.7814885,24.7242366 C100.432443,25.844084 101.000954,26.6152672 101.516221,27.8158397 C102.026336,29.0026718 102.957252,29.7206107 103.324809,30.9795802 C103.685496,32.2162214 103.280153,33.3223282 103.49313,34.619084 C103.702672,35.8814885 109.803435,36.5753817 109.858397,37.8927481 Z" fill="#FFFFFF" fill-rule="nonzero"></path>
                <path d="M230.904962,33.4683206 C230.958206,34.6860687 226.198855,35.7835878 226.11813,36.9721374 C226.033969,38.1864504 226.387786,39.1534351 226.173092,40.3282443 C225.954962,41.5219466 230.015267,43.7324427 229.668321,44.8780534 C229.317939,46.0374046 229.779962,47.8064885 229.305916,48.9091603 C228.828435,50.0187023 223.306489,48.6583969 222.708779,49.7026718 C222.109351,50.7503817 221.942748,51.7912214 221.233397,52.7616412 C220.522328,53.7354962 220.238931,54.8124046 219.424809,55.7003817 C218.608969,56.5883588 218.057634,57.5330153 217.150763,58.3248092 C216.243893,59.1148855 217.152481,62.3112595 216.159733,63 C215.172137,63.6818702 212.947901,62.5311069 211.884733,63.1030534 C210.828435,63.6698473 209.935305,64.6024809 208.810305,65.0507634 C207.699046,65.4938931 207.158015,68.1698473 205.986641,68.4910305 C204.83416,68.8053435 202.884733,65.9851145 201.68416,66.1723282 C200.505916,66.3526718 199.331107,65.5110687 198.113359,65.564313 C196.880153,65.6175573 195.75687,66.7013359 194.571756,66.6498092 C193.33855,66.5948473 192.531298,63.9841603 191.356489,63.8192748 C190.137023,63.6458015 189.223282,63.628626 188.072519,63.3383588 C186.880534,63.0377863 185.817366,63.3589695 184.702672,62.9381679 C183.557061,62.5019084 183.005725,61.5589695 181.949427,60.9990458 C180.870802,60.4253817 180.187214,59.9667939 179.211641,59.2660305 C178.225763,58.5583969 173.418321,62.4108779 172.547519,61.576145 C171.676718,60.7414122 172.33626,58.1204198 171.589122,57.1637405 C170.85229,56.219084 169.291031,55.5732824 168.684733,54.5135496 C168.090458,53.4795802 171.90687,50.3570611 171.44313,49.2200382 C170.996565,48.1208015 169.177672,47.7412214 168.859924,46.5475191 C168.555916,45.4053435 165.441985,44.7956107 165.261641,43.5709924 C165.089885,42.404771 168.08874,40.903626 168.035496,39.6635496 C167.982252,38.4131679 164.888931,37.1232824 164.974809,35.8814885 C165.060687,34.634542 165.077863,33.2003817 165.295992,31.9740458 C165.514122,30.7477099 167.291794,29.7704198 167.637023,28.5732824 C167.980534,27.3744275 167.68855,25.890458 168.154008,24.7328244 C168.619466,23.5734733 171.638931,23.6318702 172.216031,22.5291985 C172.79313,21.4196565 173.68626,20.7291985 174.371565,19.6900763 C175.05687,18.6458015 175.822901,17.9467557 176.607824,16.9814885 C177.397901,16.0110687 176.637023,13.8366412 177.516412,12.9572519 C178.402672,12.0744275 177.853053,9.46030534 178.825191,8.68396947 C179.800763,7.90419847 182.912977,10.1078244 183.967557,9.44656489 C185.025573,8.78530534 186.087023,8.59293893 187.217176,8.0639313 C188.347328,7.53492366 188.266603,4.05 189.458588,3.66870229 C190.640267,3.28912214 191.78416,1.67118321 193.020802,1.44961832 C194.235115,1.23148855 196.054008,6.53015267 197.312977,6.4769084 C198.59084,6.42194656 199.71584,3.54847328 200.943893,3.63263359 C202.216603,3.72022901 203.046183,6.06125954 204.258779,6.29141221 C205.507443,6.52671756 206.53626,6.50438931 207.714504,6.88396947 C208.920229,7.27041985 211.783397,3.52270992 212.906679,4.05 C214.048855,4.58587786 214.139885,7.38377863 215.189313,8.05534351 C216.247328,8.73377863 215.709733,11.3427481 216.666412,12.15 C217.623092,12.9572519 220.463931,11.6570611 221.310687,12.5828244 C222.15229,13.5034351 221.257443,15.7671756 221.982252,16.7959924 C222.696756,17.8127863 225.30916,17.6324427 225.901718,18.748855 C226.485687,19.8446565 227.153817,21.0349237 227.610687,22.2166031 C228.057252,23.3708015 229.845229,24.3085878 230.166412,25.5366412 C230.479008,26.7320611 227.050763,28.7656489 227.234542,30.0246183 C227.418321,31.2354962 230.85,32.1956107 230.904962,33.4683206 Z" fill="#FFFFFF" fill-rule="nonzero"></path>
                <g transform="translate(0.000000, 36.068702)" stroke="#58595B" stroke-width="1.25" stroke-linecap="round">
                    <path d="M213.310305,9.16660305 C231.06126,13.0087786 258.360115,20.6776718 277.718702,30.0589695"></path>
                    <path d="M100.805153,2.85629771 C124.457634,0.374427481 149.236832,0.279961832 174.531298,2.94389313"></path>
                    <path d="M1.68835878,30.0589695 C17.623855,22.4055344 35.0725191,16.0729008 53.6513359,11.2946565"></path>
                </g>
                <g transform="translate(185.496183, 18.893130)" stroke="#58595B" stroke-linecap="round">
                    <path d="M21.0486641,11.1572519 C21.0486641,5.44465649 16.4181298,0.815839695 10.7072519,0.815839695 C4.99637405,0.815839695 0.365839695,5.44465649 0.365839695,11.1572519 C0.365839695,14.6026718 3.37156489,18.0687023 3.37156489,18.0687023 C5.42576336,20.1229008 4.83148855,26.4314885 5.09083969,27.3641221 C5.33645038,28.2469466 6.40992366,28.8257634 7.47824427,28.8257634 C7.47824427,28.8257634 11.5814885,28.9820611 13.9396947,28.1902672 C14.9461832,27.8519084 16.0814885,27.6097328 16.3270992,26.7269084 C16.5864504,25.7959924 15.8564885,20.1864504 18.046374,17.9965649 C18.0429389,17.9982824 21.0486641,14.6026718 21.0486641,11.1572519 Z" stroke-width="1.25"></path>
                    <path d="M5.22824427,32.6473282 C5.22824427,32.6473282 13.6958015,32.6954198 16.3236641,31.185687" stroke-width="1.25"></path>
                    <path d="M5.22824427,36.4688931 C5.22824427,36.4688931 13.6958015,36.5152672 16.3236641,35.0055344" stroke-width="1.25"></path>
                    <path d="M9.64580153,40.1358779 C10.4444656,40.0791985 11.280916,40.003626 12.0950382,39.9022901" stroke-width="1.25"></path>
                    <path d="M12.6171756,28.1129771 C12.6171756,28.1129771 12.0692748,16.0127863 13.8898855,14.190458" stroke-width="0.625"></path>
                    <path d="M8.96908397,28.1129771 C8.96908397,28.1129771 9.51870229,16.0127863 7.69637405,14.190458" stroke-width="0.625"></path>
                    <path d="M5.47900763,12.9177481 C6.95267176,14.8242366 10.4083969,14.3244275 10.8704198,12.0108779 C11.7687023,14.4498092 15.1265267,13.8864504 16.3236641,12.9177481" stroke-width="0.625" stroke-linejoin="round"></path>
                </g>
                <path d="M74.4818702,24.1814885 C66.0709924,24.1814885 59.2505725,31.0019084 59.2505725,39.4127863 C59.2505725,42.6177481 60.2433206,45.5925573 61.9351145,48.045229 L59.7332061,54.7969466 L66.720229,52.5177481 C68.9925573,53.8660305 71.6461832,54.6423664 74.4801527,54.6423664 C82.8927481,54.6423664 89.7114504,47.8236641 89.7114504,39.4127863 C89.7114504,31.0019084 82.8944656,24.1814885 74.4818702,24.1814885 Z" stroke="#58595B" stroke-width="1.25" stroke-linecap="round"></path>
                <g transform="translate(68.702290, 30.916031)" stroke="#58595B" stroke-width="1.25" stroke-linecap="round">
                    <path d="M1.53377863,3.63950382 C2.01984733,1.21087786 4.39351145,-0.216412214 6.83587786,0.455152672 C9.27824427,1.125 10.4255725,2.97137405 9.90171756,6.06984733 C9.27652672,9.78320611 5.32958015,8.88492366 5.32958015,12.9744275"></path>
                    <path d="M5.32958015,17.4366412 L5.32958015,17.969084"></path>
                </g>
            </g>
            <g transform="translate(386.450382, 331.488550)" stroke="#58595B" id="Shape" stroke-linecap="round" stroke-linejoin="round">
                <path d="M44.8024809,1.5028626 L1.77938931,1.5028626 C0.992748092,3.99675573 0.559923664,6.67270992 0.559923664,9.46030534 C0.559923664,12.2496183 0.992748092,14.9255725 1.77938931,17.4194656 L44.8024809,17.4194656" stroke-width="1.25" fill="#E2E8F5" fill-rule="nonzero"></path>
                <path d="M44.8024809,17.4194656 C44.0158397,14.9255725 43.5830153,12.2496183 43.5830153,9.46030534 C43.5830153,6.67270992 44.0158397,3.99675573 44.8024809,1.5028626" stroke-width="0.625"></path>
                <path d="M44.8024809,17.4194656 L46.4942748,17.4194656" stroke-width="1.25"></path>
                <path d="M46.4942748,1.5028626 L44.8024809,1.5028626" stroke-width="1.25"></path>
            </g>
            <rect id="Rectangle-path" fill="#FDF0BC" fill-rule="nonzero" x="43.5005725" y="327.624046" width="16.184542" height="21.2839695"></rect>
            <path d="M426.179198,341.484733 C426.179198,339.342939 426.546756,337.28874 427.214885,335.373664 L392.083969,335.373664 C391.417557,337.287023 391.05,339.342939 391.05,341.484733 C391.05,343.626527 391.417557,345.682443 392.083969,347.597519 L427.214885,347.597519 C426.546756,345.68416 426.179198,343.626527 426.179198,341.484733 Z" id="Shape" fill="#FFFFFF" fill-rule="nonzero"></path>
            <path d="M267.181489,354.275382 L391.925954,354.275382" id="Shape" stroke="#58595B" stroke-width="1.25" stroke-linecap="round"></path>
            <path d="M239.272901,354.275382 L254.567748,354.275382" id="Shape" stroke="#58595B" stroke-width="1.25" stroke-linecap="round"></path>
            <path d="M212.166412,354.275382 L232.832061,354.275382" id="Shape" stroke="#58595B" stroke-width="1.25" stroke-linecap="round"></path>
            <path d="M64.0253817,354.275382 L208.143893,354.275382" id="Shape" stroke="#58595B" stroke-width="1.25" stroke-linecap="round"></path>
            <path d="M51.6332061,354.275382 L58.123855,354.275382" id="Shape" stroke="#58595B" stroke-width="1.25" stroke-linecap="round"></path>
            <path d="M395.682252,354.275382 L418.761069,354.275382" id="Shape" stroke="#58595B" stroke-width="1.25" stroke-linecap="round"></path>
            <path d="M20.4200382,354.275382 L38.1332061,354.275382" id="Shape" stroke="#58595B" stroke-width="1.25" stroke-linecap="round"></path>
            <path d="M425.655344,354.275382 L438.001145,354.275382" id="Shape" stroke="#58595B" stroke-width="1.25" stroke-linecap="round"></path>
            <rect id="Rectangle-path" stroke="#58595B" stroke-width="1.25" stroke-linecap="round" stroke-linejoin="round" x="43.5005725" y="322.794275" width="16.184542" height="26.1137405"></rect>
            <path d="M43.5005725,343.87042 C39.103626,343.87042 35.5396947,340.308206 35.5396947,335.91126 C35.5396947,331.512595 39.103626,327.950382 43.5005725,327.950382" id="Shape" stroke="#58595B" stroke-width="1.25" stroke-linecap="round" stroke-linejoin="round"></path>
            <g transform="translate(383.015267, 319.465649)" id="Shape">
                <path d="M40.2062977,8.59637405 C40.2062977,7.07118321 40.4793893,5.60954198 40.980916,4.24751908 L4.57900763,4.24751908 C4.07748092,5.60954198 3.80438931,7.07290076 3.80438931,8.59637405 C3.80438931,10.1198473 4.07748092,11.5832061 4.57900763,12.9469466 L40.980916,12.9469466 C40.4793893,11.5832061 40.2062977,10.1215649 40.2062977,8.59637405 Z" fill="#FFFFFF" fill-rule="nonzero"></path>
                <g stroke="#58595B" stroke-linecap="round" stroke-linejoin="round">
                    <path d="M44.0089695,1.59217557 L1.68835878,1.59217557 C1.09923664,3.46259542 0.774618321,5.46870229 0.774618321,7.56068702 C0.774618321,9.6509542 1.09923664,11.6570611 1.68835878,13.5274809 L44.0089695,13.5274809" stroke-width="1.25" fill="#E2E8F5" fill-rule="nonzero"></path>
                    <path d="M44.0089695,13.5257634 C43.4181298,11.6553435 43.095229,9.64923664 43.095229,7.55896947 C43.095229,5.46698473 43.4181298,3.46087786 44.0089695,1.59045802" stroke-width="0.625"></path>
                    <path d="M44.0089695,13.5257634 L45.2782443,13.5257634" stroke-width="1.25"></path>
                    <path d="M45.2782443,1.59217557 L44.0089695,1.59217557" stroke-width="1.25"></path>
                </g>
            </g>
            <g transform="translate(386.450382, 307.442748)" id="Shape">
                <path d="M39.5604962,9.25935115 C39.5604962,7.9351145 39.8353053,6.66583969 40.3351145,5.48244275 L3.93320611,5.48244275 C3.43167939,6.66583969 3.15858779,7.93683206 3.15858779,9.25935115 C3.15858779,10.5818702 3.43167939,11.8528626 3.93320611,13.0362595 L40.3351145,13.0362595 C39.8353053,11.851145 39.5604962,10.5818702 39.5604962,9.25935115 Z" fill="#FFFFFF" fill-rule="nonzero"></path>
                <g stroke="#58595B" stroke-linecap="round" stroke-linejoin="round">
                    <path d="M43.3631679,1.68148855 L1.04255725,1.68148855 C0.453435115,3.55019084 0.128816794,5.55801527 0.128816794,7.64828244 C0.128816794,9.74026718 0.453435115,11.746374 1.04255725,13.6150763 L43.3631679,13.6150763" stroke-width="1.25" fill="#E2E8F5" fill-rule="nonzero"></path>
                    <path d="M43.3631679,13.6150763 C42.7740458,11.746374 42.4494275,9.74026718 42.4494275,7.64828244 C42.4494275,5.55801527 42.7740458,3.55019084 43.3631679,1.68148855" stroke-width="0.625"></path>
                    <path d="M43.3631679,13.6150763 L44.6324427,13.6150763" stroke-width="1.25"></path>
                    <path d="M44.6324427,1.68148855 L43.3631679,1.68148855" stroke-width="1.25"></path>
                </g>
            </g>
            <g transform="translate(309.160305, 219.847328)" id="Shape">
                <path d="M30.1637405,31.0225191 C27.2112595,31.0225191 24.796374,26.6753817 24.796374,21.3612595 L24.796374,11.1641221 C24.796374,5.85 21.8971374,1.5028626 18.3555344,1.5028626 C14.8139313,1.5028626 11.9146947,5.85 11.9146947,11.1641221 L11.9146947,21.3629771 C11.9146947,26.6770992 9.49980916,31.0242366 6.54732824,31.0242366 C3.59484733,31.0242366 1.17996183,35.371374 1.17996183,40.6854962 L1.17996183,48.1998092 C1.17996183,53.5139313 5.52709924,57.8610687 10.8412214,57.8610687 L25.8698473,57.8610687 C31.1839695,57.8610687 35.5311069,53.5139313 35.5311069,48.1998092 L35.5311069,40.6854962 C35.5328244,35.371374 33.1162214,31.0225191 30.1637405,31.0225191 Z" fill="#FBE3D5" fill-rule="nonzero"></path>
                <path d="M30.1637405,31.0225191 C27.2112595,31.0225191 24.796374,26.6753817 24.796374,21.3612595 L24.796374,11.1641221 C24.796374,5.85 21.8971374,1.5028626 18.3555344,1.5028626 C14.8139313,1.5028626 11.9146947,5.85 11.9146947,11.1641221 L11.9146947,21.3629771 C11.9146947,26.6770992 9.49980916,31.0242366 6.54732824,31.0242366 C3.59484733,31.0242366 1.17996183,35.371374 1.17996183,40.6854962 L1.17996183,48.1998092 C1.17996183,53.5139313 5.52709924,57.8610687 10.8412214,57.8610687 L25.8698473,57.8610687 C31.1839695,57.8610687 35.5311069,53.5139313 35.5311069,48.1998092 L35.5311069,40.6854962 C35.5328244,35.371374 33.1162214,31.0225191 30.1637405,31.0225191 Z" stroke="#58595B" stroke-width="1.25"></path>
            </g>
            <path d="M346.840076,250.869847 L345.229008,250.869847 L336.641221,244.964885 L327.517557,261.60458 L318.953817,244.964885 L309.830153,250.869847 L308.196756,250.869847 C297.568511,250.869847 288.874237,259.564122 288.874237,270.192366 L288.874237,290.588359 C288.874237,301.216603 297.568511,309.910878 308.196756,309.910878 L346.841794,309.910878 C357.470038,309.910878 366.164313,301.216603 366.164313,290.588359 L366.164313,270.192366 C366.162595,259.56584 357.466603,250.869847 346.840076,250.869847 Z" id="Shape" stroke="#58595B" stroke-width="1.25" fill="#8FC5E8" fill-rule="nonzero"></path>
            <path d="M355.427863,290.590076 L355.427863,270.192366" id="Shape" stroke="#58595B" stroke-width="1.25" fill="#8FC5E8" fill-rule="nonzero"></path>
            <path d="M299.607252,270.192366 L299.607252,290.590076" id="Shape" stroke="#58595B" stroke-width="1.25" fill="#8FC5E8" fill-rule="nonzero"></path>
            <polygon id="Shape" stroke="#58595B" stroke-width="0.625" fill="#43729E" fill-rule="nonzero" points="337.714695 298.19542 317.318702 298.19542 323.759542 268.490267 331.273855 268.490267"></polygon>
            <g transform="translate(319.465649, 259.351145)" id="Shape">
                <path d="M13.4227099,7.78225191 C13.123855,8.92614504 11.9146947,9.86049618 10.7347328,9.86049618 L5.36736641,9.86049618 C4.18568702,9.86049618 2.97652672,8.92614504 2.67938931,7.78225191 L1.61622137,3.70305344 C1.31736641,2.55916031 2.04045802,1.62480916 3.2221374,1.62480916 L12.8833969,1.62480916 C14.0650763,1.62480916 14.7864504,2.55916031 14.489313,3.70305344 L13.4227099,7.78225191 Z" fill="#43729E" fill-rule="nonzero"></path>
                <path d="M13.4227099,7.78225191 C13.123855,8.92614504 11.9146947,9.86049618 10.7347328,9.86049618 L5.36736641,9.86049618 C4.18568702,9.86049618 2.97652672,8.92614504 2.67938931,7.78225191 L1.61622137,3.70305344 C1.31736641,2.55916031 2.04045802,1.62480916 3.2221374,1.62480916 L12.8833969,1.62480916 C14.0650763,1.62480916 14.7864504,2.55916031 14.489313,3.70305344 L13.4227099,7.78225191 Z" stroke="#58595B" stroke-width="0.625"></path>
            </g>
            <g transform="translate(309.160305, 243.893130)" id="Shape" stroke-width="0.625" stroke="#58595B" fill="#BBD9F0" fill-rule="nonzero" stroke-linejoin="round">
                <polygon points="27.480916 1.6110687 18.3572519 18.2490458 30.9538168 24.6022901 36.0687023 7.51431298"></polygon>
                <polygon points="9.79179389 1.6110687 18.3795802 18.2490458 5.78129771 24.6022901 0.668129771 7.51431298"></polygon>
            </g>
            <path d="M364.015649,203.906679 C364.015649,209.983397 362.502481,213.3 358.648282,213.3 C354.794084,213.3 352.207443,210.520992 352.207443,204.444275 C352.207443,198.367557 358.194847,196.124427 359.721756,196.124427 C361.248664,196.124427 364.015649,197.829962 364.015649,203.906679 Z" id="Shape" fill="#FBE3D5" fill-rule="nonzero"></path>
            <g transform="translate(276.526718, 285.114504)" id="Shape">
                <g>
                    <path d="M99.6234733,53.5946565 C99.6234733,56.2517176 97.4490458,58.4244275 94.7937023,58.4244275 L6.09045802,58.4244275 C3.43339695,58.4244275 1.26068702,56.25 1.26068702,53.5946565 L1.26068702,4.9139313 C1.26068702,2.25687023 3.4351145,0.0841603053 6.09045802,0.0841603053 L94.7937023,0.0841603053 C97.4507634,0.0841603053 99.6234733,2.25858779 99.6234733,4.9139313 L99.6234733,53.5946565 Z" fill="#F3F4F5" fill-rule="nonzero"></path>
                    <path d="M99.6234733,53.5946565 C99.6234733,56.2517176 97.4490458,58.4244275 94.7937023,58.4244275 L6.09045802,58.4244275 C3.43339695,58.4244275 1.26068702,56.25 1.26068702,53.5946565 L1.26068702,4.9139313 C1.26068702,2.25687023 3.4351145,0.0841603053 6.09045802,0.0841603053 L94.7937023,0.0841603053 C97.4507634,0.0841603053 99.6234733,2.25858779 99.6234733,4.9139313 L99.6234733,53.5946565 Z" stroke="#58595B" stroke-width="1.25"></path>
                </g>
                <g transform="translate(0.000000, 58.396947)">
                    <path d="M99.9103053,3.26679389 C99.7522901,4.43816794 98.6582061,5.39484733 97.4765267,5.39484733 L3.40591603,5.39484733 C2.22423664,5.39484733 1.38778626,4.43645038 1.54580153,3.26679389 L1.69522901,2.15725191 C1.85324427,0.985877863 2.94732824,0.0291984733 4.12900763,0.0291984733 L98.1996183,0.0291984733 C99.3812977,0.0291984733 100.217748,0.98759542 100.059733,2.15725191 L99.9103053,3.26679389 Z" fill="#E5E8EB" fill-rule="nonzero"></path>
                    <path d="M99.9103053,3.26679389 C99.7522901,4.43816794 98.6582061,5.39484733 97.4765267,5.39484733 L3.40591603,5.39484733 C2.22423664,5.39484733 1.38778626,4.43645038 1.54580153,3.26679389 L1.69522901,2.15725191 C1.85324427,0.985877863 2.94732824,0.0291984733 4.12900763,0.0291984733 L98.1996183,0.0291984733 C99.3812977,0.0291984733 100.217748,0.98759542 100.059733,2.15725191 L99.9103053,3.26679389 Z" stroke="#58595B" stroke-width="1.25"></path>
                </g>
            </g>
            <path d="M357.22271,199.545802 C357.22271,230.70229 336.21355,237.113931 324.364122,237.113931 C312.514695,237.113931 298.276145,229.628817 298.276145,198.472328 C298.276145,167.31584 311.231679,160.531489 327.21355,160.531489 C343.19542,160.531489 357.22271,168.389313 357.22271,199.545802 Z" id="Shape" fill="#E2C5B6" fill-rule="nonzero"></path>
            <path d="M358.296183,196.421565 C358.296183,227.578053 338.360496,233.824809 326.511069,233.824809 C314.661641,233.824809 299.349618,227.040458 299.349618,195.883969 C299.349618,164.727481 312.305153,157.944847 328.287023,157.944847 C344.268893,157.944847 358.296183,165.266794 358.296183,196.421565 Z" id="Shape" fill="#FBE3D5" fill-rule="nonzero"></path>
            <g transform="translate(316.030534, 214.694656)" id="Shape" stroke="#58595B" stroke-width="1.25" stroke-linecap="round">
                <path d="M15.0664122,3.42652672 C15.4717557,6.0389313 14.1372137,8.71660305 11.6227099,9.90171756 C9.05152672,11.114313 6.06469466,10.3791985 4.31965649,8.29923664" fill="#E2C5B6" fill-rule="nonzero"></path>
                <path d="M16.4215649,0.0755725191 C13.7438931,6.26908397 6.55419847,9.12194656 0.358969466,6.44427481"></path>
            </g>
            <circle id="Oval" fill="#58595B" fill-rule="nonzero" cx="310.594466" cy="198.577099" r="3.21526718"></circle>
            <circle id="Oval" fill="#58595B" fill-rule="nonzero" cx="335.892366" cy="199.650573" r="3.21526718"></circle>
            <path d="M318.064122,203.573473 C317.859733,206.125763 314.304389,207.735115 314.182443,209.40458 C314.062214,211.072328 318.68416,211.975763 318.68416,211.975763" id="Shape" stroke="#58595B" stroke-width="1.25" stroke-linecap="round" stroke-linejoin="round"></path>
            <path d="M359.721756,195.586832 C359.185878,195.586832 357.976718,195.403053 356.649046,196.112405 C355.860687,167.429198 343.224618,161.069084 327.751145,161.069084 C311.769275,161.069084 298.81374,167.853435 298.81374,199.009924 C298.81374,230.166412 313.054008,237.651527 324.901718,237.651527 C334.909924,237.651527 350.692557,233.917557 355.350573,213.476908 C356.647328,213.868511 357.399618,213.837595 358.648282,213.837595 C362.502481,213.837595 364.015649,209.447519 364.015649,203.370802 C364.015649,197.294084 361.246947,195.586832 359.721756,195.586832 Z" id="Shape" stroke="#58595B" stroke-width="1.25" stroke-linejoin="round"></path>
            <path d="M359.146374,195.53874 C356.32271,196.244656 354.029771,197.654771 352.264122,200.301527 C350.500191,190.774237 341.46584,180.74542 342.561641,173.660496 C330.954389,184.041412 308.33416,186.717366 298.277863,183.362977 C288.395038,180.068702 284.693702,168.895992 286.634542,160.603626 C294.397901,167.661069 305.537977,153.419084 321.567939,148.608206 C337.597901,143.793893 347.679962,147.371565 354.356107,156.404198 C368.496756,163.252099 358.967748,192.715076 359.146374,195.53874 Z" id="Shape" stroke="#58595B" stroke-width="1.25" fill="#C3996B" fill-rule="nonzero"></path>
            <path d="M352.015076,161.235687 C357.933779,164.10229 357.090458,175.831489 355.766221,184.104962 M291.723664,167.898092 C296.931298,167.812214 301.919084,164.809924 307.679771,161.342176 C312.277672,158.575191 317.487023,155.437214 323.108588,153.748855 C327.349237,152.477863 331.203435,151.830344 334.562977,151.830344" id="Shape" stroke="#CDAA82" stroke-width="1.25" stroke-linecap="round"></path>
            <path d="M320.453244,315.632061 C320.56145,315.053244 320.652481,314.489885 320.777863,313.936832 C320.870611,313.534924 320.982252,313.133015 321.128244,312.75 C321.497519,311.769275 322.244656,311.262595 323.268321,311.279771 C324.072137,311.293511 324.879389,311.41374 325.671183,311.54771 C327.383588,311.83626 329.077099,311.837977 330.779198,311.446374 C331.404389,311.302099 332.060496,311.254008 332.70458,311.243702 C333.630344,311.228244 334.228053,311.745229 334.492557,312.604008 C334.719275,313.339122 334.901336,314.08626 335.055916,314.83855 C335.536832,317.174427 336.019466,319.512023 336.457443,321.856489 C336.651527,322.899046 336.81126,323.958779 336.873092,325.016794 C336.938359,326.136641 336.36813,326.871756 335.260305,327.098473 C334.437595,327.265076 333.578817,327.314885 332.733779,327.326908 C330.385878,327.356107 328.03626,327.36126 325.684924,327.328626 C324.14771,327.306298 322.612214,327.206679 321.073282,327.134542 C320.860305,327.124237 320.643893,327.077863 320.434351,327.026336 C319.367748,326.756679 318.825,326.150382 318.849046,325.049427 C318.869656,324.128817 318.995038,323.203053 319.158206,322.294466 C319.460496,320.607824 319.826336,318.931489 320.16126,317.248282 C320.193893,317.09542 320.199046,316.935687 320.221374,316.745038 C319.630534,316.690076 319.048282,316.65229 318.469466,316.573282 C317.555725,316.451336 316.707252,316.152481 316.001336,315.530725 C314.823092,314.493321 314.579198,313.414695 315.192366,311.99084 C314.355916,310.26813 314.46584,308.804771 316.8,307.805153 C316.772519,306.896565 317.158969,306.137405 317.864885,305.560305 C318.194656,305.290649 318.570802,305.034733 318.970992,304.893893 C320.99771,304.181107 323.03645,303.499237 325.162786,303.150573 C326.842557,302.872328 328.537786,302.788168 330.238168,302.862023 C330.667557,302.879198 331.093511,302.99084 331.516031,303.087023 C333.266221,303.480344 335.01126,303.887405 336.76145,304.275573 C338.353626,304.631107 339.255344,305.642748 339.715649,307.176527 C339.920038,307.86355 340.067748,308.500763 339.741412,309.194656 C339.210687,309.579389 338.570038,309.721947 337.927672,309.794084 C336.517557,309.957252 335.183015,309.704771 333.934351,308.997137 C333.182061,308.571183 332.738931,308.03187 333.046374,307.006489 C333.075573,306.97042 333.182061,306.82958 333.262786,306.724809 C332.998282,305.522519 332.060496,305.232252 331.047137,305.077672 C329.001527,304.766794 326.955916,304.775382 324.929198,305.213359 C324.381298,305.33187 323.840267,305.565458 323.340458,305.826527 C322.878435,306.068702 322.526336,306.455153 322.478244,306.98416 C322.73416,307.571565 322.976336,308.122901 323.206489,308.648473 C321.791221,309.842176 318.182634,310.420992 316.817176,309.704771 C316.772519,309.498664 316.720992,309.273664 316.671183,309.046947 C315.687023,309.344084 315.425954,310.166794 315.982443,311.266031 C316.643702,310.888168 317.366794,310.671756 318.122519,310.80229 C318.636069,310.889885 319.180534,311.018702 319.620229,311.281489 C320.556298,311.837977 320.549427,312.899427 319.633969,313.50229 C318.720229,314.103435 317.761832,314.026145 316.829198,313.528053 C316.518321,313.36145 316.243511,313.133015 315.930916,312.916603 C315.702481,313.127863 315.774618,313.375191 315.850191,313.613931 C316.106107,314.445229 316.683206,314.979389 317.466412,315.30916 C318.268511,315.642366 319.453626,315.774618 320.453244,315.632061 Z M316.604198,312.085305 C317.499046,313.134733 318.890267,313.253244 319.328244,312.339504 C318.728817,311.63187 317.631298,311.516794 316.604198,312.085305 Z" id="Shape" fill="#58595B"></path>
            <path d="M337.012214,224.668511 C344.69313,222.184924 354.995038,210.634351 357.497519,204.887405" id="Shape" stroke="#58595B" stroke-width="1.25"></path>
            <circle id="Oval" fill="#58595B" fill-rule="nonzero" cx="337.010496" cy="224.668511" r="2.81507634"></circle>
            <ellipse id="Oval" fill="#58595B" fill-rule="nonzero" cx="357.497519" cy="205.279008" rx="3.96068702" ry="5.73320611"></ellipse>
            <path d="M357.497519,205.783969 C357.497519,205.783969 353.639885,195.109351 355.427863,193.855534 C357.21584,192.601718 358.297901,194.106298 358.297901,195.60229" id="Shape" stroke="#58595B" stroke-width="1.875"></path>
            <path d="M157.908779,242.014122 L164.617557,249.260496 L170.252863,244.966603 L166.226908,237.184351 C166.226908,237.184351 168.471756,222.962977 166.05687,218.937023 C163.641985,214.911069 156.44542,215.081107 154.030534,216.422519 C152.391985,217.332824 150.830725,230.633588 147.646374,237.119084 C142.244656,234.017176 140.135496,237.794084 141.604008,239.518511 C146.16584,244.885878 154.401527,242.510496 157.908779,242.014122 Z" id="Shape" stroke="#58595B" stroke-width="1.25" fill="#FCEDE4" fill-rule="nonzero"></path>
            <g transform="translate(123.664122, 197.519084)">
                <g id="Shape">
                    <path d="M40.7301527,26.3730916 C41.9822519,27.6251908 41.9822519,29.6759542 40.7301527,30.9280534 L30.029771,41.6267176 C28.7776718,42.8788168 26.728626,42.8788168 25.4765267,41.6267176 L1.24694656,17.4005725 C-0.00515267176,16.1484733 -0.00515267176,14.0977099 1.24694656,12.8456107 L11.9473282,2.14694656 C13.1994275,0.894847328 15.2484733,0.894847328 16.5005725,2.14694656 L40.7301527,26.3730916 Z" fill="#F1F2F2" fill-rule="nonzero"></path>
                    <path d="M40.7301527,26.3730916 C41.9822519,27.6251908 41.9822519,29.6759542 40.7301527,30.9280534 L30.029771,41.6267176 C28.7776718,42.8788168 26.728626,42.8788168 25.4765267,41.6267176 L1.24694656,17.4005725 C-0.00515267176,16.1484733 -0.00515267176,14.0977099 1.24694656,12.8456107 L11.9473282,2.14694656 C13.1994275,0.894847328 15.2484733,0.894847328 16.5005725,2.14694656 L40.7301527,26.3730916 Z" stroke="#58595B" stroke-width="0.625"></path>
                </g>
                <g transform="translate(0.000000, 1.717557)" id="Shape">
                    <path d="M34.6585878,22.3814885 C35.0759542,22.7971374 35.0759542,23.4824427 34.6585878,23.8980916 L24.7173664,33.8410305 C24.3,34.2566794 23.6164122,34.2566794 23.1990458,33.8410305 L1.62652672,12.2667939 C1.20916031,11.851145 1.20916031,11.1658397 1.62652672,10.7501908 L11.5677481,0.807251908 C11.9851145,0.391603053 12.6687023,0.391603053 13.0860687,0.807251908 L34.6585878,22.3814885 Z" fill="#43729E" fill-rule="nonzero"></path>
                    <path d="M34.6585878,22.3814885 C35.0759542,22.7971374 35.0759542,23.4824427 34.6585878,23.8980916 L24.7173664,33.8410305 C24.3,34.2566794 23.6164122,34.2566794 23.1990458,33.8410305 L1.62652672,12.2667939 C1.20916031,11.851145 1.20916031,11.1658397 1.62652672,10.7501908 L11.5677481,0.807251908 C11.9851145,0.391603053 12.6687023,0.391603053 13.0860687,0.807251908 L34.6585878,22.3814885 Z" stroke="#58595B" stroke-width="0.625"></path>
                </g>
                <circle id="Oval" fill="#58595B" fill-rule="nonzero" cx="32.5150763" cy="33.4150763" r="1.98034351"></circle>
            </g>
            <path d="M162.425954,216.638931 C160.011069,212.612977 154.918511,212.70916 152.546565,214.124427 C149.511641,215.93645 151.459351,218.84084 154.159351,218.516221 C156.861069,218.191603 158.542557,217.714122 159.58855,219.886832" id="Shape" stroke="#58595B" stroke-width="1.25" fill="#FCEDE4" fill-rule="nonzero"></path>
            <path d="M165.520992,218.937023 C163.106107,214.911069 159.169466,215.708015 156.541603,216.559924 C153.178626,217.650573 155.457824,220.21145 158.159542,219.886832 C160.86126,219.562214 160.923092,220.424427 162.683588,222.184924" id="Shape" stroke="#58595B" stroke-width="0.625" fill="#FCEDE4" fill-rule="nonzero"></path>
            <g transform="translate(106.488550, 219.847328)" id="Shape">
                <path d="M5.4240458,31.0225191 C8.37652672,31.0225191 10.7914122,26.6753817 10.7914122,21.3612595 L10.7914122,11.1641221 C10.7914122,5.85 13.6906489,1.5028626 17.2322519,1.5028626 C20.773855,1.5028626 23.6730916,5.85 23.6730916,11.1641221 L23.6730916,21.3629771 C23.6730916,26.6770992 26.0879771,31.0242366 29.040458,31.0242366 C31.9929389,31.0242366 34.4078244,35.371374 34.4078244,40.6854962 L34.4078244,48.1998092 C34.4078244,53.5139313 30.060687,57.8610687 24.7465649,57.8610687 L9.71793893,57.8610687 C4.40381679,57.8610687 0.0566793893,53.5139313 0.0566793893,48.1998092 L0.0566793893,40.6854962 C0.0566793893,35.371374 2.47156489,31.0225191 5.4240458,31.0225191 Z" fill="#FCEDE4" fill-rule="nonzero"></path>
                <path d="M5.4240458,31.0225191 C8.37652672,31.0225191 10.7914122,26.6753817 10.7914122,21.3612595 L10.7914122,11.1641221 C10.7914122,5.85 13.6906489,1.5028626 17.2322519,1.5028626 C20.773855,1.5028626 23.6730916,5.85 23.6730916,11.1641221 L23.6730916,21.3629771 C23.6730916,26.6770992 26.0879771,31.0242366 29.040458,31.0242366 C31.9929389,31.0242366 34.4078244,35.371374 34.4078244,40.6854962 L34.4078244,48.1998092 C34.4078244,53.5139313 30.060687,57.8610687 24.7465649,57.8610687 L9.71793893,57.8610687 C4.40381679,57.8610687 0.0566793893,53.5139313 0.0566793893,48.1998092 L0.0566793893,40.6854962 C0.0566793893,35.371374 2.47156489,31.0225191 5.4240458,31.0225191 Z" stroke="#58595B" stroke-width="1.25"></path>
            </g>
            <path d="M134.984542,262.502863 C132.069847,265.326527 128.098855,267.066412 123.720802,267.066412 C119.342748,267.066412 115.371756,265.324809 112.457061,262.502863 L101.973092,262.502863 L101.973092,285.21584 L145.466794,285.21584 L145.466794,262.502863 L134.984542,262.502863 Z" id="Shape" stroke="#58595B" stroke-width="0.625" fill="#E7E6D4" fill-rule="nonzero"></path>
            <path d="M104.398282,250.869847 L106.009351,250.869847 L109.767366,249.796374 L123.722519,276.633206 L137.117748,249.796374 L141.411641,250.869847 L143.045038,250.869847 C153.673282,250.869847 162.367557,260.101718 151.632824,270.728244 L151.632824,290.586641 C162.367557,301.214885 153.673282,309.90916 143.045038,309.90916 L104.4,309.90916 C93.7717557,309.90916 85.0774809,301.214885 85.0774809,290.586641 L85.0774809,270.190649 C85.0757634,259.56584 93.7700382,250.869847 104.398282,250.869847 Z" id="Shape" stroke="#58595B" stroke-width="1.25" fill="#C8DE92" fill-rule="nonzero" stroke-linejoin="round"></path>
            <path d="M123.720802,277.170802 L109.765649,250.333969 L106.007634,251.407443 C106.007634,251.407443 99.4774809,263.964504 102.830153,269.027863 C106.182824,274.092939 113.274618,273.229008 113.274618,273.229008 C113.274618,273.229008 112.645992,275.982252 115.450763,277.170802 C118.255534,278.359351 123.720802,277.170802 123.720802,277.170802 Z" id="Shape" stroke="#58595B" stroke-width="0.625" fill="#D2E4A6" fill-rule="nonzero" stroke-linejoin="round"></path>
            <path d="M123.720802,277.170802 L137.675954,250.333969 L141.433969,251.407443 C141.433969,251.407443 147.964122,263.964504 144.61145,269.027863 C141.258779,274.092939 134.166985,273.229008 134.166985,273.229008 C134.166985,273.229008 134.795611,275.982252 131.99084,277.170802 C129.186069,278.359351 123.720802,277.170802 123.720802,277.170802 Z" id="Shape" stroke="#58595B" stroke-width="0.625" fill="#D2E4A6" fill-rule="nonzero" stroke-linejoin="round"></path>
            <path d="M123.720802,276.633206 L123.720802,309.912595" id="Shape" stroke="#58595B" stroke-width="1.25" stroke-linejoin="round"></path>
            <path d="M143.043321,250.869847 C157.948282,250.869847 159.74313,261.769466 162.623473,264.648092 C162.623473,258.420229 161.371374,249.13855 160.469656,245.863168 C161.914122,243.364122 166.553244,239.649046 169.12958,240.263931 C171.992748,247.544656 179.112023,271.236641 170.683969,280.451336 C164.086832,287.663359 151.352863,270.726527 151.352863,270.726527" id="Shape" stroke="#58595B" stroke-width="1.25" fill="#C8DE92" fill-rule="nonzero" stroke-linecap="round" stroke-linejoin="round"></path>
            <path d="M95.8104962,290.590076 L95.8104962,270.192366" id="Shape" stroke="#58595B" stroke-width="1.25" fill="#C8DE92" fill-rule="nonzero" stroke-linejoin="round"></path>
            <path d="M162.638931,270.637214 C162.638931,270.637214 162.748855,267.317176 162.621756,264.649809" id="Shape" stroke="#58595B" stroke-width="1.25" fill="#C8DE92" fill-rule="nonzero" stroke-linecap="round" stroke-linejoin="round"></path>
            <path d="M104.398282,223.048855 C104.398282,223.048855 88.0866412,224.048473 84.1431298,198.82271 C80.1996183,173.596947 90.0704198,150.923473 104.93416,151.785687" id="Shape" stroke="#58595B" stroke-width="1.25" fill="#C36F69" fill-rule="nonzero"></path>
            <path d="M88.0471374,181.815458 C89.4812977,167.643893 96.0938931,157.135878 104.93416,157.673473" id="Shape" stroke="#CC877F" stroke-width="1.25"></path>
            <path d="M90.9790076,203.369084 C90.9790076,209.445802 92.4921756,212.762405 96.346374,212.762405 C100.200573,212.762405 102.787214,209.983397 102.787214,203.906679 C102.787214,197.829962 96.7980916,195.586832 95.2729008,195.586832 C93.7477099,195.586832 90.9790076,197.292366 90.9790076,203.369084 Z" id="Shape" fill="#FCEDE4" fill-rule="nonzero"></path>
            <path d="M98.8437023,198.472328 C98.8437023,229.628817 121.285305,236.365076 135.839885,237.113931 C140.710878,237.364695 156.718511,229.628817 156.718511,198.472328 C156.718511,167.31584 143.762977,160.531489 127.781107,160.531489 C111.799237,160.531489 98.8437023,167.31584 98.8437023,198.472328 Z" id="Shape" fill="#ECDAD0" fill-rule="nonzero"></path>
            <path d="M97.8217557,197.972519 C97.8217557,229.130725 128.315267,233.826527 134.386832,233.826527 C140.458397,233.826527 155.645038,227.042176 155.645038,195.885687 C155.645038,164.729198 142.689504,157.946565 126.707634,157.946565 C110.725763,157.946565 97.8217557,166.817748 97.8217557,197.972519 Z" id="Shape" fill="#FCEDE4" fill-rule="nonzero"></path>
            <path d="M155.645038,205.974618 C151.895611,205.974618 148.857252,209.014695 148.857252,212.762405 C148.857252,215.807634 150.863359,218.383969 153.626908,219.244466 C154.913359,215.560305 155.890649,211.185687 156.376718,206.01584 C156.13626,205.990076 155.892366,205.974618 155.645038,205.974618 Z" id="Shape" fill="#FBE4D5" fill-rule="nonzero"></path>
            <g transform="translate(123.664122, 216.412214)" id="Shape" stroke="#58595B" stroke-width="1.25" stroke-linecap="round">
                <path d="M4.55324427,6.58854962 C5.59064885,9.02232824 8.1360687,10.5887405 10.8961832,10.2692748 C13.7198473,9.94122137 15.870229,7.73931298 16.2515267,5.05305344" fill="#E2C5B6" fill-rule="nonzero"></path>
                <path d="M1.6351145,4.45706107 C7.17938931,8.30267176 14.7916031,6.92862595 18.6372137,1.3860687"></path>
            </g>
            <circle id="Oval" fill="#58595B" fill-rule="nonzero" cx="144.398473" cy="199.650573" r="3.21526718"></circle>
            <circle id="Oval" fill="#58595B" fill-rule="nonzero" cx="119.10229" cy="201.261641" r="3.21526718"></circle>
            <path d="M136.932252,203.573473 C137.134924,206.125763 139.080916,207.735115 139.202863,209.40458 C139.323092,211.072328 136.312214,211.975763 136.312214,211.975763" id="Shape" stroke="#58595B" stroke-width="1.25" stroke-linecap="round" stroke-linejoin="round"></path>
            <path d="M95.2729008,195.586832 C95.8087786,195.586832 97.0162214,195.403053 98.3456107,196.112405 C99.1322519,167.429198 111.770038,161.069084 127.243511,161.069084 C143.225382,161.069084 156.180916,167.853435 156.180916,199.009924 C156.180916,230.166412 140.496183,237.651527 135.616603,237.651527 C131.496183,237.651527 104.302099,232.308206 99.644084,211.86584 C98.7062977,212.466985 97.5950382,212.762405 96.346374,212.762405 C92.4921756,212.762405 90.9790076,209.445802 90.9790076,203.369084 C90.9790076,197.292366 93.7477099,195.586832 95.2729008,195.586832 Z" id="Shape" stroke="#58595B" stroke-width="1.25"></path>
            <path d="M95.85,195.53874 C98.6736641,196.244656 100.966603,197.654771 102.730534,200.301527 C104.494466,190.774237 111.278817,180.736832 112.434733,173.660496 C119.347901,185.580344 143.110305,189.053244 155.456107,187.370038 C155.761832,189.960115 155.904389,191.329008 156.180916,194.755534 C171.43626,171.297137 149.458397,153.420802 133.428435,148.608206 C117.398473,143.793893 109.264122,148.451908 104.93416,151.785687" id="Shape" stroke="#58595B" stroke-width="1.25" fill="#C36F69" fill-rule="nonzero"></path>
            <path d="M154.731298,182.054198 L155.725763,181.918511 C156.208397,178.821756 155.914695,175.800573 154.841221,172.87042 C151.380344,163.429008 140.516794,156.338931 131.886069,153.747137 C127.468511,152.422901 123.799809,151.921374 120.76145,151.921374" id="Shape" stroke="#CC877F" stroke-width="1.25"></path>
            <g transform="translate(73.854962, 285.114504)" id="Shape">
                <g>
                    <path d="M1.23320611,53.5946565 C1.23320611,56.2517176 3.40763359,58.4244275 6.0629771,58.4244275 L94.7645038,58.4244275 C97.4215649,58.4244275 99.5942748,56.25 99.5942748,53.5946565 L99.5942748,4.9139313 C99.5942748,2.25687023 97.4198473,0.0841603053 94.7645038,0.0841603053 L6.0629771,0.0841603053 C3.40591603,0.0841603053 1.23320611,2.25858779 1.23320611,4.9139313 L1.23320611,53.5946565 Z" fill="#E5E8EB" fill-rule="nonzero"></path>
                    <path d="M1.23320611,53.5946565 C1.23320611,56.2517176 3.40763359,58.4244275 6.0629771,58.4244275 L94.7645038,58.4244275 C97.4215649,58.4244275 99.5942748,56.25 99.5942748,53.5946565 L99.5942748,4.9139313 C99.5942748,2.25687023 97.4198473,0.0841603053 94.7645038,0.0841603053 L6.0629771,0.0841603053 C3.40591603,0.0841603053 1.23320611,2.25858779 1.23320611,4.9139313 L1.23320611,53.5946565 Z" stroke="#58595B" stroke-width="1.25"></path>
                </g>
                <g transform="translate(0.000000, 58.396947)">
                    <path d="M0.946374046,3.26679389 C1.10438931,4.43816794 2.19847328,5.39484733 3.38015267,5.39484733 L97.4490458,5.39484733 C98.6307252,5.39484733 99.4671756,4.43645038 99.3091603,3.26679389 L99.1597328,2.15725191 C99.0017176,0.985877863 97.9076336,0.0291984733 96.7259542,0.0291984733 L2.65534351,0.0291984733 C1.47366412,0.0291984733 0.63721374,0.98759542 0.795229008,2.15725191 L0.946374046,3.26679389 Z" fill="#B8BBBE" fill-rule="nonzero"></path>
                    <path d="M0.946374046,3.26679389 C1.10438931,4.43816794 2.19847328,5.39484733 3.38015267,5.39484733 L97.4490458,5.39484733 C98.6307252,5.39484733 99.4671756,4.43645038 99.3091603,3.26679389 L99.1597328,2.15725191 C99.0017176,0.985877863 97.9076336,0.0291984733 96.7259542,0.0291984733 L2.65534351,0.0291984733 C1.47366412,0.0291984733 0.63721374,0.98759542 0.795229008,2.15725191 L0.946374046,3.26679389 Z" stroke="#58595B" stroke-width="1.25"></path>
                </g>
            </g>
            <circle id="Oval" fill="#FBE4D5" fill-rule="nonzero" cx="113.333015" cy="214.562405" r="6.78778626"></circle>
        </g>
    </g>
</svg>