<?xml version="1.0" encoding="UTF-8"?>
<svg width="176px" height="45px" viewBox="0 0 176 45" version="1.1" xmlns="http://www.w3.org/2000/svg" xmlns:xlink="http://www.w3.org/1999/xlink">
    <!-- Generator: Sketch 46.2 (44496) - http://www.bohemiancoding.com/sketch -->
    <title>logoebph-studentwhite</title>
    <desc>Created with Sketch.</desc>
    <defs></defs>
    <g id="Page-1" stroke="none" stroke-width="1" fill="none" fill-rule="evenodd">
        <g id="logoebph-studentwhite" fill-rule="nonzero">
            <path d="M97.7129237,0.05934852 C99.7186176,-0.0414724612 101.477622,0.533421608 103.395365,0.983898304 C105.540493,1.36787606 107.677039,1.79475635 109.783554,2.36536017 C111.055615,2.71716102 112.41777,2.99817267 113.50535,3.78114407 C114.728072,4.64134004 115.500318,5.90911017 115.942214,7.31845869 C116.152436,8.04136657 116.457045,8.74496824 116.626509,9.47860166 C116.690864,10.175768 116.442028,10.9415784 116.276853,11.6130032 C112.715943,13.517876 107.962341,12.9966102 104.753231,10.6047935 C103.601298,9.84112819 103.496186,7.93196505 104.508686,7.02457627 C104.212659,6.47542372 103.985275,5.82759534 103.569121,5.35995763 C102.936308,4.74430615 101.938824,4.44184321 101.095789,4.24020127 C99.0214513,3.79615996 96.8248411,3.74896716 94.7097458,3.80045022 C92.8091631,3.80903071 90.8699682,3.96991525 89.0230138,4.43540784 C87.94616,4.71856462 86.7963718,5.13900953 85.9447564,5.87693326 C85.4234904,6.32311971 85.0244968,6.88943326 84.942982,7.58659958 C85.4106197,8.6527278 86.0262712,9.6158898 86.3029926,10.7678231 C84.8121292,11.6408898 83.1904131,12.2200741 81.5150689,12.6255032 C79.2133475,13.1617849 76.9416578,13.4728284 74.6635328,12.6340837 C74.5755827,12.1213983 74.4876324,11.6087129 74.3975371,11.0960275 C73.6939353,11.5743909 73.0246557,11.9433528 72.7608051,12.8164195 C72.4368909,13.6615996 72.8444651,14.528231 73.0782839,15.339089 C73.9105932,14.9336599 74.6635328,14.530376 75.6052436,14.4488612 C77.2355403,14.2987023 79.1039459,14.5368115 80.335249,15.7187765 C81.2083157,16.5189089 81.2447828,17.9625795 80.4575212,18.833501 C79.3956833,20.0519333 77.5615996,20.3543962 76.0514301,19.978999 C74.7793697,19.6915519 73.9105932,18.9343221 72.9302702,18.140625 C72.557018,19.8846134 73.7068061,21.3561705 75.0968485,22.242108 C76.9523834,23.3082362 79.1597193,23.3661547 81.2426378,23.3039459 C81.652357,21.3304291 81.8175318,18.9193061 82.866499,17.179608 C83.4692797,16.1370763 84.5182468,15.5042638 85.702357,15.3605403 C87.6458422,15.0966897 89.8274365,15.6158103 91.725874,16.0040784 C93.482733,16.2421875 95.2975106,16.1435116 97.0672404,16.1113347 C99.0214513,16.0770127 100.703231,15.120286 102.648861,15.171769 C103.925212,15.1824946 105.180111,15.3455244 106.021001,16.4137977 C106.859746,17.5292638 107.151483,19.1466897 107.451801,20.487394 C108.513639,25.665731 109.71491,30.8783898 110.542929,36.095339 C110.813216,37.6913135 111.246531,39.420286 111.004131,41.039857 C110.830376,42.170339 110.154661,43.1377913 109.11642,43.6333157 C107.314513,44.532124 105.24232,44.3176112 103.290254,44.4077065 C96.788374,44.3755297 90.258607,44.5278337 83.7653072,44.1889036 C82.4481991,44.1116791 80.9380297,44.0194385 79.7989672,43.2815148 C78.9387712,42.7280721 78.4775689,41.8185381 78.3488612,40.8210541 C78.1536547,39.1971928 78.4582628,37.4725106 78.7735964,35.8786811 C79.5179555,32.3048994 80.2237023,28.7225371 80.8994174,25.1358846 C78.9923994,25.1830773 77.1475901,25.0307733 75.3542638,24.350768 C73.6338718,23.6900689 72.1194121,22.3128972 71.4007945,20.6075212 C70.8623676,19.2668167 71.0339778,17.8488877 71.7633209,16.6197298 C70.954608,15.0838189 70.4955509,13.4106196 71.2570709,11.7524365 C71.9478019,10.3387977 73.2069916,9.65450216 74.6227754,9.12036544 C74.6120498,7.59303496 75.1032839,6.40892478 76.1629767,5.32349047 C77.096107,4.29597458 78.295233,3.79401483 79.5844545,3.35855403 C81.4314089,2.7557733 83.2976695,2.20876589 85.1639301,1.66819385 C87.0259004,1.12976695 88.8642744,0.640677971 90.8013241,0.458342156 C93.1223517,0.153734108 95.3704449,0.0100105988 97.7129237,0.05934852 Z" id="Shape" fill="#FFFFFF"></path>
            <path d="M14.1666578,15.4549259 C14.9903866,15.5793432 16.0007416,15.7745497 16.6378443,16.3451536 C17.3114142,16.9457892 17.3671875,18.0655455 17.2127384,18.8892744 C17.0325477,19.6743909 16.043644,20.1162871 15.417267,20.5152807 C14.775874,20.991499 13.8127119,20.856356 13.1412871,20.5174259 C12.7186971,20.2878972 12.6200212,19.846001 12.4355403,19.4384269 C12.7658898,18.9600635 13.0962394,18.4838453 13.4072828,17.9969015 C12.7894862,17.7094545 12.1695445,17.5442797 11.4831038,17.5378443 C10.1466897,17.4927966 8.59147246,17.7351959 7.55752119,18.6576006 C7.06843221,19.0823358 7.11347987,19.6336334 7.01909428,20.2192532 C6.77884004,22.3965571 6.21467161,24.4944916 5.76419491,26.6567797 C7.45240996,26.5066208 9.140625,26.3543167 10.8288401,26.1998676 C11.401589,26.1398041 11.9593221,26.2041578 12.5213453,26.3178496 C12.0966102,26.9270657 11.6783103,27.8966631 10.8567267,28.0103548 C9.08485166,28.4200741 7.25505827,28.7396981 5.5260858,29.3081568 C5.36091102,29.3553496 5.2729608,29.464751 5.26009004,29.6342161 C5.03914195,31.1207892 5.00696504,32.6695709 5.06273834,34.1690148 C5.08847987,34.9176642 5.51106991,35.6620233 6.22539724,35.9344545 C7.57682733,36.2111759 8.87677436,36.0266949 10.1745763,35.6083951 C11.50241,35.1943856 12.8474047,35.1386122 14.2267214,35.1815148 C14.2395922,35.5998147 14.3404131,35.994518 14.1130297,36.3677701 C13.8427436,36.8826006 13.3193327,37.1657574 12.8431144,37.4617849 C9.90643534,39.1778866 6.31334746,39.8900689 2.9948358,38.9698093 C2.14536547,38.6630561 1.20579978,38.3820445 0.894756352,37.4338983 C0.429263775,36.0996292 0.480746824,34.525106 0.68667903,33.1457892 C1.10712394,30.3270922 1.93943326,27.4719279 2.63445445,24.7090042 C2.9626589,23.3575741 3.34878178,22.0447564 3.51181144,20.6590042 C3.12783369,20.435911 2.56152013,20.3200741 2.41350635,19.8502913 C2.11104343,19.0072564 2.57010064,17.9025159 3.32304026,17.4370233 C4.23900953,16.7870497 5.20431674,16.6712129 6.22110699,16.2550583 C8.69443856,15.2189619 11.5388772,15.1095603 14.1666578,15.4549259 Z" id="Shape" fill="#FFFFFF"></path>
            <path d="M76.471875,16.1628178 C77.6130827,16.2614936 78.6856462,16.4052172 79.4064089,17.398411 C78.8615466,17.9068061 78.3510064,18.3143803 77.5637447,18.3143803 C76.1350901,18.4430879 75.1225901,17.6944385 74.1315413,16.7784693 C74.8737554,16.4760064 75.6545815,16.1435116 76.471875,16.1628178 Z" id="Shape" fill="#2B3E50"></path>
            <path d="M68.3161017,17.9711599 C68.8566737,18.0162076 69.0239936,18.4559587 68.9746557,18.9364672 C68.8202065,20.0948358 68.3997616,21.2060116 68.2410222,22.3686705 C67.9235435,24.5802966 67.5288401,26.7876324 67.3250529,29.0121292 C68.5713718,27.8730667 69.9292373,26.9120497 71.3900689,26.0690148 C71.9242055,25.7837129 72.6320975,25.3418167 73.2541843,25.5069916 C73.7411282,25.6421346 74.3439089,26.0883209 74.11009,26.6610699 C73.618856,28.501589 73.6617584,30.54375 73.5351959,32.4464778 C73.5137447,33.8107786 73.2155721,35.1600635 73.2413135,36.5200741 C73.2370233,37.3416578 73.7196769,37.9036811 73.8612554,38.6716366 C73.753999,39.2615466 73.0825741,39.6669756 72.606356,39.9501324 C71.8233846,40.4006091 70.8838189,40.6902013 70.0536547,40.1753708 C69.5045022,39.791393 69.5109375,39.0706303 69.5431144,38.4699946 C69.72116,36.0974841 70.3861494,33.7356991 70.6521452,31.3739142 C70.7443856,30.6295551 70.6607256,29.902357 70.4912606,29.1773041 C69.9635593,29.3832362 69.4744703,29.5569916 69.1376853,30.0439353 C68.0093485,31.539089 67.3357786,33.446107 66.7952065,35.2222722 C66.5227754,36.0653071 66.4562765,36.9598252 66.1752648,37.7942797 C66.0894597,38.0924523 65.6432733,38.2340307 65.3815679,38.3305615 C64.7830773,38.5064619 64.0537341,38.6115731 63.4530985,38.4142214 C62.8503179,38.1825477 63.0541049,37.4489142 63.0626853,36.9490996 C63.4681144,33.3066737 64.1288135,29.6835541 64.6994174,26.0604343 C65.0490731,23.9903866 65.3322299,21.8945974 65.7848517,19.8417108 C65.9114142,19.3976695 65.9435911,18.9707892 66.364036,18.6962129 C66.9088983,18.3057997 67.6318061,17.9411282 68.3161017,17.9711599 Z" id="Shape" fill="#FFFFFF"></path>
            <path d="M132.901589,17.9861759 C133.377807,18.0784163 133.530111,18.4967161 133.478628,18.9343221 C133.332759,20.0948358 132.895153,21.1995763 132.74714,22.3665254 C132.436097,24.586732 132.024232,26.8047935 131.831171,29.0400159 C133.16973,27.759375 134.733528,26.7061176 136.355244,25.8180349 C137.067426,25.4426377 137.760302,25.2774629 138.412421,25.8759534 C138.950847,26.3178496 138.472485,27.0021451 138.416711,27.5620233 C138.034878,29.9066472 138.155005,32.3392214 137.854688,34.6945709 C137.788189,35.3681409 137.678787,36.0738877 137.751722,36.7474577 C137.835381,37.4532045 138.234375,37.9959216 138.373809,38.6694916 C138.238666,39.2829978 137.526483,39.7141685 137.015943,40.0016154 C136.254422,40.4177701 135.381356,40.6601695 134.579078,40.1946769 C134.0192,39.8128443 134.00204,39.0620497 134.044941,38.4528337 C134.238003,36.0224047 134.928735,33.5962659 135.177569,31.1701272 C135.252648,30.4944121 135.168989,29.8551642 134.973782,29.2073358 C134.143617,29.4540254 133.768221,29.7800847 133.307018,30.5051377 C132.052119,32.5601695 131.260566,34.9262447 130.833686,37.2858846 C130.73501,37.6205244 130.724285,37.935858 130.374629,38.1053231 C129.694624,38.4721398 128.759348,38.6308792 128.010699,38.4313824 C127.343565,38.1739672 127.558078,37.5239936 127.566658,36.9641154 C127.972087,33.3345603 128.628496,29.7243115 129.19481,26.1162076 C129.553046,24.0075477 129.838347,21.8774365 130.29955,19.7902278 C130.402515,19.4319916 130.449709,18.9922404 130.777913,18.7605667 C131.348517,18.3293962 132.172246,17.8982256 132.901589,17.9861759 Z" id="Shape" fill="#FFFFFF"></path>
            <path d="M87.8410487,18.342267 C88.3215572,18.3572828 88.7548728,18.6082627 88.7420022,19.1423994 C88.7012447,20.0133209 88.4395392,20.8820974 88.2786547,21.7380032 C87.8474841,23.9131621 87.3197828,26.1097722 87.0730932,28.3085275 C87.9225635,27.6328125 88.6240202,26.8991791 89.6601166,26.5066208 C90.4817003,26.1934321 91.4534429,26.0454185 92.3114936,26.2599311 C93.497749,26.6524894 94.1327065,27.8237288 94.2678496,29.007839 C94.5960541,32.3542372 93.0258209,35.7392478 90.3143804,37.7084746 C88.9608051,38.6930879 87.1503179,39.1821769 85.4942797,38.8754237 C84.5783103,38.7016685 83.8489672,38.1010328 83.4649894,37.2558528 C82.8772246,35.9387446 82.9051112,34.4457362 83.0938824,33.0428231 C83.6065679,28.8941472 84.267267,24.7583422 85.0330773,20.6482786 C85.2239936,19.3526218 86.5604078,18.3401218 87.8410487,18.342267 Z" id="Shape" fill="#2B3E50"></path>
            <path d="M44.8762977,19.0051112 C45.2581304,19.5542638 44.8033634,20.4981196 44.762606,21.1330773 C44.307839,24.8269862 43.8316208,28.5230403 43.447643,32.2255297 C43.3832892,32.9291314 43.2867584,33.6606196 43.3403866,34.3663666 C43.4519333,35.2458686 43.81875,36.0974841 43.9195709,36.9748411 C43.8788135,37.5754767 43.1923728,38.0817267 42.7333157,38.3949153 C42.1627119,38.7574417 41.3969015,39.1971928 40.6997352,39.0041314 C40.0862288,38.8110699 39.8953125,38.1589513 39.8030721,37.5883474 C39.6143009,36.1210805 39.8910222,34.5379767 40.1012447,33.0792903 C40.646107,29.3660752 41.1909693,25.650715 41.7315413,21.9375 C41.8366526,21.2768009 41.8817003,20.5731991 42.0919227,19.9360964 C42.4694651,18.8892744 43.9667638,18.2393009 44.8762977,19.0051112 Z" id="Shape" fill="#FFFFFF"></path>
            <path d="M48.4994174,21.229608 C49.1622616,20.9957892 50.0739407,21.094465 50.3656779,21.8366791 C50.6938824,22.7226166 50.5909163,24.0247087 49.5784163,24.417267 C48.9820709,24.6339247 47.9159429,24.7132945 47.5105138,24.1062235 C46.9592161,23.1280455 47.4590307,21.6693591 48.4994174,21.229608 Z" id="Shape" fill="#FFFFFF"></path>
            <path d="M58.0345074,25.8394862 C59.0212659,25.8094545 60.2461334,25.8223252 61.1106197,26.3628972 C61.9643804,26.8541314 62.1681674,28.1197564 61.5332097,28.8619703 C60.9497352,29.5269597 59.9779926,29.8615996 59.1070709,29.8144068 C58.6523041,29.7822298 58.264036,29.4969279 58.2361494,29.0164195 C58.3283898,28.5487818 58.5943856,28.1068856 58.7788666,27.6714247 C57.3823888,27.4075741 55.8915254,27.5555879 55.0806674,28.8662606 C54.8189619,29.3338983 54.7674788,30.5909428 55.4903866,30.6660222 C56.6208686,30.7089247 57.7492055,30.3056409 58.8925583,30.357124 C59.7613347,30.3828654 60.7352225,30.610249 61.2736494,31.3567532 C61.8142214,32.131144 61.8056409,33.2358846 61.5932733,34.1196769 C61.2693591,35.4389301 60.338374,36.5265096 59.2958422,37.3545286 C58.062394,38.3327065 56.6251589,38.9848252 55.024894,38.9419227 C53.8043167,38.9183263 52.3134534,38.6673464 51.4125,37.7706833 C50.7646716,37.0842426 50.4600635,35.8443591 51.3116791,35.1793696 C51.9380561,34.6259269 53.2487288,34.2097722 53.926589,34.8490201 C54.0209746,35.4453654 53.8193327,36.1189353 53.9887977,36.6895392 C54.53366,37.446769 55.5118379,37.444624 56.3184057,37.1614672 C57.167876,36.8396981 57.9980403,36.2562235 58.5042903,35.4925583 C58.7831568,35.1064353 58.8239142,34.2827065 58.3991791,33.9974047 C56.6852225,33.3924788 54.7481727,34.5336865 53.1200212,33.9051642 C52.4185647,33.6777807 51.8822828,33.1221928 51.6978019,32.4035752 C51.361017,30.9920815 51.7557203,29.4969279 52.6759799,28.383607 C53.9780721,26.8069385 56.0009269,25.8952596 58.0345074,25.8394862 Z" id="Shape" fill="#FFFFFF"></path>
            <path d="M125.219889,26.1698358 C126.013585,26.7168432 126.153019,27.6993115 126.228098,28.5895392 C126.395418,31.5605403 125.440837,34.5958951 123.735461,37.0198888 C122.95249,38.086017 121.843459,39.0684852 120.427675,38.9590837 C119.16205,38.8582627 118.40482,37.5583157 118.439142,36.3806409 C118.462739,35.8443591 118.632203,34.9884534 119.181356,34.7331833 C119.719783,34.5830244 120.367611,35.0270657 120.899603,35.1386122 C121.459481,34.8962129 121.877781,34.271981 122.212421,33.7807468 C123.124099,32.3606727 123.898491,30.7625529 123.701139,29.025 C123.64751,28.6281515 123.4759,28.3192532 123.04473,28.2613347 C122.44624,28.2034163 121.839168,28.7396981 121.435884,29.1344015 C120.150953,30.5029926 119.101986,32.1611759 118.552834,33.9652278 C117.804185,36.417108 117.825635,39.1349841 117.568221,41.6769597 C117.488851,42.2196769 117.55106,43.0391154 116.911811,43.2579185 C116.246821,43.4574153 115.298676,43.3415784 114.876086,42.7216366 C114.556462,42.2711599 114.607945,41.5568326 114.597219,41.0291314 C114.723782,36.5157839 115.465996,32.1418696 116.321902,27.7229078 C116.45061,27.169465 116.682283,26.4722987 117.257177,26.2384798 C117.89857,26.0368379 118.825265,26.2878178 119.093406,26.9613877 C119.232839,27.3904131 119.226403,27.8752119 119.262871,28.3235435 C120.168115,27.5770392 121.069068,26.7146981 122.111599,26.1698358 C123.06189,25.682892 124.295339,25.5627648 125.219889,26.1698358 Z" id="Shape" fill="#FFFFFF"></path>
            <path d="M148.546001,25.8416314 C149.354714,25.9445974 149.921028,26.6224576 150.251378,27.3153337 C150.882045,28.705376 151.220975,30.273464 151.109429,31.7986494 C150.952834,33.5919756 150.116235,35.1772246 149.037235,36.5844279 C148.076218,37.7921346 146.889963,38.7510064 145.32402,38.9955509 C144.165652,39.1392744 142.758448,39.0513241 141.756673,38.3863347 C140.774205,37.7170551 140.422404,36.5801377 140.313003,35.4496557 C140.222908,34.2591102 140.272246,32.9891949 140.649788,31.8458422 C140.956541,30.9127119 141.501403,30.172643 142.029105,29.3510593 C142.713401,28.3213983 143.618644,27.4483315 144.714804,26.8712923 C145.289698,26.562394 145.916075,26.5881356 146.536017,26.3929291 C147.237473,26.1505297 147.75874,25.7215042 148.546001,25.8416314 Z" id="Shape" fill="#FFFFFF"></path>
            <path d="M173.637554,25.8673728 C174.323994,26.0239672 174.911759,26.4186705 175.154158,27.1051112 C175.490943,28.1025953 175.323623,29.2695445 174.832389,30.1919491 C174.323994,31.1765625 173.646134,32.1676112 172.7366,32.8197298 C171.582522,33.6413135 170.098093,34.1475635 168.800291,34.7052966 C169.212156,35.5440413 169.894306,36.0846134 170.846742,36.1489672 C172.359057,36.1446769 173.794147,35.5805084 175.111255,34.8833422 C175.199205,35.1343221 175.297881,35.3659958 175.334348,35.6298464 C175.076934,36.1575477 174.506329,36.5629767 174.057998,36.9276483 C173.127013,37.6291048 172.253946,38.3820445 171.132045,38.7531515 C169.915758,39.1521451 168.472087,39.1564353 167.307283,38.5879767 C166.232574,38.0645657 165.541843,37.0220339 165.215784,35.9001324 C164.795339,34.3599311 164.816791,32.6845869 165.31017,31.1636917 C165.882918,29.4325741 167.071319,27.9653071 168.540731,26.9099047 C169.997272,25.8738083 171.893565,25.5048464 173.637554,25.8673728 Z" id="Shape" fill="#FFFFFF"></path>
            <path d="M49.3231462,26.3435911 C49.7993644,26.8176642 49.5934321,27.7271981 49.522643,28.3235435 C49.1429555,30.5029926 48.5380297,32.56875 48.610964,34.8125529 C48.6367055,35.5998147 48.9177172,36.3613347 48.949894,37.142161 C48.9627648,37.5711865 48.5980932,37.9144068 48.3020657,38.1761122 C47.6864142,38.6780721 46.8240731,39.0234375 46.0239407,38.9226166 C45.4983846,38.813215 45.1658898,38.4635593 45.0715042,37.9380032 C44.8033634,36.483607 45.067214,34.8597458 45.3160487,33.4117849 C45.6614142,31.6613612 45.9038135,29.835858 46.4100635,28.1412076 C46.5795286,27.5856196 46.7854608,26.9806939 47.2037606,26.5581038 C47.7100106,25.9853548 48.7160753,25.8845339 49.3231462,26.3435911 Z" id="Shape" fill="#FFFFFF"></path>
            <path d="M99.2188029,25.9102754 C99.9588718,26.0239672 99.9931939,26.6932468 99.9631621,27.304608 C99.7701006,29.3124471 99.2917373,31.2966897 99.1094015,33.3066737 C99.0579185,33.8708422 99.3088983,34.2977224 99.5255561,34.7932468 C100.718247,33.9845339 101.552701,32.8519068 102.243432,31.607733 C102.929873,30.2713189 103.116499,28.5616525 103.575556,27.1480138 C103.893035,26.1676907 105.115757,25.9789195 105.997405,26.1440943 C106.482203,26.2599311 106.662394,26.5774099 106.655959,27.066499 C106.619492,28.452251 106.419995,29.8401483 106.224788,31.2130297 C105.84081,33.6434587 105.448252,36.1725635 104.665281,38.5128972 C104.242691,39.825715 103.485461,40.9948093 102.528734,41.9815678 C101.584878,42.9576006 100.394333,43.6912341 99,43.7255561 C98.1204978,43.7384269 96.975,43.7019597 96.2563824,43.1249205 C95.6536017,42.6637182 95.6064089,41.7842161 95.8681144,41.1256621 C96.1855932,40.4134798 97.2259799,40.2118379 97.9059852,40.3855932 C98.5559587,40.5872352 98.9206304,41.3938029 99.2831568,41.917214 C99.8666314,41.5611228 100.332124,41.1599841 100.638877,40.533607 C101.509799,38.8561176 102.091128,36.938374 102.262738,35.0549523 C101.155853,36.1468221 100.136917,37.6913135 98.7511653,38.4228019 C97.869518,38.896875 96.8420022,38.457124 96.4194121,37.5883474 C95.7887447,36.2648041 95.8530985,34.5229608 95.979661,33.0943061 C96.1684322,31.2752384 96.282124,29.396107 96.7197299,27.6199417 C97.0479343,26.4529926 97.9875,25.7472458 99.2188029,25.9102754 Z" id="Shape" fill="#2B3E50"></path>
            <path d="M19.2012712,26.2256091 C19.6646186,26.2384798 20.1236759,26.3950741 20.2738347,26.8777278 C20.4003972,27.4440413 20.2180615,28.0961599 20.1644333,28.6646186 C21.0782574,27.9095339 22.0371292,27.017161 23.1182733,26.5130561 C23.7231991,26.240625 24.394624,26.0818856 24.9995497,26.4551377 C25.5336865,26.8584216 25.780376,27.4912341 25.7932468,28.147643 C25.8061176,30.4407839 25.5036547,32.7661017 25.3256091,35.01634 C25.2398041,35.8529397 25.7589248,36.5565413 25.780376,37.3352224 C25.4843485,38.1589513 24.4782839,38.8475371 23.6567003,39.0792108 C22.6163135,39.3023041 21.8419227,38.3670286 21.8290519,37.3974311 C21.8097458,35.539751 22.303125,33.6348782 22.6012977,31.8050847 C22.7106991,31.0714513 22.9037606,30.2520127 22.7686176,29.5162341 C21.9641949,29.2931409 21.2434322,30.0332097 20.8036811,30.612394 C19.3814619,32.551589 19.1068856,35.0635328 18.8880827,37.3824153 C18.8473253,38.5107522 17.510911,38.6501853 16.6507151,38.7595869 C15.9685647,38.761732 15.7669227,38.206144 15.8162606,37.6162341 C16.0650953,34.9262446 16.3718485,32.2255297 16.7987288,29.5569916 C16.9424523,28.7740201 17.0518538,27.9266949 17.375768,27.1952065 C17.6932468,26.4851695 18.4805084,26.2384798 19.2012712,26.2256091 Z" id="Shape" fill="#FFFFFF"></path>
            <path d="M34.1077596,26.3779131 C34.9636653,26.1698358 35.7166049,26.3972193 36.5596398,26.3929291 C37.1087924,26.3307203 37.6472193,26.1526747 38.1877913,26.038983 C38.7541049,27.0815148 38.5481727,28.0897246 38.4966897,29.2223517 C38.2542903,32.0088718 37.9153602,34.795392 37.4048199,37.5454449 C37.0637447,39.3023041 36.3901747,41.0377119 34.9615202,42.1939353 C33.4148834,43.4188029 31.4242055,43.6955244 29.508607,43.504608 C28.8457627,43.4145127 28.0756621,43.2107256 27.6144597,42.6916048 C27.02884,41.9794227 27.1146451,40.8189089 27.8439884,40.228999 C28.4060116,39.6991525 29.4657045,39.4095603 30.0663401,40.0295022 C30.3966897,40.4756885 30.4159958,41.1492584 30.6412341,41.6597987 C30.7720869,41.9451006 31.1324682,41.8206833 31.3791578,41.8099576 C32.3187235,41.6404926 32.9300847,40.9519068 33.3097722,40.1195974 C33.9189884,38.7638772 34.131356,37.1400159 34.317982,35.6791843 C33.2904661,36.8697298 32.0420022,38.4206568 30.3559322,38.5579449 C28.8929555,38.6458951 27.8504237,37.5561705 27.5393804,36.2047404 C27.043856,33.7700212 27.923358,31.1379502 29.5879767,29.3253178 C30.7656515,28.0210805 32.361626,26.7661811 34.1077596,26.3779131 Z" id="Shape" fill="#FFFFFF"></path>
            <path d="M157.283103,26.5087659 C157.785064,27.0450477 157.435408,28.0103549 157.375344,28.653893 C158.289168,27.9374205 159.205138,27.0707892 160.24767,26.5516685 C160.824709,26.2899629 161.51973,26.0754502 162.118221,26.3972193 C162.703841,26.746875 163.010593,27.4504767 162.999867,28.1176112 C163.012739,30.0160487 162.847564,31.8994703 162.650212,33.7871821 C162.585858,34.6001853 162.437844,35.3273834 162.710276,36.1210805 C162.847564,36.7238612 163.229397,37.2987553 162.736017,37.8414724 C162.242638,38.4142214 161.526166,38.965519 160.768935,39.098517 C159.861547,39.2250795 159.166526,38.4399629 159.07214,37.5969279 C158.919836,34.8425847 160.129688,32.0946769 159.998834,29.3703654 C158.952013,29.5355403 158.342797,30.0932733 157.785064,30.9577596 C156.609534,32.8004237 156.332813,35.033501 156.135461,37.1636122 C156.086123,37.7149099 155.94669,38.2018538 155.376086,38.4120763 C154.801191,38.6201536 153.898093,38.948358 153.338216,38.6008474 C152.868432,38.1825477 153.061494,37.5025423 153.087235,36.9555349 C153.41973,34.0917903 153.675,31.1765625 154.245603,28.3514301 C154.41936,27.6113612 154.535196,26.9013241 155.258103,26.4958952 C155.824417,26.2105932 156.761838,26.0625795 157.283103,26.5087659 Z" id="Shape" fill="#FFFFFF"></path>
            <path d="M172.060884,27.8172935 C172.322591,28.6839247 171.968644,29.7607786 171.47741,30.4944121 C170.730906,31.5669756 169.630455,32.4100106 168.388427,32.8283103 C168.150318,31.7149894 168.491393,30.713215 169.02124,29.7457627 C169.460991,28.9520657 170.095948,27.9738877 170.97116,27.6263772 C171.320815,27.4998147 171.887129,27.3753972 172.060884,27.8172935 Z" id="Shape" fill="#2B3E50"></path>
            <path d="M35.3926907,28.0554025 C35.8109904,28.6689089 35.5514301,29.6878443 35.3798199,30.359269 C34.9057468,31.8951801 34.1141949,33.4890096 32.934375,34.6001853 C32.3530455,35.1429025 31.8210541,35.033501 31.1131621,34.8683263 C31.0552436,33.8429555 31.1496292,32.8347458 31.4649629,31.8544227 C31.8811176,30.595233 32.2758209,29.4239936 33.3569651,28.5723782 C33.8439089,28.1519333 34.7834746,27.7100371 35.3926907,28.0554025 Z" id="Shape" fill="#2B3E50"></path>
            <path d="M89.8746292,28.4951536 C90.2157045,28.4157839 90.6232786,28.3621557 90.9600635,28.4779926 C91.4813295,28.7289724 91.7859375,29.2888506 91.7601959,29.8615996 C91.725874,31.6935381 90.7841631,33.4847193 89.5507151,34.7975371 C88.9114672,35.4668167 87.9697564,36.0996292 87.0001589,35.8658103 C86.3780721,35.6470074 86.2128972,34.9798728 86.1807203,34.392108 C86.0884799,33.0664195 86.614036,31.8951801 87.2232522,30.7561176 C87.7616791,29.715731 88.7420022,28.8255032 89.8746292,28.4951536 Z" id="Shape" fill="#FFFFFF"></path>
            <path d="M145.287554,28.6131356 C145.557839,28.9778071 145.82598,29.4518803 146.216393,29.700715 C147.029397,29.6363612 147.587129,29.4154131 148.151297,28.8255032 C148.290731,28.9048728 148.430165,28.9842426 148.571742,29.0657574 C148.715466,30.0610964 148.934269,30.9641949 148.681144,31.9702596 C148.406568,33.092161 147.943221,34.2805615 147.158103,35.1450477 C146.606806,35.7328125 145.808819,36.0889036 145.015122,35.7671346 C144.000477,35.3145127 143.496372,34.1668696 143.511388,33.0985964 C143.534985,31.4940413 144.109878,29.7436176 145.287554,28.6131356 Z" id="Shape" fill="#2B3E50"></path>
        </g>
    </g>
</svg>