<?xml version="1.0" encoding="UTF-8"?>
<svg width="301px" height="333px" viewBox="0 0 301 333" version="1.1" xmlns="http://www.w3.org/2000/svg" xmlns:xlink="http://www.w3.org/1999/xlink">
    <!-- Generator: Sketch 46.2 (44496) - http://www.bohemiancoding.com/sketch -->
    <title>student</title>
    <desc>Created with Sketch.</desc>
    <defs></defs>
    <g id="Page-1" stroke="none" stroke-width="1" fill="none" fill-rule="evenodd">
        <g id="student" transform="translate(-47.000000, 1.000000)">
            <g id="Layer_12">
                <g id="Group">
                    <path d="M254.249219,347.772266 L254.249219,322.1375" id="Shape" fill="#EBEDEF" fill-rule="nonzero"></path>
                    <rect id="Rectangle-path" fill="#FDF0BC" fill-rule="nonzero" x="84.9285156" y="288.384375" width="25.7660156" height="33.884375"></rect>
                    <path d="M117.604297,330.813672 L347.042969,330.813672" id="Shape" stroke="#58595B" stroke-width="1.25" stroke-linecap="round"></path>
                    <path d="M97.8785156,330.813672 L108.208984,330.813672" id="Shape" stroke="#58595B" stroke-width="1.25" stroke-linecap="round"></path>
                    <path d="M48.1867188,330.813672 L76.3835937,330.813672" id="Shape" stroke="#58595B" stroke-width="1.25" stroke-linecap="round"></path>
                    <rect id="Rectangle-path" stroke="#58595B" stroke-width="1.25" stroke-linecap="round" stroke-linejoin="round" x="84.9285156" y="280.695312" width="25.7660156" height="41.5734375"></rect>
                    <path d="M84.9285156,314.248828 C77.9285156,314.248828 72.2546875,308.577734 72.2546875,301.577734 C72.2546875,294.575 77.9285156,288.903906 84.9285156,288.903906" id="Shape" stroke="#58595B" stroke-width="1.25" stroke-linecap="round" stroke-linejoin="round"></path>
                    <path d="M267.067969,152.092187 L277.748437,163.628516 L286.719922,156.792578 L280.310547,144.403125 C280.310547,144.403125 283.884375,121.7625 280.039844,115.353125 C276.195312,108.94375 264.738281,109.214453 260.89375,111.35 C258.285156,112.799219 255.799609,133.974219 250.730078,144.299219 C242.130469,139.360937 238.772656,145.373828 241.110547,148.119141 C248.375781,156.664062 261.484375,152.882422 267.067969,152.092187 Z" id="Shape" stroke="#58595B" stroke-width="1.25" fill="#FCEDE4" fill-rule="nonzero"></path>
                    <g transform="translate(211.062500, 81.031250)">
                        <g id="Shape">
                            <path d="M66.3332031,42.2132812 C68.3265625,44.2066406 68.3265625,47.4714844 66.3332031,49.4648437 L49.2980469,66.4972656 C47.3046875,68.490625 44.0425781,68.490625 42.0492187,66.4972656 L3.47539062,27.9289062 C1.48203125,25.9355469 1.48203125,22.6707031 3.47539062,20.6773437 L20.5105469,3.64492187 C22.5039062,1.6515625 25.7660156,1.6515625 27.759375,3.64492187 L66.3332031,42.2132812 Z" fill="#F1F2F2" fill-rule="nonzero"></path>
                            <path d="M66.3332031,42.2132812 C68.3265625,44.2066406 68.3265625,47.4714844 66.3332031,49.4648437 L49.2980469,66.4972656 C47.3046875,68.490625 44.0425781,68.490625 42.0492187,66.4972656 L3.47539062,27.9289062 C1.48203125,25.9355469 1.48203125,22.6707031 3.47539062,20.6773437 L20.5105469,3.64492187 C22.5039062,1.6515625 25.7660156,1.6515625 27.759375,3.64492187 L66.3332031,42.2132812 Z" stroke="#58595B" stroke-width="0.625"></path>
                        </g>
                        <g transform="translate(2.734375, 2.734375)" id="Shape">
                            <path d="M53.9300781,35.8558594 C54.5945312,36.5175781 54.5945312,37.6085937 53.9300781,38.2703125 L38.1035156,54.0996094 C37.4390625,54.7613281 36.3507812,54.7613281 35.6863281,54.0996094 L1.34257812,19.753125 C0.678125,19.0914062 0.678125,18.0003906 1.34257812,17.3386719 L17.1691406,1.509375 C17.8335937,0.84765625 18.921875,0.84765625 19.5863281,1.509375 L53.9300781,35.8558594 Z" fill="#43729E" fill-rule="nonzero"></path>
                            <path d="M53.9300781,35.8558594 C54.5945312,36.5175781 54.5945312,37.6085937 53.9300781,38.2703125 L38.1035156,54.0996094 C37.4390625,54.7613281 36.3507812,54.7613281 35.6863281,54.0996094 L1.34257812,19.753125 C0.678125,19.0914062 0.678125,18.0003906 1.34257812,17.3386719 L17.1691406,1.509375 C17.8335937,0.84765625 18.921875,0.84765625 19.5863281,1.509375 L53.9300781,35.8558594 Z" stroke="#58595B" stroke-width="0.625"></path>
                        </g>
                        <circle id="Oval" fill="#58595B" fill-rule="nonzero" cx="53.2546875" cy="53.4214844" r="3.15273438"></circle>
                    </g>
                    <path d="M274.262109,111.694531 C270.417578,105.285156 262.310156,105.438281 258.533984,107.691406 C253.702344,110.576172 256.803125,115.2 261.101562,114.683203 C265.402734,114.166406 268.079687,113.40625 269.744922,116.865234" id="Shape" stroke="#58595B" stroke-width="1.25" fill="#FCEDE4" fill-rule="nonzero"></path>
                    <path d="M279.186719,115.353125 C275.342187,108.94375 269.075,110.2125 264.891406,111.56875 C259.5375,113.305078 263.166016,117.382031 267.467187,116.865234 C271.768359,116.348437 271.866797,117.721094 274.669531,120.523828" id="Shape" stroke="#58595B" stroke-width="0.625" fill="#FCEDE4" fill-rule="nonzero"></path>
                    <g transform="translate(183.718750, 116.578125)" id="Shape">
                        <path d="M10.1226562,49.6152344 C14.8230469,49.6152344 18.6675781,42.6945312 18.6675781,34.234375 L18.6675781,17.9976562 C18.6675781,9.5375 23.2832031,2.61679687 28.9214844,2.61679687 C34.5597656,2.61679687 39.1753906,9.5375 39.1753906,17.9976562 L39.1753906,34.234375 C39.1753906,42.6945312 43.0199219,49.6152344 47.7203125,49.6152344 C52.4207031,49.6152344 56.2652344,56.5359375 56.2652344,64.9960937 L56.2652344,76.9589844 C56.2652344,85.4191406 49.3445312,92.3398437 40.884375,92.3398437 L16.9585937,92.3398437 C8.4984375,92.3398437 1.57773437,85.4191406 1.57773437,76.9589844 L1.57773437,64.9960937 C1.57773437,56.5359375 5.42226562,49.6152344 10.1226562,49.6152344 Z" fill="#FCEDE4" fill-rule="nonzero"></path>
                        <path d="M10.1226562,49.6152344 C14.8230469,49.6152344 18.6675781,42.6945312 18.6675781,34.234375 L18.6675781,17.9976562 C18.6675781,9.5375 23.2832031,2.61679687 28.9214844,2.61679687 C34.5597656,2.61679687 39.1753906,9.5375 39.1753906,17.9976562 L39.1753906,34.234375 C39.1753906,42.6945312 43.0199219,49.6152344 47.7203125,49.6152344 C52.4207031,49.6152344 56.2652344,56.5359375 56.2652344,64.9960937 L56.2652344,76.9589844 C56.2652344,85.4191406 49.3445312,92.3398437 40.884375,92.3398437 L16.9585937,92.3398437 C8.4984375,92.3398437 1.57773437,85.4191406 1.57773437,76.9589844 L1.57773437,64.9960937 C1.57773437,56.5359375 5.42226562,49.6152344 10.1226562,49.6152344 Z" stroke="#58595B" stroke-width="1.25"></path>
                    </g>
                    <path d="M230.572266,184.710547 C225.932031,189.205859 219.610156,191.975781 212.640234,191.975781 C205.670312,191.975781 199.348437,189.203125 194.708203,184.710547 L178.017578,184.710547 L178.017578,220.869922 L247.260156,220.869922 L247.260156,184.710547 L230.572266,184.710547 Z" id="Shape" stroke="#58595B" stroke-width="0.625" fill="#E7E6D4" fill-rule="nonzero"></path>
                    <path d="M181.878516,166.193359 L184.443359,166.193359 L190.426172,164.484375 L212.642969,207.208984 L233.968359,164.484375 L240.804297,166.193359 L243.404688,166.193359 C260.325,166.193359 274.166406,180.890625 257.076563,197.808203 L257.076563,229.425781 C274.166406,246.346094 260.325,260.1875 243.404688,260.1875 L181.88125,260.1875 C164.960937,260.1875 151.119531,246.346094 151.119531,229.425781 L151.119531,196.955078 C151.116797,180.034766 164.960937,166.193359 181.878516,166.193359 Z" id="Shape" stroke="#58595B" stroke-width="1.25" fill="#C8DE92" fill-rule="nonzero" stroke-linejoin="round"></path>
                    <path d="M212.640234,208.062109 L190.423437,165.3375 L184.440625,167.046484 C184.440625,167.046484 174.044531,187.0375 179.382031,195.098437 C184.719531,203.162109 196.009766,201.786719 196.009766,201.786719 C196.009766,201.786719 195.008984,206.169922 199.474219,208.062109 C203.939453,209.954297 212.640234,208.062109 212.640234,208.062109 Z" id="Shape" stroke="#58595B" stroke-width="0.625" fill="#D2E4A6" fill-rule="nonzero" stroke-linejoin="round"></path>
                    <path d="M212.640234,208.062109 L234.857031,165.3375 L240.839844,167.046484 C240.839844,167.046484 251.235937,187.0375 245.898437,195.098437 C240.560937,203.162109 229.270703,201.786719 229.270703,201.786719 C229.270703,201.786719 230.271484,206.169922 225.80625,208.062109 C221.341016,209.954297 212.640234,208.062109 212.640234,208.062109 Z" id="Shape" stroke="#58595B" stroke-width="0.625" fill="#D2E4A6" fill-rule="nonzero" stroke-linejoin="round"></path>
                    <path d="M212.640234,207.208984 L212.640234,260.1875" id="Shape" stroke="#58595B" stroke-width="1.25" stroke-linejoin="round"></path>
                    <path d="M243.401953,166.193359 C267.130859,166.193359 269.988281,183.545703 274.573828,188.128516 C274.573828,178.213672 272.580469,163.437109 271.144922,158.222656 C273.444531,154.244141 280.830078,148.329687 284.931641,149.308594 C289.489844,160.899609 300.823828,198.617578 287.40625,213.2875 C276.903516,224.769141 256.630859,197.805469 256.630859,197.805469" id="Shape" stroke="#58595B" stroke-width="1.25" fill="#C8DE92" fill-rule="nonzero" stroke-linecap="round" stroke-linejoin="round"></path>
                    <path d="M168.206641,229.425781 L168.206641,196.955078" id="Shape" stroke="#58595B" stroke-width="1.25" fill="#C8DE92" fill-rule="nonzero" stroke-linejoin="round"></path>
                    <path d="M274.601172,197.660547 C274.601172,197.660547 274.776172,192.375 274.573828,188.128516" id="Shape" stroke="#58595B" stroke-width="1.25" fill="#C8DE92" fill-rule="nonzero" stroke-linecap="round" stroke-linejoin="round"></path>
                    <path d="M181.878516,121.899219 C181.878516,121.899219 155.910156,123.490625 149.632031,83.3308594 C143.353906,43.1710937 159.068359,7.07460937 182.734375,8.44726562" id="Shape" stroke="#58595B" stroke-width="1.25" fill="#C36F69" fill-rule="nonzero"></path>
                    <path d="M155.85,56.2550781 C158.133203,33.69375 168.660547,16.9648437 182.734375,17.8207031" id="Shape" stroke="#CC877F" stroke-width="1.25"></path>
                    <path d="M160.517578,90.56875 C160.517578,100.242969 162.926562,105.523047 169.0625,105.523047 C175.198437,105.523047 179.316406,101.098828 179.316406,91.4246094 C179.316406,81.7503906 169.781641,78.1792969 167.353516,78.1792969 C164.922656,78.1792969 160.517578,80.8945312 160.517578,90.56875 Z" id="Shape" fill="#FCEDE4" fill-rule="nonzero"></path>
                    <path d="M173.035547,82.7730469 C173.035547,132.374609 208.762891,143.098828 231.933984,144.291016 C239.688672,144.690234 265.173047,132.374609 265.173047,82.7730469 C265.173047,33.1714844 244.547656,22.3707031 219.104297,22.3707031 C193.660937,22.3707031 173.035547,33.1714844 173.035547,82.7730469 Z" id="Shape" fill="#ECDAD0" fill-rule="nonzero"></path>
                    <path d="M171.408594,81.9773437 C171.408594,131.581641 219.954687,139.057422 229.620703,139.057422 C239.286719,139.057422 263.464062,128.256641 263.464062,78.6550781 C263.464062,29.0535156 242.838672,18.2554687 217.395312,18.2554687 C191.951953,18.2554687 171.408594,32.3785156 171.408594,81.9773437 Z" id="Shape" fill="#FCEDE4" fill-rule="nonzero"></path>
                    <path d="M263.464062,94.7167969 C257.494922,94.7167969 252.657812,99.5566406 252.657812,105.523047 C252.657812,110.371094 255.851562,114.472656 260.251172,115.842578 C262.299219,109.977344 263.855078,103.012891 264.628906,94.7824219 C264.246094,94.7414062 263.857812,94.7167969 263.464062,94.7167969 Z" id="Shape" fill="#FBE4D5" fill-rule="nonzero"></path>
                    <g transform="translate(213.796875, 111.109375)" id="Shape" stroke="#58595B" stroke-width="1.25" stroke-linecap="round">
                        <path d="M6.00195312,10.7132812 C7.65351562,14.5878906 11.7058594,17.0816406 16.1,16.5730469 C20.5953125,16.0507812 24.01875,12.5453125 24.6257812,8.26875" fill="#E2C5B6" fill-rule="nonzero"></path>
                        <path d="M1.35898437,7.31992187 C10.1855469,13.4421875 22.3042969,11.2546875 28.4265625,2.43085938"></path>
                    </g>
                    <circle id="Oval" fill="#58595B" fill-rule="nonzero" cx="245.562109" cy="84.6488281" r="5.11875"></circle>
                    <circle id="Oval" fill="#58595B" fill-rule="nonzero" cx="205.2875" cy="87.2136719" r="5.11875"></circle>
                    <path d="M233.673047,90.8941406 C233.995703,94.9574219 237.09375,97.5195312 237.287891,100.177344 C237.479297,102.832422 232.685937,104.270703 232.685937,104.270703" id="Shape" stroke="#58595B" stroke-width="1.25" stroke-linecap="round" stroke-linejoin="round"></path>
                    <path d="M167.353516,78.1792969 C168.206641,78.1792969 170.128906,77.8867188 172.245312,79.0160156 C173.497656,33.3519531 193.617187,23.2265625 218.251172,23.2265625 C243.694531,23.2265625 264.319922,34.0273438 264.319922,83.6289063 C264.319922,133.230469 239.349609,145.146875 231.58125,145.146875 C225.021484,145.146875 181.728125,136.640234 174.3125,104.095703 C172.819531,105.052734 171.050391,105.523047 169.0625,105.523047 C162.926562,105.523047 160.517578,100.242969 160.517578,90.56875 C160.517578,80.8945313 164.922656,78.1792969 167.353516,78.1792969 Z" id="Shape" stroke="#58595B" stroke-width="1.25"></path>
                    <path d="M168.269531,78.1027344 C172.764844,79.2265625 176.415234,81.4714844 179.223437,85.6851562 C182.031641,70.5175781 192.832422,54.5378906 194.672656,43.2722656 C205.678516,62.2488281 243.508594,67.7777344 263.163281,65.0980469 C263.65,69.2214844 263.876953,71.4007812 264.317187,76.8558594 C288.603906,39.5097656 253.614844,11.0503906 228.094922,3.38867188 C202.575,-4.27578125 189.625,3.13984375 182.731641,8.44726563" id="Shape" stroke="#58595B" stroke-width="1.25" fill="#C36F69" fill-rule="nonzero"></path>
                    <path d="M262.009375,56.6351562 L263.592578,56.4191406 C264.360937,51.4890625 263.893359,46.6792969 262.184375,42.0144531 C256.674609,26.9835937 239.379687,15.6960937 225.639453,11.5699219 C218.606641,9.46171875 212.766016,8.66328125 207.928906,8.66328125" id="Shape" stroke="#CC877F" stroke-width="1.25"></path>
                    <g transform="translate(131.765625, 220.484375)" id="Shape">
                        <g transform="translate(2.734375, 0.000000)">
                            <path d="M0.71640625,85.5476563 C0.71640625,89.7777344 4.178125,93.2367187 8.40546875,93.2367187 L149.619531,93.2367187 C153.849609,93.2367187 157.308594,89.775 157.308594,85.5476563 L157.308594,8.04726562 C157.308594,3.8171875 153.846875,0.358203125 149.619531,0.358203125 L8.40820312,0.358203125 C4.178125,0.358203125 0.719140625,3.81992188 0.719140625,8.04726562 L0.719140625,85.5476563 L0.71640625,85.5476563 Z" fill="#E5E8EB" fill-rule="nonzero"></path>
                            <path d="M0.71640625,85.5476563 C0.71640625,89.7777344 4.178125,93.2367187 8.40546875,93.2367187 L149.619531,93.2367187 C153.849609,93.2367187 157.308594,89.775 157.308594,85.5476563 L157.308594,8.04726562 C157.308594,3.8171875 153.846875,0.358203125 149.619531,0.358203125 L8.40820312,0.358203125 C4.178125,0.358203125 0.719140625,3.81992188 0.719140625,8.04726562 L0.719140625,85.5476563 L0.71640625,85.5476563 Z" stroke="#58595B" stroke-width="1.25"></path>
                        </g>
                        <g transform="translate(0.000000, 92.968750)">
                            <path d="M2.99414062,5.425 C3.24570312,7.28984375 4.9875,8.81289063 6.86875,8.81289063 L156.627734,8.81289063 C158.508984,8.81289063 159.840625,7.28710938 159.589062,5.425 L159.351172,3.65859375 C159.099609,1.79375 157.357812,0.270703125 155.476562,0.270703125 L5.71757812,0.270703125 C3.83632812,0.270703125 2.5046875,1.79648437 2.75625,3.65859375 L2.99414062,5.425 Z" fill="#B8BBBE" fill-rule="nonzero"></path>
                            <path d="M2.99414062,5.425 C3.24570312,7.28984375 4.9875,8.81289063 6.86875,8.81289063 L156.627734,8.81289063 C158.508984,8.81289063 159.840625,7.28710938 159.589062,5.425 L159.351172,3.65859375 C159.099609,1.79375 157.357812,0.270703125 155.476562,0.270703125 L5.71757812,0.270703125 C3.83632812,0.270703125 2.5046875,1.79648437 2.75625,3.65859375 L2.99414062,5.425 Z" stroke="#58595B" stroke-width="1.25"></path>
                        </g>
                    </g>
                    <circle id="Oval" fill="#FBE4D5" fill-rule="nonzero" cx="196.102734" cy="108.388672" r="10.80625"></circle>
                    <path d="M231.182031,267.283203 C231.182031,277.039453 223.271484,284.95 213.515234,284.95 C203.758984,284.95 195.845703,277.039453 195.845703,267.283203 C195.845703,257.524219 203.75625,249.613672 213.515234,249.613672" id="Shape" stroke="#58595B" stroke-width="1.25" stroke-linecap="round" stroke-linejoin="round" stroke-dasharray="0.625,2.5"></path>
                    <circle id="Oval" fill="#58595B" fill-rule="nonzero" cx="213.5125" cy="267.283203" r="12.9335938"></circle>
                </g>
            </g>
        </g>
    </g>
</svg>